<svg width="608" height="628" viewBox="0 0 608 628" fill="none" xmlns="http://www.w3.org/2000/svg">
    <path d="M607.22 314.33C607.2 314.76 607.13 315.18 607.1 315.6C607.06 316.13 607.02 316.65 606.95 317.17C606.86 317.81 606.74 318.45 606.61 319.1C606.51 319.61 606.42 320.12 606.29 320.63C606.13 321.28 605.92 321.92 605.71 322.56C605.55 323.05 605.41 323.54 605.23 324.03C604.98 324.69 604.69 325.33 604.4 325.98C604.19 326.44 604.01 326.9 603.78 327.36C603.74 327.43 603.72 327.51 603.68 327.59C603.51 327.91 603.29 328.22 603.12 328.54C602.68 329.34 602.22 330.13 601.71 330.91C601.41 331.36 601.08 331.79 600.76 332.23C600.25 332.93 599.73 333.62 599.16 334.29C599.01 334.47 598.89 334.66 598.73 334.84C598.37 335.25 597.96 335.65 597.57 336.05C597.3 336.34 597.03 336.63 596.75 336.91C595.85 337.8 594.9 338.68 593.88 339.52L518.62 401.17C516.82 399.7 514.95 398.32 513.02 397.02C512.38 396.59 511.7 396.22 511.04 395.81C509.73 394.99 508.42 394.16 507.06 393.41C506.25 392.97 505.41 392.58 504.58 392.17C503.33 391.54 502.08 390.9 500.79 390.34C499.89 389.94 498.96 389.6 498.04 389.23C496.79 388.73 495.54 388.23 494.27 387.8C493.3 387.47 492.32 387.18 491.34 386.88C490.08 386.5 488.82 386.12 487.54 385.79C486.53 385.53 485.5 385.31 484.48 385.09C483.21 384.81 481.93 384.55 480.64 384.32C479.6 384.14 478.55 383.99 477.51 383.85C476.22 383.67 474.93 383.52 473.64 383.39C472.58 383.29 471.52 383.21 470.46 383.15C468.6 383.04 466.73 382.93 464.86 382.93C462.55 382.93 460.24 383.03 457.93 383.2C457.17 383.26 456.42 383.36 455.67 383.44C454.15 383.59 452.62 383.75 451.11 383.98C449.81 384.17 448.53 384.44 447.24 384.69C446.12 384.91 444.99 385.1 443.88 385.36C442.59 385.66 441.33 386.04 440.06 386.4C438.9 386.73 437.74 387.02 436.6 387.39C436.31 387.49 436.02 387.59 435.73 387.69C433.68 388.39 431.65 389.15 429.66 390C429.49 390.07 429.33 390.15 429.17 390.22C427.14 391.1 425.15 392.06 423.21 393.11C423.13 393.15 423.06 393.19 422.98 393.23C421.59 393.98 420.26 394.84 418.92 395.67C418.23 396.1 417.51 396.48 416.84 396.93C414.86 398.25 412.95 399.67 411.1 401.18C409.75 402.29 408.48 403.43 407.26 404.6C407.01 404.84 406.76 405.07 406.51 405.31C405.35 406.45 404.23 407.61 403.18 408.8C402.89 409.13 402.61 409.46 402.33 409.79C401.86 410.35 401.39 410.91 400.94 411.48C400.64 411.86 400.35 412.24 400.06 412.63C399.64 413.19 399.23 413.75 398.84 414.31C398.56 414.7 398.29 415.1 398.03 415.5C397.65 416.07 397.29 416.65 396.93 417.23C396.69 417.63 396.44 418.03 396.21 418.43C395.86 419.03 395.53 419.64 395.21 420.25C395.02 420.6 394.83 420.95 394.65 421.31C393.86 422.87 393.16 424.45 392.53 426.05C392.44 426.29 392.34 426.53 392.25 426.76C391.65 428.34 391.14 429.94 390.7 431.55C390.63 431.81 390.56 432.06 390.49 432.32C390.08 433.93 389.74 435.55 389.48 437.17C389.44 437.43 389.4 437.68 389.37 437.94C389.14 439.58 388.98 441.22 388.9 442.87C388.87 443.65 388.83 444.42 388.83 445.2C388.83 456.56 392.62 467.91 400.16 477.9C400.42 477.56 400.68 477.22 400.94 476.88C401.39 476.31 401.85 475.75 402.33 475.2C402.55 474.94 402.75 474.68 402.97 474.42C403.03 474.35 403.11 474.28 403.18 474.2C404.23 473.01 405.34 471.85 406.51 470.71C406.75 470.47 407.01 470.24 407.26 470C408.49 468.83 409.75 467.69 411.1 466.58C412.94 465.07 414.86 463.65 416.84 462.33C417.5 461.89 418.2 461.52 418.87 461.1C420.19 460.27 421.5 459.43 422.87 458.68C422.91 458.66 422.94 458.64 422.98 458.62C423.06 458.58 423.13 458.54 423.21 458.5C425.15 457.46 427.14 456.5 429.17 455.61C429.34 455.54 429.5 455.46 429.66 455.39C431.65 454.54 433.68 453.78 435.73 453.08C436.02 452.98 436.31 452.88 436.6 452.78C436.84 452.7 437.08 452.61 437.33 452.53C438.23 452.24 439.16 452.04 440.06 451.79C441.33 451.43 442.59 451.06 443.88 450.75C444.99 450.49 446.12 450.3 447.24 450.08C448.53 449.83 449.81 449.56 451.11 449.37C451.36 449.33 451.6 449.27 451.85 449.23C453.12 449.05 454.4 448.95 455.67 448.83C456.42 448.76 457.17 448.65 457.93 448.59C460.23 448.42 462.54 448.32 464.86 448.32C466.08 448.32 467.31 448.34 468.53 448.39C469.17 448.42 469.81 448.5 470.46 448.54C471.52 448.6 472.58 448.68 473.64 448.78C474.93 448.9 476.22 449.06 477.51 449.24C478.56 449.38 479.61 449.53 480.65 449.71C481.94 449.93 483.21 450.2 484.48 450.48C485.5 450.7 486.53 450.92 487.54 451.18C488.82 451.51 490.07 451.88 491.33 452.27C492.31 452.57 493.3 452.85 494.27 453.19C495.54 453.63 496.78 454.12 498.03 454.62C498.95 454.99 499.88 455.33 500.79 455.73C502.07 456.29 503.32 456.93 504.56 457.56C505.39 457.98 506.24 458.36 507.05 458.81C508.41 459.55 509.72 460.38 511.03 461.21C511.69 461.62 512.37 461.99 513.01 462.43C514.94 463.73 516.81 465.1 518.61 466.58L593.87 404.93C594.89 404.09 595.84 403.22 596.74 402.32C597.03 402.04 597.29 401.74 597.56 401.46C598.11 400.88 598.64 400.29 599.14 399.69C599.71 399.02 600.23 398.33 600.74 397.63C601.06 397.19 601.39 396.76 601.69 396.31C602.2 395.53 602.66 394.74 603.1 393.94C603.32 393.55 603.57 393.16 603.77 392.76C604 392.31 604.18 391.84 604.39 391.39C604.68 390.74 604.98 390.09 605.22 389.44C605.4 388.95 605.54 388.46 605.7 387.97C605.91 387.33 606.11 386.68 606.28 386.03C606.41 385.52 606.5 385.01 606.6 384.5C606.73 383.86 606.85 383.22 606.94 382.57C607.01 382.05 607.05 381.52 607.09 381C607.16 380.17 607.24 379.33 607.24 378.5V313.1C607.24 313.51 607.24 313.92 607.22 314.33Z"
          fill="black"/>
    <path d="M216.21 430.37C215.63 428.42 214.94 426.5 214.12 424.6C213.31 422.7 212.38 420.82 211.34 418.98C210.82 418.06 210.27 417.15 209.69 416.24C207.37 412.62 204.59 409.16 201.34 405.9C199.72 404.27 197.98 402.69 196.12 401.17C194.32 399.7 192.45 398.32 190.52 397.02C189.87 396.58 189.19 396.21 188.53 395.8C187.22 394.98 185.92 394.15 184.57 393.41C183.76 392.97 182.91 392.58 182.09 392.16C180.84 391.53 179.59 390.89 178.31 390.33C177.41 389.93 176.48 389.59 175.56 389.22C174.31 388.72 173.06 388.22 171.79 387.79C170.82 387.46 169.84 387.17 168.86 386.87C167.6 386.49 166.34 386.11 165.06 385.78C164.05 385.52 163.02 385.3 162 385.08C160.73 384.8 159.45 384.54 158.17 384.31C157.13 384.13 156.08 383.98 155.03 383.84C153.74 383.66 152.45 383.5 151.16 383.38C150.1 383.28 149.04 383.2 147.98 383.14C146.12 383.03 144.25 382.92 142.38 382.92C140.07 382.92 137.76 383.02 135.45 383.19C134.7 383.25 133.95 383.35 133.2 383.43C131.67 383.58 130.15 383.74 128.64 383.97C127.34 384.16 126.06 384.43 124.78 384.68C123.66 384.9 122.53 385.09 121.41 385.35C120.12 385.65 118.86 386.03 117.59 386.39C116.43 386.72 115.26 387.01 114.12 387.38C113.83 387.48 113.54 387.58 113.25 387.68C111.2 388.38 109.17 389.14 107.18 389.99C107.01 390.06 106.85 390.14 106.69 390.21C104.66 391.1 102.67 392.05 100.72 393.1C100.65 393.14 100.57 393.17 100.5 393.21C99.1 393.97 97.76 394.83 96.41 395.67C95.73 396.09 95.03 396.46 94.36 396.91C92.38 398.23 90.47 399.65 88.62 401.16L13.36 339.51C4.45 332.21 0 322.65 0 313.09V378.49C0 388.05 4.45 397.61 13.36 404.91L88.62 466.56C90.46 465.05 92.38 463.63 94.36 462.31C95.02 461.87 95.73 461.49 96.41 461.07C97.73 460.25 99.03 459.4 100.39 458.66C100.42 458.64 100.46 458.63 100.49 458.61C100.56 458.57 100.64 458.54 100.71 458.5C102.65 457.45 104.65 456.5 106.68 455.61C106.84 455.54 107.01 455.46 107.17 455.39C109.16 454.54 111.18 453.78 113.24 453.08C113.53 452.98 113.82 452.88 114.11 452.78C114.35 452.7 114.59 452.61 114.84 452.53C115.74 452.24 116.67 452.04 117.58 451.79C118.85 451.43 120.11 451.06 121.4 450.75C122.51 450.49 123.64 450.3 124.77 450.08C126.06 449.83 127.34 449.57 128.63 449.37C128.88 449.33 129.12 449.27 129.37 449.23C130.64 449.05 131.92 448.95 133.2 448.83C133.95 448.76 134.7 448.65 135.45 448.59C137.76 448.42 140.07 448.32 142.38 448.32C143.6 448.32 144.83 448.34 146.05 448.39C146.69 448.42 147.33 448.5 147.98 448.54C149.04 448.6 150.1 448.68 151.16 448.78C152.45 448.9 153.74 449.06 155.02 449.24C156.07 449.38 157.12 449.53 158.16 449.72C159.45 449.94 160.72 450.21 161.99 450.49C163.02 450.71 164.04 450.93 165.05 451.19C166.33 451.52 167.58 451.89 168.84 452.28C169.82 452.58 170.81 452.86 171.78 453.2C173.05 453.64 174.3 454.13 175.54 454.63C176.46 455 177.39 455.34 178.3 455.74C179.58 456.3 180.83 456.94 182.08 457.57C182.91 457.99 183.75 458.37 184.57 458.82C185.93 459.56 187.23 460.39 188.54 461.21C189.2 461.62 189.88 461.99 190.52 462.43C192.45 463.73 194.32 465.1 196.12 466.58C200.38 470.07 204.01 473.88 207.05 477.91C217.9 463.54 220.96 446.35 216.21 430.39V430.37Z"
          fill="black"/>
    <path d="M335.87 550.87C334.76 551.78 333.61 552.63 332.43 553.42C332.04 553.68 331.61 553.9 331.21 554.16C330.42 554.66 329.63 555.17 328.81 555.61C328.8 555.61 328.78 555.62 328.76 555.63C327.44 556.35 326.08 557 324.69 557.59C324.28 557.77 323.85 557.9 323.43 558.07C322.44 558.46 321.45 558.85 320.44 559.17C320.34 559.2 320.24 559.25 320.14 559.28C319.6 559.45 319.04 559.57 318.49 559.73C317.73 559.94 316.98 560.17 316.21 560.35C315.54 560.51 314.86 560.62 314.19 560.76C313.42 560.91 312.65 561.07 311.88 561.18C311.73 561.2 311.59 561.24 311.44 561.26C310.68 561.37 309.91 561.43 309.14 561.5C308.69 561.54 308.24 561.61 307.79 561.64C306.41 561.74 305.02 561.8 303.63 561.8C302.9 561.8 302.16 561.79 301.43 561.76C301.04 561.74 300.66 561.7 300.27 561.67C299.63 561.63 299 561.58 298.36 561.52C297.58 561.45 296.81 561.35 296.04 561.25C295.41 561.16 294.78 561.07 294.15 560.96C293.38 560.83 292.62 560.67 291.85 560.5C291.23 560.37 290.62 560.23 290.01 560.08C289.24 559.88 288.49 559.66 287.73 559.43C287.14 559.25 286.55 559.08 285.97 558.88C285.21 558.62 284.46 558.32 283.71 558.02C283.16 557.8 282.6 557.59 282.05 557.35C281.28 557.01 280.54 556.63 279.79 556.25C279.29 556 278.78 555.77 278.3 555.5C277.48 555.05 276.7 554.56 275.91 554.06C275.52 553.81 275.11 553.59 274.73 553.33C273.57 552.55 272.45 551.73 271.37 550.84L196.13 489.19V554.59L271.37 616.24C272.45 617.12 273.58 617.95 274.73 618.73C275.11 618.99 275.52 619.21 275.91 619.45C276.7 619.95 277.49 620.45 278.31 620.89C278.79 621.16 279.3 621.39 279.79 621.63C280.54 622.01 281.29 622.39 282.07 622.73C282.61 622.97 283.17 623.17 283.72 623.39C284.47 623.69 285.22 623.99 285.98 624.25C286.56 624.45 287.15 624.62 287.74 624.8C288.5 625.03 289.26 625.26 290.02 625.45C290.63 625.6 291.24 625.74 291.85 625.87C292.62 626.04 293.38 626.2 294.16 626.33C294.78 626.44 295.41 626.53 296.04 626.61C296.81 626.72 297.59 626.81 298.37 626.89C299 626.95 299.64 627 300.28 627.03C301.4 627.1 302.52 627.16 303.64 627.16C305.03 627.16 306.41 627.1 307.8 627C308.25 626.97 308.7 626.9 309.15 626.86C310.07 626.77 310.98 626.67 311.89 626.54C312.67 626.42 313.43 626.26 314.2 626.12C314.88 625.99 315.55 625.87 316.22 625.72C316.99 625.54 317.74 625.31 318.5 625.1C319.15 624.92 319.81 624.75 320.45 624.54C321.46 624.21 322.45 623.83 323.44 623.44C323.86 623.27 324.29 623.14 324.7 622.96C326.09 622.37 327.45 621.72 328.77 621C329.61 620.55 330.41 620.03 331.22 619.52C331.62 619.27 332.04 619.05 332.44 618.78C333.63 617.99 334.78 617.14 335.88 616.23L411.14 554.58V489.18L335.88 550.83L335.87 550.87Z"
          fill="black"/>
    <path d="M388.86 380.81C388.86 380.03 388.89 379.25 388.93 378.48C389.01 376.83 389.17 375.19 389.4 373.55C389.44 373.29 389.47 373.04 389.51 372.78C389.77 371.15 390.1 369.53 390.52 367.93C390.59 367.67 390.66 367.41 390.73 367.16C391.17 365.55 391.69 363.95 392.28 362.37C392.37 362.13 392.47 361.89 392.56 361.66C392.75 361.18 392.92 360.7 393.12 360.23C393.93 358.33 394.86 356.45 395.9 354.61C396.01 354.42 396.13 354.24 396.24 354.05C396.47 353.65 396.72 353.25 396.96 352.85C397.32 352.27 397.68 351.69 398.06 351.12C398.32 350.72 398.59 350.32 398.87 349.93C399.27 349.36 399.68 348.8 400.09 348.25C400.38 347.87 400.67 347.48 400.97 347.1C401.42 346.53 401.89 345.97 402.36 345.41C402.64 345.08 402.92 344.74 403.21 344.42C404.26 343.23 405.37 342.07 406.54 340.93C406.79 340.69 407.04 340.45 407.29 340.22C408.52 339.06 409.78 337.91 411.13 336.8C412.97 335.29 414.89 333.87 416.87 332.55C417.54 332.1 418.26 331.72 418.95 331.29C420.29 330.45 421.62 329.6 423.01 328.85C423.09 328.81 423.16 328.77 423.24 328.73C425.18 327.69 427.17 326.73 429.2 325.84C429.37 325.77 429.53 325.69 429.69 325.62C431.68 324.77 433.71 324.01 435.76 323.31C436.05 323.21 436.34 323.11 436.63 323.01C437.77 322.64 438.94 322.34 440.09 322.02C441.36 321.66 442.62 321.28 443.91 320.98C445.02 320.72 446.15 320.53 447.27 320.31C448.56 320.06 449.84 319.79 451.14 319.6C452.65 319.37 454.17 319.21 455.7 319.06C456.45 318.98 457.2 318.88 457.96 318.82C460.26 318.65 462.57 318.55 464.89 318.55C466.76 318.55 468.62 318.66 470.49 318.77C471.55 318.83 472.61 318.91 473.67 319.01C474.96 319.13 476.25 319.29 477.54 319.47C478.59 319.61 479.63 319.76 480.67 319.94C481.96 320.16 483.23 320.43 484.51 320.71C485.53 320.93 486.55 321.15 487.57 321.41C488.85 321.74 490.11 322.12 491.37 322.5C492.35 322.8 493.33 323.08 494.3 323.42C495.57 323.86 496.82 324.36 498.07 324.85C498.99 325.22 499.92 325.56 500.82 325.96C502.11 326.53 503.35 327.16 504.61 327.79C505.44 328.21 506.28 328.59 507.09 329.03C508.45 329.78 509.76 330.6 511.07 331.43C511.72 331.84 512.4 332.21 513.05 332.64C514.98 333.94 516.85 335.31 518.65 336.79L593.91 275.14C594.93 274.3 595.88 273.43 596.78 272.53C597.07 272.25 597.33 271.95 597.6 271.67C598.15 271.09 598.68 270.5 599.18 269.91C599.75 269.24 600.27 268.55 600.78 267.85C601.1 267.41 601.43 266.98 601.73 266.53C602.24 265.75 602.7 264.96 603.14 264.16C603.36 263.77 603.61 263.38 603.81 262.99C604.04 262.54 604.22 262.07 604.43 261.61C604.72 260.96 605.02 260.32 605.26 259.66C605.44 259.17 605.58 258.68 605.74 258.19C605.94 257.55 606.15 256.9 606.32 256.26C606.45 255.75 606.54 255.24 606.64 254.73C606.77 254.09 606.89 253.45 606.98 252.8C607.05 252.28 607.09 251.75 607.13 251.23C607.2 250.4 607.28 249.56 607.28 248.73C607.28 239.17 602.83 229.61 593.93 222.31L518.67 160.66C503.82 172.82 484.37 178.9 464.92 178.9C445.47 178.9 426.01 172.82 411.17 160.66C406.9 157.17 403.27 153.35 400.23 149.33C392.69 139.34 388.9 127.99 388.9 116.63C388.9 115.85 388.93 115.07 388.97 114.3C389.03 113.09 389.11 111.87 389.25 110.66C389.48 108.68 389.83 106.7 390.29 104.74C390.37 104.41 390.47 104.08 390.56 103.74C390.63 103.48 390.7 103.22 390.77 102.96C391.21 101.35 391.72 99.75 392.32 98.17C392.41 97.93 392.51 97.69 392.6 97.45C392.79 96.97 392.96 96.5 393.16 96.02C393.97 94.12 394.9 92.24 395.94 90.4C396.05 90.21 396.17 90.03 396.28 89.84C396.51 89.44 396.76 89.04 397 88.64C397.36 88.06 397.72 87.49 398.1 86.92C398.37 86.52 398.64 86.12 398.92 85.72C399.31 85.16 399.72 84.6 400.14 84.04C400.43 83.65 400.72 83.27 401.02 82.89C401.16 82.71 401.28 82.53 401.42 82.36C402.81 80.63 404.32 78.95 405.94 77.32C406.14 77.12 406.36 76.92 406.57 76.72C406.82 76.48 407.07 76.24 407.32 76C408.54 74.84 409.81 73.69 411.16 72.59L335.9 10.95C327 3.65 315.33 0 303.65 0C291.97 0 280.3 3.65 271.39 10.95L196.15 72.59C198 74.11 199.74 75.69 201.37 77.32C204.62 80.58 207.4 84.05 209.72 87.67C210.3 88.57 210.85 89.49 211.37 90.41C212.41 92.25 213.34 94.13 214.15 96.03C214.96 97.93 215.66 99.86 216.24 101.81C221 117.77 217.93 134.97 207.09 149.33C204.05 153.36 200.42 157.17 196.16 160.66C181.31 172.82 161.86 178.9 142.4 178.9C122.94 178.9 103.49 172.82 88.65 160.66L13.39 222.31C4.48003 229.61 0.0300293 239.17 0.0300293 248.73C0.0300293 258.29 4.48003 267.85 13.39 275.15L88.65 336.8C92.36 333.76 96.36 331.1 100.57 328.82C100.62 328.79 100.68 328.77 100.74 328.74C102.68 327.69 104.68 326.74 106.71 325.85C106.87 325.78 107.04 325.7 107.2 325.63C109.19 324.78 111.21 324.02 113.27 323.32C113.56 323.22 113.85 323.12 114.14 323.02C115.28 322.65 116.45 322.35 117.61 322.03C118.88 321.67 120.14 321.3 121.43 320.99C122.54 320.73 123.67 320.54 124.8 320.32C126.09 320.07 127.37 319.81 128.66 319.61C130.17 319.38 131.7 319.22 133.22 319.07C133.97 319 134.72 318.89 135.47 318.83C137.77 318.66 140.09 318.56 142.4 318.56C144.27 318.56 146.13 318.67 148 318.78C149.06 318.84 150.12 318.92 151.18 319.02C152.47 319.14 153.77 319.3 155.05 319.48C156.1 319.62 157.14 319.77 158.19 319.95C159.48 320.17 160.75 320.44 162.02 320.72C163.04 320.94 164.07 321.16 165.08 321.42C166.36 321.75 167.62 322.13 168.88 322.51C169.86 322.81 170.84 323.09 171.81 323.43C173.08 323.87 174.33 324.37 175.58 324.86C176.5 325.23 177.43 325.57 178.33 325.97C179.61 326.53 180.86 327.17 182.11 327.8C182.94 328.22 183.78 328.6 184.59 329.05C185.94 329.79 187.25 330.62 188.55 331.44C189.21 331.86 189.9 332.23 190.54 332.66C192.47 333.96 194.34 335.33 196.14 336.81C197.99 338.33 199.73 339.91 201.36 341.54C204.61 344.8 207.39 348.27 209.71 351.88C210.29 352.78 210.84 353.7 211.36 354.62C212.4 356.46 213.33 358.34 214.14 360.24C214.95 362.14 215.65 364.07 216.23 366.01C220.99 381.97 217.92 399.17 207.07 413.53C204.03 417.55 200.4 421.36 196.14 424.86L271.38 486.51C272.46 487.4 273.59 488.22 274.74 489C275.12 489.26 275.53 489.48 275.92 489.73C276.71 490.23 277.5 490.72 278.31 491.17C278.8 491.44 279.31 491.67 279.8 491.92C280.55 492.3 281.29 492.68 282.06 493.02C282.6 493.26 283.16 493.47 283.72 493.69C284.47 493.99 285.21 494.29 285.98 494.55C286.56 494.75 287.15 494.92 287.74 495.1C288.5 495.33 289.25 495.56 290.02 495.75C290.63 495.91 291.24 496.04 291.86 496.17C292.62 496.34 293.39 496.5 294.16 496.63C294.79 496.74 295.42 496.83 296.05 496.92C296.82 497.03 297.59 497.12 298.37 497.19C299.01 497.25 299.64 497.3 300.28 497.34C301.4 497.41 302.52 497.47 303.64 497.47C305.03 497.47 306.41 497.41 307.8 497.31C308.25 497.28 308.7 497.21 309.15 497.17C310.07 497.08 310.98 496.98 311.89 496.85C312.67 496.73 313.43 496.57 314.2 496.43C314.88 496.3 315.55 496.18 316.22 496.02C316.99 495.84 317.74 495.61 318.5 495.4C319.15 495.22 319.81 495.05 320.45 494.84C321.46 494.51 322.45 494.13 323.44 493.74C323.86 493.57 324.29 493.44 324.7 493.26C326.09 492.67 327.45 492.02 328.77 491.3C329.61 490.85 330.41 490.33 331.22 489.82C331.62 489.57 332.04 489.35 332.44 489.08C333.63 488.29 334.78 487.44 335.88 486.53L411.14 424.88C406.88 421.39 403.24 417.58 400.2 413.55C392.66 403.56 388.87 392.21 388.87 380.85L388.86 380.81Z"
          fill="white"/>
</svg>
