<svg width="100" height="100" viewBox="0 0 100 100" fill="none" xmlns="http://www.w3.org/2000/svg">
    <g clip-path="url(#clip0_148_632)">
        <path d="M49.6711 2.64666C48.8337 2.69013 48.0131 2.90411 47.2577 3.27605L14.3249 19.4927C13.4725 19.9122 12.7236 20.5226 12.1337 21.2786C11.5438 22.0346 11.1281 22.9167 10.9175 23.8594L2.79274 60.2861C2.60513 61.1253 2.58413 61.9945 2.73099 62.8423C2.87786 63.69 3.1896 64.499 3.64776 65.2214C3.75885 65.398 3.87833 65.5689 4.00576 65.7336L26.8005 94.9417C27.3906 95.6975 28.1396 96.3077 28.992 96.7271C29.8444 97.1464 30.7782 97.364 31.7242 97.3638L68.2792 97.3551C69.2249 97.3558 70.1585 97.1389 71.0109 96.7203C71.8633 96.3018 72.6125 95.6924 73.2029 94.9374L95.9893 65.7249C96.5796 64.9687 96.9956 64.0863 97.2064 63.1432C97.4171 62.2001 97.4171 61.2205 97.2065 60.2774L89.0691 23.8507C88.8585 22.908 88.4429 22.0259 87.853 21.2699C87.2631 20.5139 86.5141 19.9035 85.6617 19.484L52.7247 3.27605C51.7745 2.80818 50.7245 2.59176 49.6711 2.64666Z"
              fill="#326CE5"/>
        <path d="M49.6534 0.00897171C48.7703 0.0566405 47.9055 0.283895 47.1094 0.677431L12.3402 17.7926C11.4404 18.2355 10.6498 18.8799 10.0271 19.6779C9.4044 20.476 8.96558 21.4072 8.74327 22.4023L0.167864 60.8561C-0.0307917 61.7425 -0.0533772 62.6606 0.101447 63.5561C0.256272 64.4515 0.585354 65.3061 1.0692 66.0692C1.18691 66.2548 1.31341 66.4344 1.44825 66.6074L25.5108 97.4434C26.1337 98.2411 26.9243 98.8852 27.8241 99.3278C28.7239 99.7704 29.7097 100 30.7083 100L69.2976 99.9913C70.2958 99.992 71.2814 99.7629 72.1812 99.3211C73.0809 98.8792 73.8718 98.236 74.4951 97.439L98.5492 66.5987C99.1718 65.8009 99.6106 64.8699 99.833 63.875C100.055 62.8801 100.056 61.8468 99.8339 60.8517L91.2458 22.3937C91.0229 21.3993 90.5839 20.4689 89.9612 19.6717C89.3385 18.8744 88.5482 18.2307 87.6489 17.7882L52.8797 0.673091C51.8757 0.178835 50.7663 -0.0495361 49.6534 0.00897171ZM49.6702 2.64808C50.7236 2.59319 51.7736 2.80961 52.7238 3.27748L85.6608 19.4854C86.5132 19.9049 87.2622 20.5154 87.8521 21.2713C88.442 22.0273 88.8577 22.9094 89.0683 23.8521L97.2057 60.2788C97.4163 61.2219 97.4162 62.2015 97.2055 63.1446C96.9948 64.0877 96.5788 64.9701 95.9884 65.7263L73.2021 94.9388C72.6116 95.6938 71.8624 96.3032 71.01 96.7218C70.1577 97.1403 69.224 97.3573 68.2784 97.3566L31.7234 97.3653C30.7774 97.3655 29.8435 97.1478 28.9911 96.7285C28.1387 96.3092 27.3897 95.699 26.7997 94.9432L4.00489 65.735C3.87746 65.5704 3.75798 65.3994 3.64689 65.2228C3.18873 64.5004 2.87699 63.6914 2.73013 62.8437C2.58327 61.996 2.60426 61.1268 2.79188 60.2875L10.9166 23.8608C11.1272 22.9181 11.5429 22.036 12.1328 21.2801C12.7227 20.5241 13.4717 19.9137 14.324 19.4942L47.2568 3.27752C48.0123 2.90558 48.8328 2.6916 49.6702 2.64812L49.6702 2.64808Z"
              fill="white"/>
        <path d="M33.7727 88.1818C32.9545 88.1818 32.25 87.9886 31.6591 87.6023C31.0682 87.2159 30.6136 86.6837 30.2955 86.0057C29.9773 85.3277 29.8182 84.553 29.8182 83.6818C29.8182 82.7955 29.9811 82.0133 30.3068 81.3352C30.6364 80.6534 31.0947 80.1212 31.6818 79.7386C32.2727 79.3523 32.9621 79.1591 33.75 79.1591C34.3636 79.1591 34.9167 79.2727 35.4091 79.5C35.9015 79.7273 36.3049 80.0455 36.6193 80.4545C36.9337 80.8636 37.1288 81.3409 37.2045 81.8864H35.8636C35.7614 81.4886 35.5341 81.1364 35.1818 80.8295C34.8333 80.5189 34.3636 80.3636 33.7727 80.3636C33.25 80.3636 32.7917 80.5 32.3977 80.7727C32.0076 81.0417 31.7027 81.4223 31.483 81.9148C31.267 82.4034 31.1591 82.9773 31.1591 83.6364C31.1591 84.3106 31.2652 84.8977 31.4773 85.3977C31.6932 85.8977 31.9962 86.286 32.3864 86.5625C32.7803 86.839 33.2424 86.9773 33.7727 86.9773C34.1212 86.9773 34.4375 86.9167 34.7216 86.7955C35.0057 86.6742 35.2462 86.5 35.4432 86.2727C35.6402 86.0455 35.7803 85.7727 35.8636 85.4545H37.2045C37.1288 85.9697 36.9413 86.4337 36.642 86.8466C36.3466 87.2557 35.9545 87.5814 35.4659 87.8239C34.9811 88.0625 34.4167 88.1818 33.7727 88.1818ZM40.142 88.0909C39.8617 88.0909 39.6212 87.9905 39.4205 87.7898C39.2197 87.589 39.1193 87.3485 39.1193 87.0682C39.1193 86.7879 39.2197 86.5473 39.4205 86.3466C39.6212 86.1458 39.8617 86.0455 40.142 86.0455C40.4223 86.0455 40.6629 86.1458 40.8636 86.3466C41.0644 86.5473 41.1648 86.7879 41.1648 87.0682C41.1648 87.2538 41.1174 87.4242 41.0227 87.5795C40.9318 87.7348 40.8087 87.8598 40.6534 87.9545C40.5019 88.0455 40.3314 88.0909 40.142 88.0909ZM43.571 88V79.2727H44.8665V80.5909H44.9574C45.1165 80.1591 45.4044 79.8087 45.821 79.5398C46.2377 79.2708 46.7074 79.1364 47.2301 79.1364C47.3286 79.1364 47.4517 79.1383 47.5994 79.142C47.7472 79.1458 47.8589 79.1515 47.9347 79.1591V80.5227C47.8892 80.5114 47.785 80.4943 47.6222 80.4716C47.4631 80.4451 47.2945 80.4318 47.1165 80.4318C46.6922 80.4318 46.3134 80.5208 45.9801 80.6989C45.6506 80.8731 45.3892 81.1155 45.196 81.4261C45.0066 81.733 44.9119 82.0833 44.9119 82.4773V88H43.571ZM52.804 88.1818C52.0161 88.1818 51.3248 87.9943 50.7301 87.6193C50.1392 87.2443 49.6771 86.7197 49.3438 86.0455C49.0142 85.3712 48.8494 84.5833 48.8494 83.6818C48.8494 82.7727 49.0142 81.9792 49.3438 81.3011C49.6771 80.6231 50.1392 80.0966 50.7301 79.7216C51.3248 79.3466 52.0161 79.1591 52.804 79.1591C53.5919 79.1591 54.2813 79.3466 54.8722 79.7216C55.4669 80.0966 55.929 80.6231 56.2585 81.3011C56.5919 81.9792 56.7585 82.7727 56.7585 83.6818C56.7585 84.5833 56.5919 85.3712 56.2585 86.0455C55.929 86.7197 55.4669 87.2443 54.8722 87.6193C54.2813 87.9943 53.5919 88.1818 52.804 88.1818ZM52.804 86.9773C53.4025 86.9773 53.8949 86.8239 54.2812 86.517C54.6676 86.2102 54.9536 85.8068 55.1392 85.3068C55.3248 84.8068 55.4176 84.2652 55.4176 83.6818C55.4176 83.0985 55.3248 82.5549 55.1392 82.0511C54.9536 81.5473 54.6676 81.1402 54.2812 80.8295C53.8949 80.5189 53.4025 80.3636 52.804 80.3636C52.2055 80.3636 51.7131 80.5189 51.3267 80.8295C50.9403 81.1402 50.6544 81.5473 50.4688 82.0511C50.2831 82.5549 50.1903 83.0985 50.1903 83.6818C50.1903 84.2652 50.2831 84.8068 50.4688 85.3068C50.6544 85.8068 50.9403 86.2102 51.3267 86.517C51.7131 86.8239 52.2055 86.9773 52.804 86.9773ZM60.1463 76.3636V88H58.8054V76.3636H60.1463ZM66.2614 88.1818C65.4205 88.1818 64.6951 87.9962 64.0852 87.625C63.4792 87.25 63.0114 86.7273 62.6818 86.0568C62.3561 85.3826 62.1932 84.5985 62.1932 83.7045C62.1932 82.8106 62.3561 82.0227 62.6818 81.3409C63.0114 80.6553 63.4697 80.1212 64.0568 79.7386C64.6477 79.3523 65.3371 79.1591 66.125 79.1591C66.5795 79.1591 67.0284 79.2348 67.4716 79.3864C67.9148 79.5379 68.3182 79.7841 68.6818 80.125C69.0455 80.4621 69.3352 80.9091 69.5511 81.4659C69.767 82.0227 69.875 82.7083 69.875 83.5227V84.0909H63.1477V82.9318H68.5114C68.5114 82.4394 68.4129 82 68.2159 81.6136C68.0227 81.2273 67.7462 80.9223 67.3864 80.6989C67.0303 80.4754 66.6098 80.3636 66.125 80.3636C65.5909 80.3636 65.1288 80.4962 64.7386 80.7614C64.3523 81.0227 64.0549 81.3636 63.8466 81.7841C63.6383 82.2045 63.5341 82.6553 63.5341 83.1364V83.9091C63.5341 84.5682 63.6477 85.1269 63.875 85.5852C64.1061 86.0398 64.4261 86.3864 64.8352 86.625C65.2443 86.8598 65.7197 86.9773 66.2614 86.9773C66.6136 86.9773 66.9318 86.928 67.2159 86.8295C67.5038 86.7273 67.7519 86.5758 67.9602 86.375C68.1686 86.1705 68.3295 85.9167 68.4432 85.6136L69.7386 85.9773C69.6023 86.4167 69.3731 86.803 69.0511 87.1364C68.7292 87.4659 68.3314 87.7235 67.858 87.9091C67.3845 88.0909 66.8523 88.1818 66.2614 88.1818Z"
              fill="white"/>
        <path d="M49.5454 53.0128C51.0959 53.0128 52.3528 51.7277 52.3528 50.1426C52.3528 48.5574 51.0959 47.2723 49.5454 47.2723C47.9949 47.2723 46.7379 48.5574 46.7379 50.1426C46.7379 51.7277 47.9949 53.0128 49.5454 53.0128Z"
              fill="white"/>
        <path d="M50.0035 26.8679L32.7704 34.7202V46.4371C32.7704 57.3001 40.1159 67.4537 50.0035 69.9216C59.8771 67.4537 67.2296 57.3001 67.2296 46.4371V34.7202L50.0035 26.8679ZM59.1257 58.4001H40.8743V42.6087H43.4937V40.8862C43.4937 37.1664 46.4431 34.1484 50.0878 34.1484C53.7324 34.1484 56.6819 37.1664 56.6819 40.8862V42.6087H59.1257V58.4001Z"
              fill="white"/>
        <path d="M49.8754 36.6556C47.6914 36.6636 45.9218 38.4722 45.9218 40.7012V42.3947H53.8361V40.6723C53.815 38.4504 52.0524 36.6629 49.8754 36.6556Z"
              fill="white"/>
    </g>
    <defs>
        <clipPath id="clip0_148_632">
            <rect width="100" height="100" fill="white"/>
        </clipPath>
    </defs>
</svg>
