<svg width="100" height="100" viewBox="0 0 100 100" fill="none" xmlns="http://www.w3.org/2000/svg">
    <g clip-path="url(#clip0_148_604)">
        <path d="M49.6711 2.64666C48.8337 2.69013 48.0131 2.90411 47.2577 3.27605L14.3249 19.4927C13.4725 19.9122 12.7236 20.5226 12.1337 21.2786C11.5438 22.0346 11.1281 22.9167 10.9175 23.8594L2.79274 60.2861C2.60513 61.1253 2.58413 61.9945 2.73099 62.8423C2.87786 63.69 3.1896 64.499 3.64776 65.2214C3.75885 65.398 3.87833 65.5689 4.00576 65.7336L26.8005 94.9417C27.3906 95.6975 28.1396 96.3077 28.992 96.7271C29.8444 97.1464 30.7782 97.364 31.7242 97.3638L68.2792 97.3551C69.2249 97.3558 70.1585 97.1389 71.0109 96.7203C71.8633 96.3018 72.6125 95.6924 73.2029 94.9374L95.9893 65.7249C96.5796 64.9687 96.9956 64.0863 97.2064 63.1432C97.4171 62.2001 97.4171 61.2205 97.2065 60.2774L89.0691 23.8507C88.8585 22.908 88.4429 22.0259 87.853 21.2699C87.2631 20.5139 86.5141 19.9035 85.6617 19.484L52.7247 3.27605C51.7745 2.80818 50.7245 2.59176 49.6711 2.64666Z"
              fill="#326CE5"/>
        <path d="M49.6534 0.00897171C48.7703 0.0566405 47.9055 0.283895 47.1094 0.677431L12.3402 17.7926C11.4404 18.2355 10.6498 18.8799 10.0271 19.6779C9.4044 20.476 8.96558 21.4072 8.74327 22.4023L0.167864 60.8561C-0.0307917 61.7425 -0.0533772 62.6606 0.101447 63.5561C0.256272 64.4515 0.585354 65.3061 1.0692 66.0692C1.18691 66.2548 1.31341 66.4344 1.44825 66.6074L25.5108 97.4434C26.1337 98.2411 26.9243 98.8852 27.8241 99.3278C28.7239 99.7704 29.7097 100 30.7083 100L69.2976 99.9913C70.2958 99.992 71.2814 99.7629 72.1812 99.3211C73.0809 98.8792 73.8718 98.236 74.4951 97.439L98.5492 66.5987C99.1718 65.8009 99.6106 64.8699 99.833 63.875C100.055 62.8801 100.056 61.8468 99.8339 60.8517L91.2458 22.3937C91.0229 21.3993 90.5839 20.4689 89.9612 19.6717C89.3385 18.8744 88.5482 18.2307 87.6489 17.7882L52.8797 0.673091C51.8757 0.178835 50.7663 -0.0495361 49.6534 0.00897171ZM49.6702 2.64808C50.7236 2.59319 51.7736 2.80961 52.7238 3.27748L85.6608 19.4854C86.5132 19.9049 87.2622 20.5154 87.8521 21.2713C88.442 22.0273 88.8577 22.9094 89.0683 23.8521L97.2057 60.2788C97.4163 61.2219 97.4162 62.2015 97.2055 63.1446C96.9948 64.0877 96.5788 64.9701 95.9884 65.7263L73.2021 94.9388C72.6116 95.6938 71.8624 96.3032 71.01 96.7218C70.1577 97.1403 69.224 97.3573 68.2784 97.3566L31.7234 97.3653C30.7774 97.3655 29.8435 97.1478 28.9911 96.7285C28.1387 96.3092 27.3897 95.699 26.7997 94.9432L4.00489 65.735C3.87746 65.5704 3.75798 65.3994 3.64689 65.2228C3.18873 64.5004 2.87699 63.6914 2.73013 62.8437C2.58327 61.996 2.60426 61.1268 2.79188 60.2875L10.9166 23.8608C11.1272 22.9181 11.5429 22.036 12.1328 21.2801C12.7227 20.5241 13.4717 19.9137 14.324 19.4942L47.2568 3.27752C48.0123 2.90558 48.8328 2.6916 49.6702 2.64812L49.6702 2.64808Z"
              fill="white"/>
        <path d="M43.7727 86.1818C42.9545 86.1818 42.25 85.9886 41.6591 85.6023C41.0682 85.2159 40.6136 84.6837 40.2955 84.0057C39.9773 83.3277 39.8182 82.553 39.8182 81.6818C39.8182 80.7955 39.9811 80.0133 40.3068 79.3352C40.6364 78.6534 41.0947 78.1212 41.6818 77.7386C42.2727 77.3523 42.9621 77.1591 43.75 77.1591C44.3636 77.1591 44.9167 77.2727 45.4091 77.5C45.9015 77.7273 46.3049 78.0455 46.6193 78.4545C46.9337 78.8636 47.1288 79.3409 47.2045 79.8864H45.8636C45.7614 79.4886 45.5341 79.1364 45.1818 78.8295C44.8333 78.5189 44.3636 78.3636 43.7727 78.3636C43.25 78.3636 42.7917 78.5 42.3977 78.7727C42.0076 79.0417 41.7027 79.4223 41.483 79.9148C41.267 80.4034 41.1591 80.9773 41.1591 81.6364C41.1591 82.3106 41.2652 82.8977 41.4773 83.3977C41.6932 83.8977 41.9962 84.286 42.3864 84.5625C42.7803 84.839 43.2424 84.9773 43.7727 84.9773C44.1212 84.9773 44.4375 84.9167 44.7216 84.7955C45.0057 84.6742 45.2462 84.5 45.4432 84.2727C45.6402 84.0455 45.7803 83.7727 45.8636 83.4545H47.2045C47.1288 83.9697 46.9413 84.4337 46.642 84.8466C46.3466 85.2557 45.9545 85.5814 45.4659 85.8239C44.9811 86.0625 44.4167 86.1818 43.7727 86.1818ZM49.1648 86V77.2727H50.4602V78.6364H50.5739C50.7557 78.1705 51.0492 77.8087 51.4545 77.5511C51.8598 77.2898 52.3466 77.1591 52.9148 77.1591C53.4905 77.1591 53.9697 77.2898 54.3523 77.5511C54.7386 77.8087 55.0398 78.1705 55.2557 78.6364H55.3466C55.5701 78.1856 55.9053 77.8277 56.3523 77.5625C56.7992 77.2936 57.3352 77.1591 57.9602 77.1591C58.7405 77.1591 59.3788 77.4034 59.875 77.892C60.3712 78.3769 60.6193 79.1326 60.6193 80.1591V86H59.2784V80.1591C59.2784 79.5152 59.1023 79.0549 58.75 78.7784C58.3977 78.5019 57.983 78.3636 57.5057 78.3636C56.892 78.3636 56.4167 78.5492 56.0795 78.9205C55.7424 79.2879 55.5739 79.7538 55.5739 80.3182V86H54.2102V80.0227C54.2102 79.5265 54.0492 79.1269 53.7273 78.8239C53.4053 78.517 52.9905 78.3636 52.483 78.3636C52.1345 78.3636 51.8087 78.4564 51.5057 78.642C51.2064 78.8277 50.964 79.0852 50.7784 79.4148C50.5966 79.7405 50.5057 80.1174 50.5057 80.5455V86H49.1648Z"
              fill="white"/>
        <path d="M40.8206 29.2407H73.1183" stroke="white" stroke-width="0.79375" stroke-miterlimit="10"
              stroke-linejoin="round"/>
        <path d="M26.8818 29.2407H34.9679" stroke="white" stroke-width="0.79375" stroke-miterlimit="10"
              stroke-linejoin="round"/>
        <path d="M38.618 41.3357H46.704" stroke="white" stroke-width="0.79375" stroke-miterlimit="10"
              stroke-linejoin="round"/>
        <path d="M52.5568 53.4307H73.1182" stroke="white" stroke-width="0.79375" stroke-miterlimit="10"
              stroke-linejoin="round"/>
        <path d="M38.618 53.4307H46.704" stroke="white" stroke-width="0.79375" stroke-miterlimit="10"
              stroke-linejoin="round"/>
        <path d="M40.8206 65.5256H73.1183" stroke="white" stroke-width="0.79375" stroke-miterlimit="10"
              stroke-linejoin="round"/>
        <path d="M26.8818 65.5256H34.9679" stroke="white" stroke-width="0.79375" stroke-miterlimit="10"
              stroke-linejoin="round"/>
    </g>
    <defs>
        <clipPath id="clip0_148_604">
            <rect width="100" height="100" fill="white"/>
        </clipPath>
    </defs>
</svg>
