<svg width="100" height="100" viewBox="0 0 100 100" fill="none" xmlns="http://www.w3.org/2000/svg">
    <g clip-path="url(#clip0_148_618)">
        <path d="M49.6711 2.64666C48.8337 2.69013 48.0131 2.90411 47.2577 3.27605L14.3249 19.4927C13.4725 19.9122 12.7236 20.5226 12.1337 21.2786C11.5438 22.0346 11.1281 22.9167 10.9175 23.8594L2.79274 60.2861C2.60513 61.1253 2.58413 61.9945 2.73099 62.8423C2.87786 63.69 3.1896 64.499 3.64776 65.2214C3.75885 65.398 3.87833 65.5689 4.00576 65.7336L26.8005 94.9417C27.3906 95.6975 28.1396 96.3077 28.992 96.7271C29.8444 97.1464 30.7782 97.364 31.7242 97.3638L68.2792 97.3551C69.2249 97.3558 70.1585 97.1389 71.0109 96.7203C71.8633 96.3018 72.6125 95.6924 73.2029 94.9374L95.9893 65.7249C96.5796 64.9687 96.9956 64.0863 97.2064 63.1432C97.4171 62.2001 97.4171 61.2205 97.2065 60.2774L89.0691 23.8507C88.8585 22.908 88.4429 22.0259 87.853 21.2699C87.2631 20.5139 86.5141 19.9035 85.6617 19.484L52.7247 3.27605C51.7745 2.80818 50.7245 2.59176 49.6711 2.64666Z"
              fill="#326CE5"/>
        <path d="M49.6534 0.00897171C48.7703 0.0566405 47.9055 0.283895 47.1094 0.677431L12.3402 17.7926C11.4404 18.2355 10.6498 18.8799 10.0271 19.6779C9.4044 20.476 8.96558 21.4072 8.74327 22.4023L0.167864 60.8561C-0.0307917 61.7425 -0.0533772 62.6606 0.101447 63.5561C0.256272 64.4515 0.585354 65.3061 1.0692 66.0692C1.18691 66.2548 1.31341 66.4344 1.44825 66.6074L25.5108 97.4434C26.1337 98.2411 26.9243 98.8852 27.8241 99.3278C28.7239 99.7704 29.7097 100 30.7083 100L69.2976 99.9913C70.2958 99.992 71.2814 99.7629 72.1812 99.3211C73.0809 98.8792 73.8718 98.236 74.4951 97.439L98.5492 66.5987C99.1718 65.8009 99.6106 64.8699 99.833 63.875C100.055 62.8801 100.056 61.8468 99.8339 60.8517L91.2458 22.3937C91.0229 21.3993 90.5839 20.4689 89.9612 19.6717C89.3385 18.8744 88.5482 18.2307 87.6489 17.7882L52.8797 0.673091C51.8757 0.178835 50.7663 -0.0495361 49.6534 0.00897171ZM49.6702 2.64808C50.7236 2.59319 51.7736 2.80961 52.7238 3.27748L85.6608 19.4854C86.5132 19.9049 87.2622 20.5154 87.8521 21.2713C88.442 22.0273 88.8577 22.9094 89.0683 23.8521L97.2057 60.2788C97.4163 61.2219 97.4162 62.2015 97.2055 63.1446C96.9948 64.0877 96.5788 64.9701 95.9884 65.7263L73.2021 94.9388C72.6116 95.6938 71.8624 96.3032 71.01 96.7218C70.1577 97.1403 69.224 97.3573 68.2784 97.3566L31.7234 97.3653C30.7774 97.3655 29.8435 97.1478 28.9911 96.7285C28.1387 96.3092 27.3897 95.699 26.7997 94.9432L4.00489 65.735C3.87746 65.5704 3.75798 65.3994 3.64689 65.2228C3.18873 64.5004 2.87699 63.6914 2.73013 62.8437C2.58327 61.996 2.60426 61.1268 2.79188 60.2875L10.9166 23.8608C11.1272 22.9181 11.5429 22.036 12.1328 21.2801C12.7227 20.5241 13.4717 19.9137 14.324 19.4942L47.2568 3.27752C48.0123 2.90558 48.8328 2.6916 49.6702 2.64812L49.6702 2.64808Z"
              fill="white"/>
        <path d="M42.7727 86.1818C41.9545 86.1818 41.25 85.9886 40.6591 85.6023C40.0682 85.2159 39.6136 84.6837 39.2955 84.0057C38.9773 83.3277 38.8182 82.553 38.8182 81.6818C38.8182 80.7955 38.9811 80.0133 39.3068 79.3352C39.6364 78.6534 40.0947 78.1212 40.6818 77.7386C41.2727 77.3523 41.9621 77.1591 42.75 77.1591C43.3636 77.1591 43.9167 77.2727 44.4091 77.5C44.9015 77.7273 45.3049 78.0455 45.6193 78.4545C45.9337 78.8636 46.1288 79.3409 46.2045 79.8864H44.8636C44.7614 79.4886 44.5341 79.1364 44.1818 78.8295C43.8333 78.5189 43.3636 78.3636 42.7727 78.3636C42.25 78.3636 41.7917 78.5 41.3977 78.7727C41.0076 79.0417 40.7027 79.4223 40.483 79.9148C40.267 80.4034 40.1591 80.9773 40.1591 81.6364C40.1591 82.3106 40.2652 82.8977 40.4773 83.3977C40.6932 83.8977 40.9962 84.286 41.3864 84.5625C41.7803 84.839 42.2424 84.9773 42.7727 84.9773C43.1212 84.9773 43.4375 84.9167 43.7216 84.7955C44.0057 84.6742 44.2462 84.5 44.4432 84.2727C44.6402 84.0455 44.7803 83.7727 44.8636 83.4545H46.2045C46.1288 83.9697 45.9413 84.4337 45.642 84.8466C45.3466 85.2557 44.9545 85.5814 44.4659 85.8239C43.9811 86.0625 43.4167 86.1818 42.7727 86.1818ZM48.1648 86V77.2727H49.4602V78.5909H49.5511C49.7102 78.1591 49.9981 77.8087 50.4148 77.5398C50.8314 77.2708 51.3011 77.1364 51.8239 77.1364C51.9223 77.1364 52.0455 77.1383 52.1932 77.142C52.3409 77.1458 52.4527 77.1515 52.5284 77.1591V78.5227C52.483 78.5114 52.3788 78.4943 52.2159 78.4716C52.0568 78.4451 51.8883 78.4318 51.7102 78.4318C51.286 78.4318 50.9072 78.5208 50.5739 78.6989C50.2443 78.8731 49.983 79.1155 49.7898 79.4261C49.6004 79.733 49.5057 80.0833 49.5057 80.4773V86H48.1648ZM54.2997 86V74.3636H55.6406V78.6591H55.7543C55.8527 78.5076 55.9891 78.3144 56.1634 78.0795C56.3414 77.8409 56.5952 77.6288 56.9247 77.4432C57.258 77.2538 57.7088 77.1591 58.277 77.1591C59.0118 77.1591 59.6596 77.3428 60.2202 77.7102C60.7808 78.0777 61.2183 78.5985 61.5327 79.2727C61.8471 79.947 62.0043 80.7424 62.0043 81.6591C62.0043 82.5833 61.8471 83.3845 61.5327 84.0625C61.2183 84.7367 60.7827 85.2595 60.2259 85.6307C59.669 85.9981 59.027 86.1818 58.2997 86.1818C57.7391 86.1818 57.2902 86.089 56.9531 85.9034C56.616 85.714 56.3565 85.5 56.1747 85.2614C55.9929 85.0189 55.8527 84.8182 55.7543 84.6591H55.5952V86H54.2997ZM55.6179 81.6364C55.6179 82.2955 55.7145 82.8769 55.9077 83.3807C56.1009 83.8807 56.383 84.2727 56.7543 84.5568C57.1255 84.8371 57.58 84.9773 58.1179 84.9773C58.6785 84.9773 59.1463 84.8295 59.5213 84.5341C59.9001 84.2348 60.1842 83.8333 60.3736 83.3295C60.5668 82.822 60.6634 82.2576 60.6634 81.6364C60.6634 81.0227 60.5687 80.4697 60.3793 79.9773C60.1937 79.4811 59.9115 79.089 59.5327 78.8011C59.1577 78.5095 58.6861 78.3636 58.1179 78.3636C57.5724 78.3636 57.1141 78.5019 56.7429 78.7784C56.3717 79.0511 56.0914 79.4337 55.902 79.9261C55.7126 80.4148 55.6179 80.9848 55.6179 81.6364Z"
              fill="white"/>
        <path d="M32.6554 48.1932C32.6554 44.4197 35.6319 41.3523 39.2935 41.3523H47.8588V37.1594H39.2935C33.3835 37.1594 28.587 42.1026 28.587 48.1932C28.587 54.2839 33.3835 59.227 39.2935 59.227H47.8588V55.0342H39.2935C35.6319 55.0342 32.6554 51.9668 32.6554 48.1932ZM41.4349 50.4H58.5652V45.9865H41.4349V50.4ZM60.7066 37.1594H52.1414V41.3523H60.7066C64.3682 41.3523 67.3446 44.4197 67.3446 48.1932C67.3446 51.9668 64.3682 55.0342 60.7066 55.0342H52.1414V59.227H60.7066C66.6166 59.227 71.4131 54.2839 71.4131 48.1932C71.4131 42.1026 66.6166 37.1594 60.7066 37.1594Z"
              fill="white"/>
    </g>
    <defs>
        <clipPath id="clip0_148_618">
            <rect width="100" height="100" fill="white"/>
        </clipPath>
    </defs>
</svg>
