<svg width="100" height="100" viewBox="0 0 100 100" fill="none" xmlns="http://www.w3.org/2000/svg">
    <g clip-path="url(#clip0_148_625)">
        <path d="M49.6711 2.64666C48.8337 2.69013 48.0131 2.90411 47.2577 3.27605L14.3249 19.4927C13.4725 19.9122 12.7236 20.5226 12.1337 21.2786C11.5438 22.0346 11.1281 22.9167 10.9175 23.8594L2.79274 60.2861C2.60513 61.1253 2.58413 61.9945 2.73099 62.8423C2.87786 63.69 3.1896 64.499 3.64776 65.2214C3.75885 65.398 3.87833 65.5689 4.00576 65.7336L26.8005 94.9417C27.3906 95.6975 28.1396 96.3077 28.992 96.7271C29.8444 97.1464 30.7782 97.364 31.7242 97.3638L68.2792 97.3551C69.2249 97.3558 70.1585 97.1389 71.0109 96.7203C71.8633 96.3018 72.6125 95.6924 73.2029 94.9374L95.9893 65.7249C96.5796 64.9687 96.9956 64.0863 97.2064 63.1432C97.4171 62.2001 97.4171 61.2205 97.2065 60.2774L89.0691 23.8507C88.8585 22.908 88.4429 22.0259 87.853 21.2699C87.2631 20.5139 86.5141 19.9035 85.6617 19.484L52.7247 3.27605C51.7745 2.80818 50.7245 2.59176 49.6711 2.64666Z"
              fill="#326CE5"/>
        <path d="M49.6534 0.00897171C48.7703 0.0566405 47.9055 0.283895 47.1094 0.677431L12.3402 17.7926C11.4404 18.2355 10.6498 18.8799 10.0271 19.6779C9.4044 20.476 8.96558 21.4072 8.74327 22.4023L0.167864 60.8561C-0.0307917 61.7425 -0.0533772 62.6606 0.101447 63.5561C0.256272 64.4515 0.585354 65.3061 1.0692 66.0692C1.18691 66.2548 1.31341 66.4344 1.44825 66.6074L25.5108 97.4434C26.1337 98.2411 26.9243 98.8852 27.8241 99.3278C28.7239 99.7704 29.7097 100 30.7083 100L69.2976 99.9913C70.2958 99.992 71.2814 99.7629 72.1812 99.3211C73.0809 98.8792 73.8718 98.236 74.4951 97.439L98.5492 66.5987C99.1718 65.8009 99.6106 64.8699 99.833 63.875C100.055 62.8801 100.056 61.8468 99.8339 60.8517L91.2458 22.3937C91.0229 21.3993 90.5839 20.4689 89.9612 19.6717C89.3385 18.8744 88.5482 18.2307 87.6489 17.7882L52.8797 0.673091C51.8757 0.178835 50.7663 -0.0495361 49.6534 0.00897171ZM49.6702 2.64808C50.7236 2.59319 51.7736 2.80961 52.7238 3.27748L85.6608 19.4854C86.5132 19.9049 87.2622 20.5154 87.8521 21.2713C88.442 22.0273 88.8577 22.9094 89.0683 23.8521L97.2057 60.2788C97.4163 61.2219 97.4162 62.2015 97.2055 63.1446C96.9948 64.0877 96.5788 64.9701 95.9884 65.7263L73.2021 94.9388C72.6116 95.6938 71.8624 96.3032 71.01 96.7218C70.1577 97.1403 69.224 97.3573 68.2784 97.3566L31.7234 97.3653C30.7774 97.3655 29.8435 97.1478 28.9911 96.7285C28.1387 96.3092 27.3897 95.699 26.7997 94.9432L4.00489 65.735C3.87746 65.5704 3.75798 65.3994 3.64689 65.2228C3.18873 64.5004 2.87699 63.6914 2.73013 62.8437C2.58327 61.996 2.60426 61.1268 2.79188 60.2875L10.9166 23.8608C11.1272 22.9181 11.5429 22.036 12.1328 21.2801C12.7227 20.5241 13.4717 19.9137 14.324 19.4942L47.2568 3.27752C48.0123 2.90558 48.8328 2.6916 49.6702 2.64812L49.6702 2.64808Z"
              fill="white"/>
        <path d="M42.7727 87.1818C41.9545 87.1818 41.25 86.9886 40.6591 86.6023C40.0682 86.2159 39.6136 85.6837 39.2955 85.0057C38.9773 84.3277 38.8182 83.553 38.8182 82.6818C38.8182 81.7955 38.9811 81.0133 39.3068 80.3352C39.6364 79.6534 40.0947 79.1212 40.6818 78.7386C41.2727 78.3523 41.9621 78.1591 42.75 78.1591C43.3636 78.1591 43.9167 78.2727 44.4091 78.5C44.9015 78.7273 45.3049 79.0455 45.6193 79.4545C45.9337 79.8636 46.1288 80.3409 46.2045 80.8864H44.8636C44.7614 80.4886 44.5341 80.1364 44.1818 79.8295C43.8333 79.5189 43.3636 79.3636 42.7727 79.3636C42.25 79.3636 41.7917 79.5 41.3977 79.7727C41.0076 80.0417 40.7027 80.4223 40.483 80.9148C40.267 81.4034 40.1591 81.9773 40.1591 82.6364C40.1591 83.3106 40.2652 83.8977 40.4773 84.3977C40.6932 84.8977 40.9962 85.286 41.3864 85.5625C41.7803 85.839 42.2424 85.9773 42.7727 85.9773C43.1212 85.9773 43.4375 85.9167 43.7216 85.7955C44.0057 85.6742 44.2462 85.5 44.4432 85.2727C44.6402 85.0455 44.7803 84.7727 44.8636 84.4545H46.2045C46.1288 84.9697 45.9413 85.4337 45.642 85.8466C45.3466 86.2557 44.9545 86.5814 44.4659 86.8239C43.9811 87.0625 43.4167 87.1818 42.7727 87.1818ZM48.1648 87V78.2727H49.4602V79.5909H49.5511C49.7102 79.1591 49.9981 78.8087 50.4148 78.5398C50.8314 78.2708 51.3011 78.1364 51.8239 78.1364C51.9223 78.1364 52.0455 78.1383 52.1932 78.142C52.3409 78.1458 52.4527 78.1515 52.5284 78.1591V79.5227C52.483 79.5114 52.3788 79.4943 52.2159 79.4716C52.0568 79.4451 51.8883 79.4318 51.7102 79.4318C51.286 79.4318 50.9072 79.5208 50.5739 79.6989C50.2443 79.8731 49.983 80.1155 49.7898 80.4261C49.6004 80.733 49.5057 81.0833 49.5057 81.4773V87H48.1648ZM57.1477 87.1818C56.4205 87.1818 55.7784 86.9981 55.2216 86.6307C54.6648 86.2595 54.2292 85.7367 53.9148 85.0625C53.6004 84.3845 53.4432 83.5833 53.4432 82.6591C53.4432 81.7424 53.6004 80.947 53.9148 80.2727C54.2292 79.5985 54.6667 79.0777 55.2273 78.7102C55.7879 78.3428 56.4356 78.1591 57.1705 78.1591C57.7386 78.1591 58.1875 78.2538 58.517 78.4432C58.8504 78.6288 59.1042 78.8409 59.2784 79.0795C59.4564 79.3144 59.5947 79.5076 59.6932 79.6591H59.8068V75.3636H61.1477V87H59.8523V85.6591H59.6932C59.5947 85.8182 59.4545 86.0189 59.2727 86.2614C59.0909 86.5 58.8314 86.714 58.4943 86.9034C58.1572 87.089 57.7083 87.1818 57.1477 87.1818ZM57.3295 85.9773C57.8674 85.9773 58.322 85.8371 58.6932 85.5568C59.0644 85.2727 59.3466 84.8807 59.5398 84.3807C59.733 83.8769 59.8295 83.2955 59.8295 82.6364C59.8295 81.9848 59.7348 81.4148 59.5455 80.9261C59.3561 80.4337 59.0758 80.0511 58.7045 79.7784C58.3333 79.5019 57.875 79.3636 57.3295 79.3636C56.7614 79.3636 56.2879 79.5095 55.9091 79.8011C55.5341 80.089 55.2519 80.4811 55.0625 80.9773C54.8769 81.4697 54.7841 82.0227 54.7841 82.6364C54.7841 83.2576 54.8788 83.822 55.0682 84.3295C55.2614 84.8333 55.5455 85.2348 55.9205 85.5341C56.2992 85.8295 56.7689 85.9773 57.3295 85.9773Z"
              fill="white"/>
        <path d="M75.3753 40.3911H71.5341V29.8346C71.5341 26.9316 69.2293 24.5564 66.4124 24.5564H56.1691V20.5978C56.1691 16.9558 53.301 14 49.767 14C46.2331 14 43.365 16.9558 43.365 20.5978V24.5564H33.1216C30.3047 24.5564 28.0256 26.9316 28.0256 29.8346V39.8633H31.8412C35.6569 39.8633 38.7555 43.0566 38.7555 46.9888C38.7555 50.9211 35.6569 54.1144 31.8412 54.1144H28V64.143C28 67.0461 30.3047 69.4213 33.1216 69.4213H42.8528V65.4626C42.8528 61.5303 45.9514 58.337 49.767 58.337C53.5827 58.337 56.6813 61.5303 56.6813 65.4626V69.4213H66.4124C69.2293 69.4213 71.5341 67.0461 71.5341 64.143V53.5866H75.3753C78.9092 53.5866 81.7774 50.6308 81.7774 46.9888C81.7774 43.3469 78.9092 40.3911 75.3753 40.3911Z"
              fill="white"/>
    </g>
    <defs>
        <clipPath id="clip0_148_625">
            <rect width="100" height="100" fill="white"/>
        </clipPath>
    </defs>
</svg>
