<svg width="100" height="100" viewBox="0 0 100 100" fill="none" xmlns="http://www.w3.org/2000/svg">
    <g clip-path="url(#clip0_148_642)">
        <path d="M49.671 2.64666C48.8336 2.69013 48.0131 2.90411 47.2576 3.27605L14.3248 19.4927C13.4725 19.9122 12.7235 20.5226 12.1336 21.2786C11.5437 22.0346 11.128 22.9167 10.9174 23.8594L2.79268 60.2861C2.60507 61.1253 2.58407 61.9945 2.73093 62.8423C2.8778 63.69 3.18954 64.499 3.6477 65.2214C3.75879 65.398 3.87827 65.5689 4.0057 65.7336L26.8005 94.9417C27.3905 95.6975 28.1395 96.3077 28.9919 96.7271C29.8443 97.1464 30.7782 97.364 31.7242 97.3638L68.2792 97.3551C69.2248 97.3558 70.1585 97.1389 71.0108 96.7203C71.8632 96.3018 72.6124 95.6924 73.2029 94.9374L95.9892 65.7249C96.5796 64.9687 96.9956 64.0863 97.2063 63.1432C97.417 62.2001 97.4171 61.2205 97.2065 60.2774L89.0691 23.8507C88.8585 22.908 88.4428 22.0259 87.8529 21.2699C87.263 20.5139 86.514 19.9035 85.6617 19.484L52.7247 3.27605C51.7744 2.80818 50.7244 2.59176 49.671 2.64666Z"
              fill="#326CE5"/>
        <path d="M49.6534 0.00897171C48.7703 0.0566405 47.9055 0.283895 47.1094 0.677431L12.3402 17.7926C11.4404 18.2355 10.6498 18.8799 10.0271 19.6779C9.4044 20.476 8.96558 21.4072 8.74327 22.4023L0.167864 60.8561C-0.0307917 61.7425 -0.0533772 62.6606 0.101447 63.5561C0.256272 64.4515 0.585354 65.3061 1.0692 66.0692C1.18691 66.2548 1.31341 66.4344 1.44825 66.6074L25.5108 97.4434C26.1337 98.2411 26.9243 98.8852 27.8241 99.3278C28.7239 99.7704 29.7097 100 30.7083 100L69.2976 99.9913C70.2958 99.992 71.2814 99.7629 72.1812 99.3211C73.0809 98.8792 73.8718 98.236 74.4951 97.439L98.5492 66.5987C99.1718 65.8009 99.6106 64.8699 99.833 63.875C100.055 62.8801 100.056 61.8468 99.8339 60.8517L91.2458 22.3937C91.0229 21.3993 90.5839 20.4689 89.9612 19.6717C89.3385 18.8744 88.5482 18.2307 87.6489 17.7882L52.8797 0.673091C51.8757 0.178835 50.7663 -0.0495361 49.6534 0.00897171ZM49.6702 2.64808C50.7236 2.59319 51.7736 2.80961 52.7238 3.27748L85.6608 19.4854C86.5132 19.9049 87.2622 20.5154 87.8521 21.2713C88.442 22.0273 88.8577 22.9094 89.0683 23.8521L97.2057 60.2788C97.4163 61.2219 97.4162 62.2015 97.2055 63.1446C96.9948 64.0877 96.5788 64.9701 95.9884 65.7263L73.2021 94.9388C72.6116 95.6938 71.8624 96.3032 71.01 96.7218C70.1577 97.1403 69.224 97.3573 68.2784 97.3566L31.7234 97.3653C30.7774 97.3655 29.8435 97.1478 28.9911 96.7285C28.1387 96.3092 27.3897 95.699 26.7997 94.9432L4.00489 65.735C3.87746 65.5704 3.75798 65.3994 3.64689 65.2228C3.18873 64.5004 2.87699 63.6914 2.73013 62.8437C2.58327 61.996 2.60426 61.1268 2.79188 60.2875L10.9166 23.8608C11.1272 22.9181 11.5429 22.036 12.1328 21.2801C12.7227 20.5241 13.4717 19.9137 14.324 19.4942L47.2568 3.27752C48.0123 2.90558 48.8328 2.6916 49.6702 2.64812L49.6702 2.64808Z"
              fill="white"/>
        <path d="M26.7727 90.1818C25.9545 90.1818 25.25 89.9886 24.6591 89.6023C24.0682 89.2159 23.6136 88.6837 23.2955 88.0057C22.9773 87.3277 22.8182 86.553 22.8182 85.6818C22.8182 84.7955 22.9811 84.0133 23.3068 83.3352C23.6364 82.6534 24.0947 82.1212 24.6818 81.7386C25.2727 81.3523 25.9621 81.1591 26.75 81.1591C27.3636 81.1591 27.9167 81.2727 28.4091 81.5C28.9015 81.7273 29.3049 82.0455 29.6193 82.4545C29.9337 82.8636 30.1288 83.3409 30.2045 83.8864H28.8636C28.7614 83.4886 28.5341 83.1364 28.1818 82.8295C27.8333 82.5189 27.3636 82.3636 26.7727 82.3636C26.25 82.3636 25.7917 82.5 25.3977 82.7727C25.0076 83.0417 24.7027 83.4223 24.483 83.9148C24.267 84.4034 24.1591 84.9773 24.1591 85.6364C24.1591 86.3106 24.2652 86.8977 24.4773 87.3977C24.6932 87.8977 24.9962 88.286 25.3864 88.5625C25.7803 88.839 26.2424 88.9773 26.7727 88.9773C27.1212 88.9773 27.4375 88.9167 27.7216 88.7955C28.0057 88.6742 28.2462 88.5 28.4432 88.2727C28.6402 88.0455 28.7803 87.7727 28.8636 87.4545H30.2045C30.1288 87.9697 29.9413 88.4337 29.642 88.8466C29.3466 89.2557 28.9545 89.5814 28.4659 89.8239C27.9811 90.0625 27.4167 90.1818 26.7727 90.1818ZM32.1648 90V81.2727H33.4602V82.5909H33.5511C33.7102 82.1591 33.9981 81.8087 34.4148 81.5398C34.8314 81.2708 35.3011 81.1364 35.8239 81.1364C35.9223 81.1364 36.0455 81.1383 36.1932 81.142C36.3409 81.1458 36.4527 81.1515 36.5284 81.1591V82.5227C36.483 82.5114 36.3788 82.4943 36.2159 82.4716C36.0568 82.4451 35.8883 82.4318 35.7102 82.4318C35.286 82.4318 34.9072 82.5208 34.5739 82.6989C34.2443 82.8731 33.983 83.1155 33.7898 83.4261C33.6004 83.733 33.5057 84.0833 33.5057 84.4773V90H32.1648ZM41.3977 90.1818C40.6098 90.1818 39.9186 89.9943 39.3239 89.6193C38.733 89.2443 38.2708 88.7197 37.9375 88.0455C37.608 87.3712 37.4432 86.5833 37.4432 85.6818C37.4432 84.7727 37.608 83.9792 37.9375 83.3011C38.2708 82.6231 38.733 82.0966 39.3239 81.7216C39.9186 81.3466 40.6098 81.1591 41.3977 81.1591C42.1856 81.1591 42.875 81.3466 43.4659 81.7216C44.0606 82.0966 44.5227 82.6231 44.8523 83.3011C45.1856 83.9792 45.3523 84.7727 45.3523 85.6818C45.3523 86.5833 45.1856 87.3712 44.8523 88.0455C44.5227 88.7197 44.0606 89.2443 43.4659 89.6193C42.875 89.9943 42.1856 90.1818 41.3977 90.1818ZM41.3977 88.9773C41.9962 88.9773 42.4886 88.8239 42.875 88.517C43.2614 88.2102 43.5473 87.8068 43.733 87.3068C43.9186 86.8068 44.0114 86.2652 44.0114 85.6818C44.0114 85.0985 43.9186 84.5549 43.733 84.0511C43.5473 83.5473 43.2614 83.1402 42.875 82.8295C42.4886 82.5189 41.9962 82.3636 41.3977 82.3636C40.7992 82.3636 40.3068 82.5189 39.9205 82.8295C39.5341 83.1402 39.2481 83.5473 39.0625 84.0511C38.8769 84.5549 38.7841 85.0985 38.7841 85.6818C38.7841 86.2652 38.8769 86.8068 39.0625 87.3068C39.2481 87.8068 39.5341 88.2102 39.9205 88.517C40.3068 88.8239 40.7992 88.9773 41.3977 88.9773ZM48.7401 84.75V90H47.3991V81.2727H48.6946V82.6364H48.8082C49.0128 82.1932 49.3234 81.8371 49.7401 81.5682C50.1567 81.2955 50.6946 81.1591 51.3537 81.1591C51.9446 81.1591 52.4616 81.2803 52.9048 81.5227C53.348 81.7614 53.6927 82.125 53.9389 82.6136C54.1851 83.0985 54.3082 83.7121 54.3082 84.4545V90H52.9673V84.5455C52.9673 83.8598 52.7893 83.3258 52.4332 82.9432C52.0772 82.5568 51.5885 82.3636 50.9673 82.3636C50.5393 82.3636 50.1567 82.4564 49.8196 82.642C49.4863 82.8277 49.223 83.0985 49.0298 83.4545C48.8366 83.8106 48.7401 84.2424 48.7401 84.75ZM56.7585 81.2727H58.0994V90.6364C58.0994 91.1742 58.0066 91.6402 57.821 92.0341C57.6392 92.428 57.3627 92.733 56.9915 92.9489C56.6241 93.1648 56.16 93.2727 55.5994 93.2727C55.554 93.2727 55.5085 93.2727 55.4631 93.2727C55.4176 93.2727 55.3722 93.2727 55.3267 93.2727V92.0227C55.3722 92.0227 55.4138 92.0227 55.4517 92.0227C55.4896 92.0227 55.5312 92.0227 55.5767 92.0227C55.9858 92.0227 56.285 91.9015 56.4744 91.6591C56.6638 91.4205 56.7585 91.0795 56.7585 90.6364V81.2727ZM57.4176 79.8182C57.1563 79.8182 56.9309 79.7292 56.7415 79.5511C56.5559 79.3731 56.4631 79.1591 56.4631 78.9091C56.4631 78.6591 56.5559 78.4451 56.7415 78.267C56.9309 78.089 57.1563 78 57.4176 78C57.679 78 57.9025 78.089 58.0881 78.267C58.2775 78.4451 58.3722 78.6591 58.3722 78.9091C58.3722 79.1591 58.2775 79.3731 58.0881 79.5511C57.9025 79.7292 57.679 79.8182 57.4176 79.8182ZM64.1009 90.1818C63.313 90.1818 62.6217 89.9943 62.027 89.6193C61.4361 89.2443 60.974 88.7197 60.6406 88.0455C60.3111 87.3712 60.1463 86.5833 60.1463 85.6818C60.1463 84.7727 60.3111 83.9792 60.6406 83.3011C60.974 82.6231 61.4361 82.0966 62.027 81.7216C62.6217 81.3466 63.313 81.1591 64.1009 81.1591C64.8887 81.1591 65.5781 81.3466 66.169 81.7216C66.7637 82.0966 67.2259 82.6231 67.5554 83.3011C67.8887 83.9792 68.0554 84.7727 68.0554 85.6818C68.0554 86.5833 67.8887 87.3712 67.5554 88.0455C67.2259 88.7197 66.7637 89.2443 66.169 89.6193C65.5781 89.9943 64.8887 90.1818 64.1009 90.1818ZM64.1009 88.9773C64.6993 88.9773 65.1918 88.8239 65.5781 88.517C65.9645 88.2102 66.2505 87.8068 66.4361 87.3068C66.6217 86.8068 66.7145 86.2652 66.7145 85.6818C66.7145 85.0985 66.6217 84.5549 66.4361 84.0511C66.2505 83.5473 65.9645 83.1402 65.5781 82.8295C65.1918 82.5189 64.6993 82.3636 64.1009 82.3636C63.5024 82.3636 63.0099 82.5189 62.6236 82.8295C62.2372 83.1402 61.9512 83.5473 61.7656 84.0511C61.58 84.5549 61.4872 85.0985 61.4872 85.6818C61.4872 86.2652 61.58 86.8068 61.7656 87.3068C61.9512 87.8068 62.2372 88.2102 62.6236 88.517C63.0099 88.8239 63.5024 88.9773 64.1009 88.9773ZM70.2841 90V78.3636H71.625V82.6591H71.7386C71.8371 82.5076 71.9735 82.3144 72.1477 82.0795C72.3258 81.8409 72.5795 81.6288 72.9091 81.4432C73.2424 81.2538 73.6932 81.1591 74.2614 81.1591C74.9962 81.1591 75.6439 81.3428 76.2045 81.7102C76.7652 82.0777 77.2027 82.5985 77.517 83.2727C77.8314 83.947 77.9886 84.7424 77.9886 85.6591C77.9886 86.5833 77.8314 87.3845 77.517 88.0625C77.2027 88.7367 76.767 89.2595 76.2102 89.6307C75.6534 89.9981 75.0114 90.1818 74.2841 90.1818C73.7235 90.1818 73.2746 90.089 72.9375 89.9034C72.6004 89.714 72.3409 89.5 72.1591 89.2614C71.9773 89.0189 71.8371 88.8182 71.7386 88.6591H71.5795V90H70.2841ZM71.6023 85.6364C71.6023 86.2955 71.6989 86.8769 71.892 87.3807C72.0852 87.8807 72.3674 88.2727 72.7386 88.5568C73.1098 88.8371 73.5644 88.9773 74.1023 88.9773C74.6629 88.9773 75.1307 88.8295 75.5057 88.5341C75.8845 88.2348 76.1686 87.8333 76.358 87.3295C76.5511 86.822 76.6477 86.2576 76.6477 85.6364C76.6477 85.0227 76.553 84.4697 76.3636 83.9773C76.178 83.4811 75.8958 83.089 75.517 82.8011C75.142 82.5095 74.6705 82.3636 74.1023 82.3636C73.5568 82.3636 73.0985 82.5019 72.7273 82.7784C72.3561 83.0511 72.0758 83.4337 71.8864 83.9261C71.697 84.4148 71.6023 84.9848 71.6023 85.6364Z"
              fill="white"/>
        <path d="M56.0122 15.9188V28.1614H68.2269V15.9188H56.0122ZM56.0122 33.5416V36.6628C57.4466 36.313 58.9334 36.1076 60.4677 36.1076C63.2235 36.1076 65.8448 36.7152 68.2269 37.7908V33.5416H56.0122ZM21.1703 33.7306V45.9732H33.385V33.7306H21.1703ZM38.5912 33.7306V45.9732H43.7373C45.4577 42.9999 47.8935 40.5183 50.806 38.7888V33.7306H38.5912ZM21.0585 51.5423V63.7849H33.2733V51.5423H21.0585ZM38.5339 51.5423V63.7849H42.4508C41.5118 61.4378 40.9838 58.8729 40.9838 56.1872C40.9838 54.5868 41.1895 53.037 41.5366 51.5423H38.5339Z"
              fill="white"/>
        <path d="M61.1996 38.658C51.4415 38.658 43.4578 46.8859 43.4578 56.9422C43.4578 66.9985 51.4415 75.2264 61.1996 75.2264C70.9576 75.2264 78.9414 66.9985 78.9414 56.9422C78.9414 46.8859 70.9576 38.658 61.1996 38.658ZM68.6512 64.6215L59.4254 58.7706V47.8001H62.0867V57.3079L70.0706 62.2446L68.6512 64.6215Z"
              fill="white"/>
    </g>
    <defs>
        <clipPath id="clip0_148_642">
            <rect width="100" height="100" fill="white"/>
        </clipPath>
    </defs>
</svg>
