<svg width="100" height="100" viewBox="0 0 100 100" fill="none" xmlns="http://www.w3.org/2000/svg">
    <g clip-path="url(#clip0_148_660)">
        <path d="M49.6711 2.64666C48.8337 2.69013 48.0131 2.90411 47.2577 3.27605L14.3249 19.4927C13.4725 19.9122 12.7236 20.5226 12.1337 21.2786C11.5438 22.0346 11.1281 22.9167 10.9175 23.8594L2.79274 60.2861C2.60513 61.1253 2.58413 61.9945 2.73099 62.8423C2.87786 63.69 3.1896 64.499 3.64776 65.2214C3.75885 65.398 3.87833 65.5689 4.00576 65.7336L26.8005 94.9417C27.3906 95.6975 28.1396 96.3077 28.992 96.7271C29.8444 97.1464 30.7782 97.364 31.7242 97.3638L68.2792 97.3551C69.2249 97.3558 70.1585 97.1389 71.0109 96.7203C71.8633 96.3018 72.6125 95.6924 73.2029 94.9374L95.9893 65.7249C96.5796 64.9687 96.9956 64.0863 97.2064 63.1432C97.4171 62.2001 97.4171 61.2205 97.2065 60.2774L89.0691 23.8507C88.8585 22.908 88.4429 22.0259 87.853 21.2699C87.2631 20.5139 86.5141 19.9035 85.6617 19.484L52.7247 3.27605C51.7745 2.80818 50.7245 2.59176 49.6711 2.64666Z"
              fill="#326CE5"/>
        <path d="M49.6534 0.00897171C48.7703 0.0566405 47.9055 0.283895 47.1094 0.677431L12.3402 17.7926C11.4404 18.2355 10.6498 18.8799 10.0271 19.6779C9.4044 20.476 8.96558 21.4072 8.74327 22.4023L0.167864 60.8561C-0.0307917 61.7425 -0.0533772 62.6606 0.101447 63.5561C0.256272 64.4515 0.585354 65.3061 1.0692 66.0692C1.18691 66.2548 1.31341 66.4344 1.44825 66.6074L25.5108 97.4434C26.1337 98.2411 26.9243 98.8852 27.8241 99.3278C28.7239 99.7704 29.7097 100 30.7083 100L69.2976 99.9913C70.2958 99.992 71.2814 99.7629 72.1812 99.3211C73.0809 98.8792 73.8718 98.236 74.4951 97.439L98.5492 66.5987C99.1718 65.8009 99.6106 64.8699 99.833 63.875C100.055 62.8801 100.056 61.8468 99.8339 60.8517L91.2458 22.3937C91.0229 21.3993 90.5839 20.4689 89.9612 19.6717C89.3385 18.8744 88.5482 18.2307 87.6489 17.7882L52.8797 0.673091C51.8757 0.178835 50.7663 -0.0495361 49.6534 0.00897171ZM49.6702 2.64808C50.7236 2.59319 51.7736 2.80961 52.7238 3.27748L85.6608 19.4854C86.5132 19.9049 87.2622 20.5154 87.8521 21.2713C88.442 22.0273 88.8577 22.9094 89.0683 23.8521L97.2057 60.2788C97.4163 61.2219 97.4162 62.2015 97.2055 63.1446C96.9948 64.0877 96.5788 64.9701 95.9884 65.7263L73.2021 94.9388C72.6116 95.6938 71.8624 96.3032 71.01 96.7218C70.1577 97.1403 69.224 97.3573 68.2784 97.3566L31.7234 97.3653C30.7774 97.3655 29.8435 97.1478 28.9911 96.7285C28.1387 96.3092 27.3897 95.699 26.7997 94.9432L4.00489 65.735C3.87746 65.5704 3.75798 65.3994 3.64689 65.2228C3.18873 64.5004 2.87699 63.6914 2.73013 62.8437C2.58327 61.996 2.60426 61.1268 2.79188 60.2875L10.9166 23.8608C11.1272 22.9181 11.5429 22.036 12.1328 21.2801C12.7227 20.5241 13.4717 19.9137 14.324 19.4942L47.2568 3.27752C48.0123 2.90558 48.8328 2.6916 49.6702 2.64812L49.6702 2.64808Z"
              fill="white"/>
        <path d="M45.5227 91.1818C44.7955 91.1818 44.1534 90.9981 43.5966 90.6307C43.0398 90.2595 42.6042 89.7367 42.2898 89.0625C41.9754 88.3845 41.8182 87.5833 41.8182 86.6591C41.8182 85.7424 41.9754 84.947 42.2898 84.2727C42.6042 83.5985 43.0417 83.0777 43.6023 82.7102C44.1629 82.3428 44.8106 82.1591 45.5455 82.1591C46.1136 82.1591 46.5625 82.2538 46.892 82.4432C47.2254 82.6288 47.4792 82.8409 47.6534 83.0795C47.8314 83.3144 47.9697 83.5076 48.0682 83.6591H48.1818V79.3636H49.5227V91H48.2273V89.6591H48.0682C47.9697 89.8182 47.8295 90.0189 47.6477 90.2614C47.4659 90.5 47.2064 90.714 46.8693 90.9034C46.5322 91.089 46.0833 91.1818 45.5227 91.1818ZM45.7045 89.9773C46.2424 89.9773 46.697 89.8371 47.0682 89.5568C47.4394 89.2727 47.7216 88.8807 47.9148 88.3807C48.108 87.8769 48.2045 87.2955 48.2045 86.6364C48.2045 85.9848 48.1098 85.4148 47.9205 84.9261C47.7311 84.4337 47.4508 84.0511 47.0795 83.7784C46.7083 83.5019 46.25 83.3636 45.7045 83.3636C45.1364 83.3636 44.6629 83.5095 44.2841 83.8011C43.9091 84.089 43.6269 84.4811 43.4375 84.9773C43.2519 85.4697 43.1591 86.0227 43.1591 86.6364C43.1591 87.2576 43.2538 87.822 43.4432 88.3295C43.6364 88.8333 43.9205 89.2348 44.2955 89.5341C44.6742 89.8295 45.1439 89.9773 45.7045 89.9773ZM58.3466 84.2273L57.142 84.5682C57.0663 84.3674 56.9545 84.1723 56.8068 83.983C56.6629 83.7898 56.4659 83.6307 56.2159 83.5057C55.9659 83.3807 55.6458 83.3182 55.2557 83.3182C54.7216 83.3182 54.2765 83.4413 53.9205 83.6875C53.5682 83.9299 53.392 84.2386 53.392 84.6136C53.392 84.947 53.5133 85.2102 53.7557 85.4034C53.9981 85.5966 54.3769 85.7576 54.892 85.8864L56.1875 86.2045C56.9678 86.3939 57.5492 86.6837 57.9318 87.0739C58.3144 87.4602 58.5057 87.9583 58.5057 88.5682C58.5057 89.0682 58.3617 89.5152 58.0739 89.9091C57.7898 90.303 57.392 90.6136 56.8807 90.8409C56.3693 91.0682 55.7746 91.1818 55.0966 91.1818C54.2064 91.1818 53.4697 90.9886 52.8864 90.6023C52.303 90.2159 51.9337 89.6515 51.7784 88.9091L53.0511 88.5909C53.1723 89.0606 53.4015 89.4129 53.7386 89.6477C54.0795 89.8826 54.5246 90 55.0739 90C55.6989 90 56.1951 89.8674 56.5625 89.6023C56.9337 89.3333 57.1193 89.0114 57.1193 88.6364C57.1193 88.3333 57.0133 88.0795 56.8011 87.875C56.589 87.6667 56.2633 87.5114 55.8239 87.4091L54.3693 87.0682C53.5701 86.8788 52.983 86.5852 52.608 86.1875C52.2367 85.786 52.0511 85.2841 52.0511 84.6818C52.0511 84.1894 52.1894 83.7538 52.4659 83.375C52.7462 82.9962 53.1269 82.6989 53.608 82.483C54.0928 82.267 54.642 82.1591 55.2557 82.1591C56.1193 82.1591 56.7973 82.3485 57.2898 82.7273C57.786 83.1061 58.1383 83.6061 58.3466 84.2273Z"
              fill="white"/>
        <path fill-rule="evenodd" clip-rule="evenodd" d="M41.6198 23H77.7987V49.1899H41.6198V23Z" stroke="white"
              stroke-width="0.529146" stroke-miterlimit="10" stroke-linecap="square" stroke-linejoin="round"
              stroke-dasharray="1.59 1.59"/>
        <path d="M23 70.5646H62.2261" stroke="white" stroke-width="0.61833"/>
        <path fill-rule="evenodd" clip-rule="evenodd" d="M33.0879 31.0645H69.2668V57.2544H33.0879V31.0645Z"
              fill="#326CE5" stroke="white" stroke-width="0.529146" stroke-miterlimit="10" stroke-linecap="square"
              stroke-linejoin="round" stroke-dasharray="1.59 1.59"/>
        <path fill-rule="evenodd" clip-rule="evenodd" d="M24.556 39.1289H60.735V65.3188H24.556V39.1289Z" stroke="white"
              stroke-width="0.529167" stroke-miterlimit="10" stroke-linejoin="round"/>
        <path fill-rule="evenodd" clip-rule="evenodd" d="M24.3104 39.2277H60.4894V65.4176H24.3104V39.2277Z"
              fill="white"/>
    </g>
    <defs>
        <clipPath id="clip0_148_660">
            <rect width="100" height="100" fill="white"/>
        </clipPath>
    </defs>
</svg>
