<svg width="100" height="100" viewBox="0 0 100 100" fill="none" xmlns="http://www.w3.org/2000/svg">
    <g clip-path="url(#clip0_148_691)">
        <path d="M49.6711 2.64666C48.8337 2.69013 48.0131 2.90411 47.2577 3.27605L14.3249 19.4927C13.4725 19.9122 12.7236 20.5226 12.1337 21.2786C11.5438 22.0346 11.1281 22.9167 10.9175 23.8594L2.79274 60.2861C2.60513 61.1253 2.58413 61.9945 2.73099 62.8423C2.87786 63.69 3.1896 64.499 3.64776 65.2214C3.75885 65.398 3.87833 65.5689 4.00576 65.7336L26.8005 94.9417C27.3906 95.6975 28.1396 96.3077 28.992 96.7271C29.8444 97.1464 30.7782 97.364 31.7242 97.3638L68.2792 97.3551C69.2249 97.3558 70.1585 97.1389 71.0109 96.7203C71.8633 96.3018 72.6125 95.6924 73.2029 94.9374L95.9893 65.7249C96.5796 64.9687 96.9956 64.0863 97.2064 63.1432C97.4171 62.2001 97.4171 61.2205 97.2065 60.2774L89.0691 23.8507C88.8585 22.908 88.4429 22.0259 87.853 21.2699C87.2631 20.5139 86.5141 19.9035 85.6617 19.484L52.7247 3.27605C51.7745 2.80818 50.7245 2.59176 49.6711 2.64666Z"
              fill="#326CE5"/>
        <path d="M49.6534 0.00897171C48.7703 0.0566405 47.9055 0.283895 47.1094 0.677431L12.3402 17.7926C11.4404 18.2355 10.6498 18.8799 10.0271 19.6779C9.4044 20.476 8.96558 21.4072 8.74327 22.4023L0.167864 60.8561C-0.0307917 61.7425 -0.0533772 62.6606 0.101447 63.5561C0.256272 64.4515 0.585354 65.3061 1.0692 66.0692C1.18691 66.2548 1.31341 66.4344 1.44825 66.6074L25.5108 97.4434C26.1337 98.2411 26.9243 98.8852 27.8241 99.3278C28.7239 99.7704 29.7097 100 30.7083 100L69.2976 99.9913C70.2958 99.992 71.2814 99.7629 72.1812 99.3211C73.0809 98.8792 73.8718 98.236 74.4951 97.439L98.5492 66.5987C99.1718 65.8009 99.6106 64.8699 99.833 63.875C100.055 62.8801 100.056 61.8468 99.8339 60.8517L91.2458 22.3937C91.0229 21.3993 90.5839 20.4689 89.9612 19.6717C89.3385 18.8744 88.5482 18.2307 87.6489 17.7882L52.8797 0.673091C51.8757 0.178835 50.7663 -0.0495361 49.6534 0.00897171ZM49.6702 2.64808C50.7236 2.59319 51.7736 2.80961 52.7238 3.27748L85.6608 19.4854C86.5132 19.9049 87.2622 20.5154 87.8521 21.2713C88.442 22.0273 88.8577 22.9094 89.0683 23.8521L97.2057 60.2788C97.4163 61.2219 97.4162 62.2015 97.2055 63.1446C96.9948 64.0877 96.5788 64.9701 95.9884 65.7263L73.2021 94.9388C72.6116 95.6938 71.8624 96.3032 71.01 96.7218C70.1577 97.1403 69.224 97.3573 68.2784 97.3566L31.7234 97.3653C30.7774 97.3655 29.8435 97.1478 28.9911 96.7285C28.1387 96.3092 27.3897 95.699 26.7997 94.9432L4.00489 65.735C3.87746 65.5704 3.75798 65.3994 3.64689 65.2228C3.18873 64.5004 2.87699 63.6914 2.73013 62.8437C2.58327 61.996 2.60426 61.1268 2.79188 60.2875L10.9166 23.8608C11.1272 22.9181 11.5429 22.036 12.1328 21.2801C12.7227 20.5241 13.4717 19.9137 14.324 19.4942L47.2568 3.27752C48.0123 2.90558 48.8328 2.6916 49.6702 2.64812L49.6702 2.64808Z"
              fill="white"/>
        <path d="M32.75 91.4545C32.1023 91.4545 31.5455 91.3712 31.0795 91.2045C30.6136 91.0417 30.2254 90.8258 29.9148 90.5568C29.608 90.2917 29.3636 90.0076 29.1818 89.7045L30.25 88.9545C30.3712 89.1136 30.5246 89.2955 30.7102 89.5C30.8958 89.7083 31.1496 89.8883 31.4716 90.0398C31.7973 90.1951 32.2235 90.2727 32.75 90.2727C33.4545 90.2727 34.036 90.1023 34.4943 89.7614C34.9527 89.4205 35.1818 88.8864 35.1818 88.1591V86.3864H35.0682C34.9697 86.5455 34.8295 86.7424 34.6477 86.9773C34.4697 87.2083 34.2121 87.4148 33.875 87.5966C33.5417 87.7746 33.0909 87.8636 32.5227 87.8636C31.8182 87.8636 31.1856 87.697 30.625 87.3636C30.0682 87.0303 29.6269 86.5455 29.3011 85.9091C28.9792 85.2727 28.8182 84.5 28.8182 83.5909C28.8182 82.697 28.9754 81.9186 29.2898 81.2557C29.6042 80.589 30.0417 80.0739 30.6023 79.7102C31.1629 79.3428 31.8106 79.1591 32.5455 79.1591C33.1136 79.1591 33.5644 79.2538 33.8977 79.4432C34.2348 79.6288 34.4924 79.8409 34.6705 80.0795C34.8523 80.3144 34.9924 80.5076 35.0909 80.6591H35.2273V79.2727H36.5227V88.25C36.5227 89 36.3523 89.6098 36.0114 90.0795C35.6742 90.553 35.2197 90.8996 34.6477 91.1193C34.0795 91.3428 33.447 91.4545 32.75 91.4545ZM32.7045 86.6591C33.2424 86.6591 33.697 86.536 34.0682 86.2898C34.4394 86.0436 34.7216 85.6894 34.9148 85.2273C35.108 84.7652 35.2045 84.2121 35.2045 83.5682C35.2045 82.9394 35.1098 82.3845 34.9205 81.9034C34.7311 81.4223 34.4508 81.0455 34.0795 80.7727C33.7083 80.5 33.25 80.3636 32.7045 80.3636C32.1364 80.3636 31.6629 80.5076 31.2841 80.7955C30.9091 81.0833 30.6269 81.4697 30.4375 81.9545C30.2519 82.4394 30.1591 82.9773 30.1591 83.5682C30.1591 84.1742 30.2538 84.7102 30.4432 85.1761C30.6364 85.6383 30.9205 86.0019 31.2955 86.267C31.6742 86.5284 32.1439 86.6591 32.7045 86.6591ZM38.9773 88V79.2727H40.2727V80.5909H40.3636C40.5227 80.1591 40.8106 79.8087 41.2273 79.5398C41.6439 79.2708 42.1136 79.1364 42.6364 79.1364C42.7348 79.1364 42.858 79.1383 43.0057 79.142C43.1534 79.1458 43.2652 79.1515 43.3409 79.1591V80.5227C43.2955 80.5114 43.1913 80.4943 43.0284 80.4716C42.8693 80.4451 42.7008 80.4318 42.5227 80.4318C42.0985 80.4318 41.7197 80.5208 41.3864 80.6989C41.0568 80.8731 40.7955 81.1155 40.6023 81.4261C40.4129 81.733 40.3182 82.0833 40.3182 82.4773V88H38.9773ZM48.2102 88.1818C47.4223 88.1818 46.7311 87.9943 46.1364 87.6193C45.5455 87.2443 45.0833 86.7197 44.75 86.0455C44.4205 85.3712 44.2557 84.5833 44.2557 83.6818C44.2557 82.7727 44.4205 81.9792 44.75 81.3011C45.0833 80.6231 45.5455 80.0966 46.1364 79.7216C46.7311 79.3466 47.4223 79.1591 48.2102 79.1591C48.9981 79.1591 49.6875 79.3466 50.2784 79.7216C50.8731 80.0966 51.3352 80.6231 51.6648 81.3011C51.9981 81.9792 52.1648 82.7727 52.1648 83.6818C52.1648 84.5833 51.9981 85.3712 51.6648 86.0455C51.3352 86.7197 50.8731 87.2443 50.2784 87.6193C49.6875 87.9943 48.9981 88.1818 48.2102 88.1818ZM48.2102 86.9773C48.8087 86.9773 49.3011 86.8239 49.6875 86.517C50.0739 86.2102 50.3598 85.8068 50.5455 85.3068C50.7311 84.8068 50.8239 84.2652 50.8239 83.6818C50.8239 83.0985 50.7311 82.5549 50.5455 82.0511C50.3598 81.5473 50.0739 81.1402 49.6875 80.8295C49.3011 80.5189 48.8087 80.3636 48.2102 80.3636C47.6117 80.3636 47.1193 80.5189 46.733 80.8295C46.3466 81.1402 46.0606 81.5473 45.875 82.0511C45.6894 82.5549 45.5966 83.0985 45.5966 83.6818C45.5966 84.2652 45.6894 84.8068 45.875 85.3068C46.0606 85.8068 46.3466 86.2102 46.733 86.517C47.1193 86.8239 47.6117 86.9773 48.2102 86.9773ZM59.7116 84.4318V79.2727H61.0526V88H59.7116V86.5227H59.6207C59.4162 86.9659 59.098 87.3428 58.6662 87.6534C58.2344 87.9602 57.6889 88.1136 57.0298 88.1136C56.4844 88.1136 55.9995 87.9943 55.5753 87.7557C55.151 87.5133 54.8177 87.1496 54.5753 86.6648C54.3329 86.1761 54.2116 85.5606 54.2116 84.8182V79.2727H55.5526V84.7273C55.5526 85.3636 55.7306 85.8712 56.0866 86.25C56.4465 86.6288 56.9048 86.8182 57.4616 86.8182C57.795 86.8182 58.134 86.733 58.4787 86.5625C58.8272 86.392 59.1188 86.1307 59.3537 85.7784C59.5923 85.4261 59.7116 84.9773 59.7116 84.4318ZM63.5085 91.2727V79.2727H64.804V80.6591H64.9631C65.0616 80.5076 65.1979 80.3144 65.3722 80.0795C65.5502 79.8409 65.804 79.6288 66.1335 79.4432C66.4669 79.2538 66.9176 79.1591 67.4858 79.1591C68.2206 79.1591 68.8684 79.3428 69.429 79.7102C69.9896 80.0777 70.4271 80.5985 70.7415 81.2727C71.0559 81.947 71.2131 82.7424 71.2131 83.6591C71.2131 84.5833 71.0559 85.3845 70.7415 86.0625C70.4271 86.7367 69.9915 87.2595 69.4347 87.6307C68.8778 87.9981 68.2358 88.1818 67.5085 88.1818C66.9479 88.1818 66.4991 88.089 66.1619 87.9034C65.8248 87.714 65.5653 87.5 65.3835 87.2614C65.2017 87.0189 65.0616 86.8182 64.9631 86.6591H64.8494V91.2727H63.5085ZM64.8267 83.6364C64.8267 84.2955 64.9233 84.8769 65.1165 85.3807C65.3097 85.8807 65.5919 86.2727 65.9631 86.5568C66.3343 86.8371 66.7888 86.9773 67.3267 86.9773C67.8873 86.9773 68.3551 86.8295 68.7301 86.5341C69.1089 86.2348 69.393 85.8333 69.5824 85.3295C69.7756 84.822 69.8722 84.2576 69.8722 83.6364C69.8722 83.0227 69.7775 82.4697 69.5881 81.9773C69.4025 81.4811 69.1203 81.089 68.7415 80.8011C68.3665 80.5095 67.8949 80.3636 67.3267 80.3636C66.7813 80.3636 66.3229 80.5019 65.9517 80.7784C65.5805 81.0511 65.3002 81.4337 65.1108 81.9261C64.9214 82.4148 64.8267 82.9848 64.8267 83.6364Z"
              fill="white"/>
        <path d="M28.6867 21.4672C26.0547 21.4672 23.9362 23.6504 23.9362 26.3629V68.006C23.9362 70.7185 26.0547 72.9034 28.6867 72.9034H71.3134C73.9454 72.9034 76.0639 70.7185 76.0639 68.006V26.3629C76.0639 23.6504 73.9454 21.4672 71.3134 21.4672H28.6867ZM43.0531 34.6556C45.936 34.6556 48.2458 37.0541 48.2458 40.0251C48.2458 42.9961 45.936 45.3946 43.0531 45.3946C40.1702 45.3946 37.8429 42.9961 37.8429 40.0251C37.8429 37.0541 40.1702 34.6556 43.0531 34.6556ZM56.947 34.6556C59.8299 34.6556 62.1397 37.0541 62.1397 40.0251C62.1397 42.9961 59.8299 45.3946 56.947 45.3946C54.0641 45.3946 51.7368 42.9961 51.7368 40.0251C51.7368 37.0541 54.0641 34.6556 56.947 34.6556ZM43.0531 48.9743C47.0996 48.9743 55.2103 51.0685 55.2103 55.2387V59.7132H30.8959V55.2387C30.8959 51.0685 39.0066 48.9743 43.0531 48.9743ZM56.947 48.9743C60.9935 48.9743 69.1042 51.0685 69.1042 55.2387V59.7132H58.6837V55.2387C58.6837 52.5898 57.2775 50.5665 55.2629 49.0631C55.8708 49.0094 56.4434 48.9742 56.947 48.9742V48.9743Z"
              fill="white"/>
    </g>
    <defs>
        <clipPath id="clip0_148_691">
            <rect width="100" height="100" fill="white"/>
        </clipPath>
    </defs>
</svg>
