<svg width="100" height="100" viewBox="0 0 100 100" fill="none" xmlns="http://www.w3.org/2000/svg">
    <g clip-path="url(#clip0_148_698)">
        <path d="M49.6711 2.64666C48.8337 2.69013 48.0131 2.90411 47.2577 3.27605L14.3249 19.4927C13.4725 19.9122 12.7236 20.5226 12.1337 21.2786C11.5438 22.0346 11.1281 22.9167 10.9175 23.8594L2.79274 60.2861C2.60513 61.1253 2.58413 61.9945 2.73099 62.8423C2.87786 63.69 3.1896 64.499 3.64776 65.2214C3.75885 65.398 3.87833 65.5689 4.00576 65.7336L26.8005 94.9417C27.3906 95.6975 28.1396 96.3077 28.992 96.7271C29.8444 97.1464 30.7782 97.364 31.7242 97.3638L68.2792 97.3551C69.2249 97.3558 70.1585 97.1389 71.0109 96.7203C71.8633 96.3018 72.6125 95.6924 73.2029 94.9374L95.9893 65.7249C96.5796 64.9687 96.9956 64.0863 97.2064 63.1432C97.4171 62.2001 97.4171 61.2205 97.2065 60.2774L89.0691 23.8507C88.8585 22.908 88.4429 22.0259 87.853 21.2699C87.2631 20.5139 86.5141 19.9035 85.6617 19.484L52.7247 3.27605C51.7745 2.80818 50.7245 2.59176 49.6711 2.64666Z"
              fill="#326CE5"/>
        <path d="M49.6534 0.00897171C48.7703 0.0566405 47.9055 0.283895 47.1094 0.677431L12.3402 17.7926C11.4404 18.2355 10.6498 18.8799 10.0271 19.6779C9.4044 20.476 8.96558 21.4072 8.74327 22.4023L0.167864 60.8561C-0.0307917 61.7425 -0.0533772 62.6606 0.101447 63.5561C0.256272 64.4515 0.585354 65.3061 1.0692 66.0692C1.18691 66.2548 1.31341 66.4344 1.44825 66.6074L25.5108 97.4434C26.1337 98.2411 26.9243 98.8852 27.8241 99.3278C28.7239 99.7704 29.7097 100 30.7083 100L69.2976 99.9913C70.2958 99.992 71.2814 99.7629 72.1812 99.3211C73.0809 98.8792 73.8718 98.236 74.4951 97.439L98.5492 66.5987C99.1718 65.8009 99.6106 64.8699 99.833 63.875C100.055 62.8801 100.056 61.8468 99.8339 60.8517L91.2458 22.3937C91.0229 21.3993 90.5839 20.4689 89.9612 19.6717C89.3385 18.8744 88.5482 18.2307 87.6489 17.7882L52.8797 0.673091C51.8757 0.178835 50.7663 -0.0495361 49.6534 0.00897171ZM49.6702 2.64808C50.7236 2.59319 51.7736 2.80961 52.7238 3.27748L85.6608 19.4854C86.5132 19.9049 87.2622 20.5154 87.8521 21.2713C88.442 22.0273 88.8577 22.9094 89.0683 23.8521L97.2057 60.2788C97.4163 61.2219 97.4162 62.2015 97.2055 63.1446C96.9948 64.0877 96.5788 64.9701 95.9884 65.7263L73.2021 94.9388C72.6116 95.6938 71.8624 96.3032 71.01 96.7218C70.1577 97.1403 69.224 97.3573 68.2784 97.3566L31.7234 97.3653C30.7774 97.3655 29.8435 97.1478 28.9911 96.7285C28.1387 96.3092 27.3897 95.699 26.7997 94.9432L4.00489 65.735C3.87746 65.5704 3.75798 65.3994 3.64689 65.2228C3.18873 64.5004 2.87699 63.6914 2.73013 62.8437C2.58327 61.996 2.60426 61.1268 2.79188 60.2875L10.9166 23.8608C11.1272 22.9181 11.5429 22.036 12.1328 21.2801C12.7227 20.5241 13.4717 19.9137 14.324 19.4942L47.2568 3.27752C48.0123 2.90558 48.8328 2.6916 49.6702 2.64812L49.6702 2.64808Z"
              fill="white"/>
        <path d="M38.5682 82.75V88H37.2273V76.3636H38.5682V80.6364H38.6818C38.8864 80.1856 39.1932 79.8277 39.6023 79.5625C40.0152 79.2936 40.5644 79.1591 41.25 79.1591C41.8447 79.1591 42.3655 79.2784 42.8125 79.517C43.2595 79.7519 43.6061 80.1136 43.8523 80.6023C44.1023 81.0871 44.2273 81.7045 44.2273 82.4545V88H42.8864V82.5455C42.8864 81.8523 42.7064 81.3163 42.3466 80.9375C41.9905 80.5549 41.4962 80.3636 40.8636 80.3636C40.4242 80.3636 40.0303 80.4564 39.6818 80.642C39.3371 80.8277 39.0644 81.0985 38.8636 81.4545C38.6667 81.8106 38.5682 82.2424 38.5682 82.75ZM46.6804 91.2727V79.2727H47.9759V80.6591H48.1349C48.2334 80.5076 48.3698 80.3144 48.544 80.0795C48.7221 79.8409 48.9759 79.6288 49.3054 79.4432C49.6387 79.2538 50.0895 79.1591 50.6577 79.1591C51.3925 79.1591 52.0402 79.3428 52.6009 79.7102C53.1615 80.0777 53.599 80.5985 53.9134 81.2727C54.2277 81.947 54.3849 82.7424 54.3849 83.6591C54.3849 84.5833 54.2277 85.3845 53.9134 86.0625C53.599 86.7367 53.1634 87.2595 52.6065 87.6307C52.0497 87.9981 51.4077 88.1818 50.6804 88.1818C50.1198 88.1818 49.6709 88.089 49.3338 87.9034C48.9967 87.714 48.7372 87.5 48.5554 87.2614C48.3736 87.0189 48.2334 86.8182 48.1349 86.6591H48.0213V91.2727H46.6804ZM47.9986 83.6364C47.9986 84.2955 48.0952 84.8769 48.2884 85.3807C48.4815 85.8807 48.7637 86.2727 49.1349 86.5568C49.5062 86.8371 49.9607 86.9773 50.4986 86.9773C51.0592 86.9773 51.527 86.8295 51.902 86.5341C52.2808 86.2348 52.5649 85.8333 52.7543 85.3295C52.9474 84.822 53.044 84.2576 53.044 83.6364C53.044 83.0227 52.9493 82.4697 52.7599 81.9773C52.5743 81.4811 52.2921 81.089 51.9134 80.8011C51.5384 80.5095 51.0668 80.3636 50.4986 80.3636C49.9531 80.3636 49.4948 80.5019 49.1236 80.7784C48.7524 81.0511 48.4721 81.4337 48.2827 81.9261C48.0933 82.4148 47.9986 82.9848 47.9986 83.6364ZM58.9986 88.2045C58.4455 88.2045 57.9437 88.1004 57.4929 87.892C57.0421 87.6799 56.6842 87.375 56.419 86.9773C56.1539 86.5758 56.0213 86.0909 56.0213 85.5227C56.0213 85.0227 56.1198 84.6174 56.3168 84.3068C56.5137 83.9924 56.777 83.7462 57.1065 83.5682C57.4361 83.3902 57.7997 83.2576 58.1974 83.1705C58.599 83.0795 59.0024 83.0076 59.4077 82.9545C59.938 82.8864 60.3679 82.8352 60.6974 82.8011C61.0308 82.7633 61.2732 82.7008 61.4247 82.6136C61.58 82.5265 61.6577 82.375 61.6577 82.1591V82.1136C61.6577 81.553 61.5043 81.1174 61.1974 80.8068C60.8944 80.4962 60.4342 80.3409 59.8168 80.3409C59.1766 80.3409 58.6747 80.4811 58.3111 80.7614C57.9474 81.0417 57.6918 81.3409 57.544 81.6591L56.2713 81.2045C56.4986 80.6742 56.8016 80.2614 57.1804 79.9659C57.563 79.6667 57.9796 79.4583 58.4304 79.3409C58.8849 79.2197 59.3319 79.1591 59.7713 79.1591C60.0516 79.1591 60.3736 79.1932 60.7372 79.2614C61.1046 79.3258 61.4588 79.4602 61.7997 79.6648C62.1444 79.8693 62.4304 80.178 62.6577 80.5909C62.8849 81.0038 62.9986 81.5568 62.9986 82.25V88H61.6577V86.8182H61.5895C61.4986 87.0076 61.3471 87.2102 61.1349 87.4261C60.9228 87.642 60.6406 87.8258 60.2884 87.9773C59.9361 88.1288 59.5062 88.2045 58.9986 88.2045ZM59.2031 87C59.7334 87 60.1804 86.8958 60.544 86.6875C60.9115 86.4792 61.188 86.2102 61.3736 85.8807C61.563 85.5511 61.6577 85.2045 61.6577 84.8409V83.6136C61.6009 83.6818 61.4759 83.7443 61.2827 83.8011C61.0933 83.8542 60.8736 83.9015 60.6236 83.9432C60.3774 83.9811 60.1368 84.0152 59.902 84.0455C59.6709 84.072 59.4834 84.0947 59.3395 84.1136C58.991 84.1591 58.6652 84.233 58.3622 84.3352C58.063 84.4337 57.8205 84.5833 57.6349 84.7841C57.4531 84.9811 57.3622 85.25 57.3622 85.5909C57.3622 86.0568 57.5346 86.4091 57.8793 86.6477C58.2277 86.8826 58.669 87 59.2031 87Z"
              fill="white"/>
        <path fill-rule="evenodd" clip-rule="evenodd"
              d="M11 44.8552L22.4698 33.4276V39.1414H26.6919V22H73.198V39.1414H77.4201V33.4276L88.8899 44.8552L77.4201 56.2829V50.5691H73.198V67.7105H26.6919V50.5691H22.4698V56.2829L11 44.8552Z"
              fill="white"/>
        <path fill-rule="evenodd" clip-rule="evenodd"
              d="M32.124 32.4157L49.945 27.2668L67.7659 32.4157L49.945 37.5645L32.124 32.4157Z" fill="#326CE5"/>
        <path fill-rule="evenodd" clip-rule="evenodd"
              d="M32.124 34.3873V53.28L48.7282 62.4437L48.8103 39.3318L32.124 34.3873Z" fill="#326CE5"/>
        <path fill-rule="evenodd" clip-rule="evenodd"
              d="M67.7659 34.3873V53.28L51.1618 62.4437L51.0796 39.3318L67.7659 34.3873Z" fill="#326CE5"/>
    </g>
    <defs>
        <clipPath id="clip0_148_698">
            <rect width="100" height="100" fill="white"/>
        </clipPath>
    </defs>
</svg>
