<svg width="100" height="100" viewBox="0 0 100 100" fill="none" xmlns="http://www.w3.org/2000/svg">
    <g clip-path="url(#clip0_148_709)">
        <path d="M49.671 2.64666C48.8336 2.69013 48.0131 2.90411 47.2576 3.27605L14.3248 19.4927C13.4725 19.9122 12.7235 20.5226 12.1336 21.2786C11.5437 22.0346 11.128 22.9167 10.9174 23.8594L2.79268 60.2861C2.60507 61.1253 2.58407 61.9945 2.73093 62.8423C2.8778 63.69 3.18954 64.499 3.6477 65.2214C3.75879 65.398 3.87827 65.5689 4.0057 65.7336L26.8005 94.9417C27.3905 95.6975 28.1395 96.3077 28.9919 96.7271C29.8443 97.1464 30.7782 97.364 31.7242 97.3638L68.2792 97.3551C69.2248 97.3558 70.1585 97.1389 71.0108 96.7203C71.8632 96.3018 72.6124 95.6924 73.2029 94.9374L95.9892 65.7249C96.5796 64.9687 96.9956 64.0863 97.2063 63.1432C97.417 62.2001 97.4171 61.2205 97.2065 60.2774L89.0691 23.8507C88.8585 22.908 88.4428 22.0259 87.8529 21.2699C87.263 20.5139 86.514 19.9035 85.6617 19.484L52.7247 3.27605C51.7744 2.80818 50.7244 2.59176 49.671 2.64666Z"
              fill="#326CE5"/>
        <path d="M49.6534 0.00897171C48.7703 0.0566405 47.9055 0.283895 47.1094 0.677431L12.3402 17.7926C11.4404 18.2355 10.6498 18.8799 10.0271 19.6779C9.4044 20.476 8.96558 21.4072 8.74327 22.4023L0.167864 60.8561C-0.0307917 61.7425 -0.0533772 62.6606 0.101447 63.5561C0.256272 64.4515 0.585354 65.3061 1.0692 66.0692C1.18691 66.2548 1.31341 66.4344 1.44825 66.6074L25.5108 97.4434C26.1337 98.2411 26.9243 98.8852 27.8241 99.3278C28.7239 99.7704 29.7097 100 30.7083 100L69.2976 99.9913C70.2958 99.992 71.2814 99.7629 72.1812 99.3211C73.0809 98.8792 73.8718 98.236 74.4951 97.439L98.5492 66.5987C99.1718 65.8009 99.6106 64.8699 99.833 63.875C100.055 62.8801 100.056 61.8468 99.8339 60.8517L91.2458 22.3937C91.0229 21.3993 90.5839 20.4689 89.9612 19.6717C89.3385 18.8744 88.5482 18.2307 87.6489 17.7882L52.8797 0.673091C51.8757 0.178835 50.7663 -0.0495361 49.6534 0.00897171ZM49.6702 2.64808C50.7236 2.59319 51.7736 2.80961 52.7238 3.27748L85.6608 19.4854C86.5132 19.9049 87.2622 20.5154 87.8521 21.2713C88.442 22.0273 88.8577 22.9094 89.0683 23.8521L97.2057 60.2788C97.4163 61.2219 97.4162 62.2015 97.2055 63.1446C96.9948 64.0877 96.5788 64.9701 95.9884 65.7263L73.2021 94.9388C72.6116 95.6938 71.8624 96.3032 71.01 96.7218C70.1577 97.1403 69.224 97.3573 68.2784 97.3566L31.7234 97.3653C30.7774 97.3655 29.8435 97.1478 28.9911 96.7285C28.1387 96.3092 27.3897 95.699 26.7997 94.9432L4.00489 65.735C3.87746 65.5704 3.75798 65.3994 3.64689 65.2228C3.18873 64.5004 2.87699 63.6914 2.73013 62.8437C2.58327 61.996 2.60426 61.1268 2.79188 60.2875L10.9166 23.8608C11.1272 22.9181 11.5429 22.036 12.1328 21.2801C12.7227 20.5241 13.4717 19.9137 14.324 19.4942L47.2568 3.27752C48.0123 2.90558 48.8328 2.6916 49.6702 2.64812L49.6702 2.64808Z"
              fill="white"/>
        <path d="M40.2273 90V81.2727H41.5682V90H40.2273ZM40.9091 79.8182C40.6477 79.8182 40.4223 79.7292 40.233 79.5511C40.0473 79.3731 39.9545 79.1591 39.9545 78.9091C39.9545 78.6591 40.0473 78.4451 40.233 78.267C40.4223 78.089 40.6477 78 40.9091 78C41.1705 78 41.3939 78.089 41.5795 78.267C41.7689 78.4451 41.8636 78.6591 41.8636 78.9091C41.8636 79.1591 41.7689 79.3731 41.5795 79.5511C41.3939 79.7292 41.1705 79.8182 40.9091 79.8182ZM45.3651 84.75V90H44.0241V81.2727H45.3196V82.6364H45.4332C45.6378 82.1932 45.9484 81.8371 46.3651 81.5682C46.7817 81.2955 47.3196 81.1591 47.9787 81.1591C48.5696 81.1591 49.0866 81.2803 49.5298 81.5227C49.973 81.7614 50.3177 82.125 50.5639 82.6136C50.8101 83.0985 50.9332 83.7121 50.9332 84.4545V90H49.5923V84.5455C49.5923 83.8598 49.4143 83.3258 49.0582 82.9432C48.7022 82.5568 48.2135 82.3636 47.5923 82.3636C47.1643 82.3636 46.7817 82.4564 46.4446 82.642C46.1113 82.8277 45.848 83.0985 45.6548 83.4545C45.4616 83.8106 45.3651 84.2424 45.3651 84.75ZM56.9062 93.4545C56.2585 93.4545 55.7017 93.3712 55.2358 93.2045C54.7699 93.0417 54.3816 92.8258 54.071 92.5568C53.7642 92.2917 53.5199 92.0076 53.3381 91.7045L54.4062 90.9545C54.5275 91.1136 54.6809 91.2955 54.8665 91.5C55.0521 91.7083 55.3059 91.8883 55.6278 92.0398C55.9536 92.1951 56.3797 92.2727 56.9062 92.2727C57.6108 92.2727 58.1922 92.1023 58.6506 91.7614C59.1089 91.4205 59.3381 90.8864 59.3381 90.1591V88.3864H59.2244C59.1259 88.5455 58.9858 88.7424 58.804 88.9773C58.6259 89.2083 58.3684 89.4148 58.0312 89.5966C57.6979 89.7746 57.2472 89.8636 56.679 89.8636C55.9744 89.8636 55.3419 89.697 54.7812 89.3636C54.2244 89.0303 53.7831 88.5455 53.4574 87.9091C53.1354 87.2727 52.9744 86.5 52.9744 85.5909C52.9744 84.697 53.1316 83.9186 53.446 83.2557C53.7604 82.589 54.1979 82.0739 54.7585 81.7102C55.3191 81.3428 55.9669 81.1591 56.7017 81.1591C57.2699 81.1591 57.7206 81.2538 58.054 81.4432C58.3911 81.6288 58.6487 81.8409 58.8267 82.0795C59.0085 82.3144 59.1487 82.5076 59.2472 82.6591H59.3835V81.2727H60.679V90.25C60.679 91 60.5085 91.6098 60.1676 92.0795C59.8305 92.553 59.3759 92.8996 58.804 93.1193C58.2358 93.3428 57.6032 93.4545 56.9062 93.4545ZM56.8608 88.6591C57.3987 88.6591 57.8532 88.536 58.2244 88.2898C58.5956 88.0436 58.8778 87.6894 59.071 87.2273C59.2642 86.7652 59.3608 86.2121 59.3608 85.5682C59.3608 84.9394 59.2661 84.3845 59.0767 83.9034C58.8873 83.4223 58.607 83.0455 58.2358 82.7727C57.8646 82.5 57.4063 82.3636 56.8608 82.3636C56.2926 82.3636 55.8191 82.5076 55.4403 82.7955C55.0653 83.0833 54.7831 83.4697 54.5938 83.9545C54.4081 84.4394 54.3153 84.9773 54.3153 85.5682C54.3153 86.1742 54.41 86.7102 54.5994 87.1761C54.7926 87.6383 55.0767 88.0019 55.4517 88.267C55.8305 88.5284 56.3002 88.6591 56.8608 88.6591Z"
              fill="white"/>
        <path d="M65.2351 71.6675H52.6448L25.36 36.4919H17.4663V24.9784H30.3007L57.5972 60.1539H65.2351V51.0486L82.5338 65.9047L65.2351 80.7729V71.6675ZM51.5056 44.4951L57.5972 36.6357H65.2351V45.741L82.5338 30.8849L65.2351 16.0167V25.1221H52.6448L44.5652 35.5454L51.5056 44.4951ZM31.5563 52.2946L25.36 60.2977H17.4663V71.8112H30.3007L38.4967 61.2442L31.5563 52.2946Z"
              fill="white"/>
    </g>
    <defs>
        <clipPath id="clip0_148_709">
            <rect width="100" height="100" fill="white"/>
        </clipPath>
    </defs>
</svg>
