<svg width="100" height="100" viewBox="0 0 100 100" fill="none" xmlns="http://www.w3.org/2000/svg">
    <g clip-path="url(#clip0_148_716)">
        <path d="M49.671 2.64666C48.8336 2.69013 48.0131 2.90411 47.2576 3.27605L14.3248 19.4927C13.4725 19.9122 12.7235 20.5226 12.1336 21.2786C11.5437 22.0346 11.128 22.9167 10.9174 23.8594L2.79268 60.2861C2.60507 61.1253 2.58407 61.9945 2.73093 62.8423C2.8778 63.69 3.18954 64.499 3.6477 65.2214C3.75879 65.398 3.87827 65.5689 4.0057 65.7336L26.8005 94.9417C27.3905 95.6975 28.1395 96.3077 28.9919 96.7271C29.8443 97.1464 30.7782 97.364 31.7242 97.3638L68.2792 97.3551C69.2248 97.3558 70.1585 97.1389 71.0108 96.7203C71.8632 96.3018 72.6124 95.6924 73.2029 94.9374L95.9892 65.7249C96.5796 64.9687 96.9956 64.0863 97.2063 63.1432C97.417 62.2001 97.4171 61.2205 97.2065 60.2774L89.0691 23.8507C88.8585 22.908 88.4428 22.0259 87.8529 21.2699C87.263 20.5139 86.514 19.9035 85.6617 19.484L52.7247 3.27605C51.7744 2.80818 50.7244 2.59176 49.671 2.64666Z"
              fill="#326CE5"/>
        <path d="M49.6534 0.00897171C48.7703 0.0566405 47.9055 0.283895 47.1094 0.677431L12.3402 17.7926C11.4404 18.2355 10.6498 18.8799 10.0271 19.6779C9.4044 20.476 8.96558 21.4072 8.74327 22.4023L0.167864 60.8561C-0.0307917 61.7425 -0.0533772 62.6606 0.101447 63.5561C0.256272 64.4515 0.585354 65.3061 1.0692 66.0692C1.18691 66.2548 1.31341 66.4344 1.44825 66.6074L25.5108 97.4434C26.1337 98.2411 26.9243 98.8852 27.8241 99.3278C28.7239 99.7704 29.7097 100 30.7083 100L69.2976 99.9913C70.2958 99.992 71.2814 99.7629 72.1812 99.3211C73.0809 98.8792 73.8718 98.236 74.4951 97.439L98.5492 66.5987C99.1718 65.8009 99.6106 64.8699 99.833 63.875C100.055 62.8801 100.056 61.8468 99.8339 60.8517L91.2458 22.3937C91.0229 21.3993 90.5839 20.4689 89.9612 19.6717C89.3385 18.8744 88.5482 18.2307 87.6489 17.7882L52.8797 0.673091C51.8757 0.178835 50.7663 -0.0495361 49.6534 0.00897171ZM49.6702 2.64808C50.7236 2.59319 51.7736 2.80961 52.7238 3.27748L85.6608 19.4854C86.5132 19.9049 87.2622 20.5154 87.8521 21.2713C88.442 22.0273 88.8577 22.9094 89.0683 23.8521L97.2057 60.2788C97.4163 61.2219 97.4162 62.2015 97.2055 63.1446C96.9948 64.0877 96.5788 64.9701 95.9884 65.7263L73.2021 94.9388C72.6116 95.6938 71.8624 96.3032 71.01 96.7218C70.1577 97.1403 69.224 97.3573 68.2784 97.3566L31.7234 97.3653C30.7774 97.3655 29.8435 97.1478 28.9911 96.7285C28.1387 96.3092 27.3897 95.699 26.7997 94.9432L4.00489 65.735C3.87746 65.5704 3.75798 65.3994 3.64689 65.2228C3.18873 64.5004 2.87699 63.6914 2.73013 62.8437C2.58327 61.996 2.60426 61.1268 2.79188 60.2875L10.9166 23.8608C11.1272 22.9181 11.5429 22.036 12.1328 21.2801C12.7227 20.5241 13.4717 19.9137 14.324 19.4942L47.2568 3.27752C48.0123 2.90558 48.8328 2.6916 49.6702 2.64812L49.6702 2.64808Z"
              fill="white"/>
        <path d="M39.2273 81.2727H40.5682V90.6364C40.5682 91.1742 40.4754 91.6402 40.2898 92.0341C40.108 92.428 39.8314 92.733 39.4602 92.9489C39.0928 93.1648 38.6288 93.2727 38.0682 93.2727C38.0227 93.2727 37.9773 93.2727 37.9318 93.2727C37.8864 93.2727 37.8409 93.2727 37.7955 93.2727V92.0227C37.8409 92.0227 37.8826 92.0227 37.9205 92.0227C37.9583 92.0227 38 92.0227 38.0455 92.0227C38.4545 92.0227 38.7538 91.9015 38.9432 91.6591C39.1326 91.4205 39.2273 91.0795 39.2273 90.6364V81.2727ZM39.8864 79.8182C39.625 79.8182 39.3996 79.7292 39.2102 79.5511C39.0246 79.3731 38.9318 79.1591 38.9318 78.9091C38.9318 78.6591 39.0246 78.4451 39.2102 78.267C39.3996 78.089 39.625 78 39.8864 78C40.1477 78 40.3712 78.089 40.5568 78.267C40.7462 78.4451 40.8409 78.6591 40.8409 78.9091C40.8409 79.1591 40.7462 79.3731 40.5568 79.5511C40.3712 79.7292 40.1477 79.8182 39.8864 79.8182ZM46.5696 90.1818C45.7817 90.1818 45.0904 89.9943 44.4957 89.6193C43.9048 89.2443 43.4427 88.7197 43.1094 88.0455C42.7798 87.3712 42.6151 86.5833 42.6151 85.6818C42.6151 84.7727 42.7798 83.9792 43.1094 83.3011C43.4427 82.6231 43.9048 82.0966 44.4957 81.7216C45.0904 81.3466 45.7817 81.1591 46.5696 81.1591C47.3575 81.1591 48.0469 81.3466 48.6378 81.7216C49.2325 82.0966 49.6946 82.6231 50.0241 83.3011C50.3575 83.9792 50.5241 84.7727 50.5241 85.6818C50.5241 86.5833 50.3575 87.3712 50.0241 88.0455C49.6946 88.7197 49.2325 89.2443 48.6378 89.6193C48.0469 89.9943 47.3575 90.1818 46.5696 90.1818ZM46.5696 88.9773C47.1681 88.9773 47.6605 88.8239 48.0469 88.517C48.4332 88.2102 48.7192 87.8068 48.9048 87.3068C49.0904 86.8068 49.1832 86.2652 49.1832 85.6818C49.1832 85.0985 49.0904 84.5549 48.9048 84.0511C48.7192 83.5473 48.4332 83.1402 48.0469 82.8295C47.6605 82.5189 47.1681 82.3636 46.5696 82.3636C45.9711 82.3636 45.4787 82.5189 45.0923 82.8295C44.706 83.1402 44.42 83.5473 44.2344 84.0511C44.0488 84.5549 43.956 85.0985 43.956 85.6818C43.956 86.2652 44.0488 86.8068 44.2344 87.3068C44.42 87.8068 44.706 88.2102 45.0923 88.517C45.4787 88.8239 45.9711 88.9773 46.5696 88.9773ZM52.7528 90V78.3636H54.0938V82.6591H54.2074C54.3059 82.5076 54.4422 82.3144 54.6165 82.0795C54.7945 81.8409 55.0483 81.6288 55.3778 81.4432C55.7112 81.2538 56.1619 81.1591 56.7301 81.1591C57.465 81.1591 58.1127 81.3428 58.6733 81.7102C59.2339 82.0777 59.6714 82.5985 59.9858 83.2727C60.3002 83.947 60.4574 84.7424 60.4574 85.6591C60.4574 86.5833 60.3002 87.3845 59.9858 88.0625C59.6714 88.7367 59.2358 89.2595 58.679 89.6307C58.1222 89.9981 57.4801 90.1818 56.7528 90.1818C56.1922 90.1818 55.7434 90.089 55.4062 89.9034C55.0691 89.714 54.8097 89.5 54.6278 89.2614C54.446 89.0189 54.3059 88.8182 54.2074 88.6591H54.0483V90H52.7528ZM54.071 85.6364C54.071 86.2955 54.1676 86.8769 54.3608 87.3807C54.554 87.8807 54.8362 88.2727 55.2074 88.5568C55.5786 88.8371 56.0331 88.9773 56.571 88.9773C57.1316 88.9773 57.5994 88.8295 57.9744 88.5341C58.3532 88.2348 58.6373 87.8333 58.8267 87.3295C59.0199 86.822 59.1165 86.2576 59.1165 85.6364C59.1165 85.0227 59.0218 84.4697 58.8324 83.9773C58.6468 83.4811 58.3646 83.089 57.9858 82.8011C57.6108 82.5095 57.1392 82.3636 56.571 82.3636C56.0256 82.3636 55.5672 82.5019 55.196 82.7784C54.8248 83.0511 54.5445 83.4337 54.3551 83.9261C54.1657 84.4148 54.071 84.9848 54.071 85.6364Z"
              fill="white"/>
        <path d="M38.6306 55.4484H26.4157V67.6919H38.6306V55.4484Z" fill="white"/>
        <path d="M56.1074 55.4484H43.8926V67.6919H56.1074V55.4484Z" fill="white"/>
        <path d="M73.5843 55.4484H61.3694V67.6919H73.5843V55.4484Z" fill="white"/>
        <path d="M73.5843 37.4476H61.3694V49.6912H73.5843V37.4476Z" fill="white"/>
        <path d="M56.1633 37.6366H43.9484V49.8802H56.1633V37.6366Z" fill="white"/>
        <path d="M38.7423 37.6366H26.5275V49.8802H38.7423V37.6366Z" fill="white"/>
        <path d="M73.5843 19.8248H61.3694V32.0684H73.5843V19.8248Z" fill="white"/>
    </g>
    <defs>
        <clipPath id="clip0_148_716">
            <rect width="100" height="100" fill="white"/>
        </clipPath>
    </defs>
</svg>
