<svg width="100" height="100" viewBox="0 0 100 100" fill="none" xmlns="http://www.w3.org/2000/svg">
    <g clip-path="url(#clip0_148_730)">
        <path d="M49.6711 2.64666C48.8337 2.69013 48.0131 2.90411 47.2577 3.27605L14.3249 19.4927C13.4725 19.9122 12.7236 20.5226 12.1337 21.2786C11.5438 22.0346 11.1281 22.9167 10.9175 23.8594L2.79274 60.2861C2.60513 61.1253 2.58413 61.9945 2.73099 62.8423C2.87786 63.69 3.1896 64.499 3.64776 65.2214C3.75885 65.398 3.87833 65.5689 4.00576 65.7336L26.8005 94.9417C27.3906 95.6975 28.1396 96.3077 28.992 96.7271C29.8444 97.1464 30.7782 97.364 31.7242 97.3638L68.2792 97.3551C69.2249 97.3558 70.1585 97.1389 71.0109 96.7203C71.8633 96.3018 72.6125 95.6924 73.2029 94.9374L95.9893 65.7249C96.5796 64.9687 96.9956 64.0863 97.2064 63.1432C97.4171 62.2001 97.4171 61.2205 97.2065 60.2774L89.0691 23.8507C88.8585 22.908 88.4429 22.0259 87.853 21.2699C87.2631 20.5139 86.5141 19.9035 85.6617 19.484L52.7247 3.27605C51.7745 2.80818 50.7245 2.59176 49.6711 2.64666Z"
              fill="#326CE5"/>
        <path d="M49.6534 0.00897171C48.7703 0.0566405 47.9055 0.283895 47.1094 0.677431L12.3402 17.7926C11.4404 18.2355 10.6498 18.8799 10.0271 19.6779C9.4044 20.476 8.96558 21.4072 8.74327 22.4023L0.167864 60.8561C-0.0307917 61.7425 -0.0533772 62.6606 0.101447 63.5561C0.256272 64.4515 0.585354 65.3061 1.0692 66.0692C1.18691 66.2548 1.31341 66.4344 1.44825 66.6074L25.5108 97.4434C26.1337 98.2411 26.9243 98.8852 27.8241 99.3278C28.7239 99.7704 29.7097 100 30.7083 100L69.2976 99.9913C70.2958 99.992 71.2814 99.7629 72.1812 99.3211C73.0809 98.8792 73.8718 98.236 74.4951 97.439L98.5492 66.5987C99.1718 65.8009 99.6106 64.8699 99.833 63.875C100.055 62.8801 100.056 61.8468 99.8339 60.8517L91.2458 22.3937C91.0229 21.3993 90.5839 20.4689 89.9612 19.6717C89.3385 18.8744 88.5482 18.2307 87.6489 17.7882L52.8797 0.673091C51.8757 0.178835 50.7663 -0.0495361 49.6534 0.00897171ZM49.6702 2.64808C50.7236 2.59319 51.7736 2.80961 52.7238 3.27748L85.6608 19.4854C86.5132 19.9049 87.2622 20.5154 87.8521 21.2713C88.442 22.0273 88.8577 22.9094 89.0683 23.8521L97.2057 60.2788C97.4163 61.2219 97.4162 62.2015 97.2055 63.1446C96.9948 64.0877 96.5788 64.9701 95.9884 65.7263L73.2021 94.9388C72.6116 95.6938 71.8624 96.3032 71.01 96.7218C70.1577 97.1403 69.224 97.3573 68.2784 97.3566L31.7234 97.3653C30.7774 97.3655 29.8435 97.1478 28.9911 96.7285C28.1387 96.3092 27.3897 95.699 26.7997 94.9432L4.00489 65.735C3.87746 65.5704 3.75798 65.3994 3.64689 65.2228C3.18873 64.5004 2.87699 63.6914 2.73013 62.8437C2.58327 61.996 2.60426 61.1268 2.79188 60.2875L10.9166 23.8608C11.1272 22.9181 11.5429 22.036 12.1328 21.2801C12.7227 20.5241 13.4717 19.9137 14.324 19.4942L47.2568 3.27752C48.0123 2.90558 48.8328 2.6916 49.6702 2.64812L49.6702 2.64808Z"
              fill="white"/>
        <path d="M32.5682 77.3636V89H31.2273V77.3636H32.5682ZM35.0241 89V80.2727H36.3651V89H35.0241ZM35.706 78.8182C35.4446 78.8182 35.2192 78.7292 35.0298 78.5511C34.8442 78.3731 34.7514 78.1591 34.7514 77.9091C34.7514 77.6591 34.8442 77.4451 35.0298 77.267C35.2192 77.089 35.4446 77 35.706 77C35.9673 77 36.1908 77.089 36.3764 77.267C36.5658 77.4451 36.6605 77.6591 36.6605 77.9091C36.6605 78.1591 36.5658 78.3731 36.3764 78.5511C36.1908 78.7292 35.9673 78.8182 35.706 78.8182ZM38.821 89V80.2727H40.1165V81.6364H40.2301C40.4119 81.1705 40.7055 80.8087 41.1108 80.5511C41.5161 80.2898 42.0028 80.1591 42.571 80.1591C43.1468 80.1591 43.6259 80.2898 44.0085 80.5511C44.3949 80.8087 44.696 81.1705 44.9119 81.6364H45.0028C45.2263 81.1856 45.5616 80.8277 46.0085 80.5625C46.4555 80.2936 46.9915 80.1591 47.6165 80.1591C48.3968 80.1591 49.035 80.4034 49.5312 80.892C50.0275 81.3769 50.2756 82.1326 50.2756 83.1591V89H48.9347V83.1591C48.9347 82.5152 48.7585 82.0549 48.4062 81.7784C48.054 81.5019 47.6392 81.3636 47.1619 81.3636C46.5483 81.3636 46.0729 81.5492 45.7358 81.9205C45.3987 82.2879 45.2301 82.7538 45.2301 83.3182V89H43.8665V83.0227C43.8665 82.5265 43.7055 82.1269 43.3835 81.8239C43.0616 81.517 42.6468 81.3636 42.1392 81.3636C41.7907 81.3636 41.465 81.4564 41.1619 81.642C40.8627 81.8277 40.6203 82.0852 40.4347 82.4148C40.2528 82.7405 40.1619 83.1174 40.1619 83.5455V89H38.821ZM52.7273 89V80.2727H54.0682V89H52.7273ZM53.4091 78.8182C53.1477 78.8182 52.9223 78.7292 52.733 78.5511C52.5473 78.3731 52.4545 78.1591 52.4545 77.9091C52.4545 77.6591 52.5473 77.4451 52.733 77.267C52.9223 77.089 53.1477 77 53.4091 77C53.6705 77 53.8939 77.089 54.0795 77.267C54.2689 77.4451 54.3636 77.6591 54.3636 77.9091C54.3636 78.1591 54.2689 78.3731 54.0795 78.5511C53.8939 78.7292 53.6705 78.8182 53.4091 78.8182ZM60.3196 80.2727V81.4091H55.7969V80.2727H60.3196ZM57.1151 78.1818H58.456V86.5C58.456 86.8788 58.5109 87.1629 58.6207 87.3523C58.7344 87.5379 58.8783 87.6629 59.0526 87.7273C59.2306 87.7879 59.4181 87.8182 59.6151 87.8182C59.7628 87.8182 59.884 87.8106 59.9787 87.7955C60.0734 87.7765 60.1491 87.7614 60.206 87.75L60.4787 88.9545C60.3878 88.9886 60.2609 89.0227 60.098 89.0568C59.9351 89.0947 59.7287 89.1136 59.4787 89.1136C59.0999 89.1136 58.7287 89.0322 58.3651 88.8693C58.0052 88.7064 57.706 88.4583 57.4673 88.125C57.2325 87.7917 57.1151 87.3712 57.1151 86.8636V78.1818ZM68.3622 82.2273L67.1577 82.5682C67.0819 82.3674 66.9702 82.1723 66.8224 81.983C66.6785 81.7898 66.4815 81.6307 66.2315 81.5057C65.9815 81.3807 65.6615 81.3182 65.2713 81.3182C64.7372 81.3182 64.2921 81.4413 63.9361 81.6875C63.5838 81.9299 63.4077 82.2386 63.4077 82.6136C63.4077 82.947 63.5289 83.2102 63.7713 83.4034C64.0137 83.5966 64.3925 83.7576 64.9077 83.8864L66.2031 84.2045C66.9834 84.3939 67.5649 84.6837 67.9474 85.0739C68.33 85.4602 68.5213 85.9583 68.5213 86.5682C68.5213 87.0682 68.3774 87.5152 68.0895 87.9091C67.8054 88.303 67.4077 88.6136 66.8963 88.8409C66.3849 89.0682 65.7902 89.1818 65.1122 89.1818C64.2221 89.1818 63.4853 88.9886 62.902 88.6023C62.3187 88.2159 61.9493 87.6515 61.794 86.9091L63.0668 86.5909C63.188 87.0606 63.4171 87.4129 63.7543 87.6477C64.0952 87.8826 64.5402 88 65.0895 88C65.7145 88 66.2107 87.8674 66.5781 87.6023C66.9493 87.3333 67.1349 87.0114 67.1349 86.6364C67.1349 86.3333 67.0289 86.0795 66.8168 85.875C66.6046 85.6667 66.2789 85.5114 65.8395 85.4091L64.3849 85.0682C63.5857 84.8788 62.9986 84.5852 62.6236 84.1875C62.2524 83.786 62.0668 83.2841 62.0668 82.6818C62.0668 82.1894 62.205 81.7538 62.4815 81.375C62.7618 80.9962 63.1425 80.6989 63.6236 80.483C64.1084 80.267 64.6577 80.1591 65.2713 80.1591C66.1349 80.1591 66.813 80.3485 67.3054 80.7273C67.8016 81.1061 68.1539 81.6061 68.3622 82.2273Z"
              fill="white"/>
        <path d="M76.2343 25.5807H23.811V67.1772H76.2343V25.5807Z" stroke="white" stroke-width="0.542"
              stroke-linejoin="round" stroke-dasharray="1.63 1.63"/>
        <path d="M53.6589 37.3213H22.2631V68.7056H53.6589V37.3213Z" fill="white"/>
    </g>
    <defs>
        <clipPath id="clip0_148_730">
            <rect width="100" height="100" fill="white"/>
        </clipPath>
    </defs>
</svg>
