<svg width="100" height="100" viewBox="0 0 100 100" fill="none" xmlns="http://www.w3.org/2000/svg">
    <g clip-path="url(#clip0_148_739)">
        <path d="M49.6711 2.64666C48.8337 2.69013 48.0131 2.90411 47.2577 3.27605L14.3249 19.4927C13.4725 19.9122 12.7236 20.5226 12.1337 21.2786C11.5438 22.0346 11.1281 22.9167 10.9175 23.8594L2.79274 60.2861C2.60513 61.1253 2.58413 61.9945 2.73099 62.8423C2.87786 63.69 3.1896 64.499 3.64776 65.2214C3.75885 65.398 3.87833 65.5689 4.00576 65.7336L26.8005 94.9417C27.3906 95.6975 28.1396 96.3077 28.992 96.7271C29.8444 97.1464 30.7782 97.364 31.7242 97.3638L68.2792 97.3551C69.2249 97.3558 70.1585 97.1389 71.0109 96.7203C71.8633 96.3018 72.6125 95.6924 73.2029 94.9374L95.9893 65.7249C96.5796 64.9687 96.9956 64.0863 97.2064 63.1432C97.4171 62.2001 97.4171 61.2205 97.2065 60.2774L89.0691 23.8507C88.8585 22.908 88.4429 22.0259 87.853 21.2699C87.2631 20.5139 86.5141 19.9035 85.6617 19.484L52.7247 3.27605C51.7745 2.80818 50.7245 2.59176 49.6711 2.64666Z"
              fill="#326CE5"/>
        <path d="M49.6534 0.00897171C48.7703 0.0566405 47.9055 0.283895 47.1094 0.677431L12.3402 17.7926C11.4404 18.2355 10.6498 18.8799 10.0271 19.6779C9.4044 20.476 8.96558 21.4072 8.74327 22.4023L0.167864 60.8561C-0.0307917 61.7425 -0.0533772 62.6606 0.101447 63.5561C0.256272 64.4515 0.585354 65.3061 1.0692 66.0692C1.18691 66.2548 1.31341 66.4344 1.44825 66.6074L25.5108 97.4434C26.1337 98.2411 26.9243 98.8852 27.8241 99.3278C28.7239 99.7704 29.7097 100 30.7083 100L69.2976 99.9913C70.2958 99.992 71.2814 99.7629 72.1812 99.3211C73.0809 98.8792 73.8718 98.236 74.4951 97.439L98.5492 66.5987C99.1718 65.8009 99.6106 64.8699 99.833 63.875C100.055 62.8801 100.056 61.8468 99.8339 60.8517L91.2458 22.3937C91.0229 21.3993 90.5839 20.4689 89.9612 19.6717C89.3385 18.8744 88.5482 18.2307 87.6489 17.7882L52.8797 0.673091C51.8757 0.178835 50.7663 -0.0495361 49.6534 0.00897171ZM49.6702 2.64808C50.7236 2.59319 51.7736 2.80961 52.7238 3.27748L85.6608 19.4854C86.5132 19.9049 87.2622 20.5154 87.8521 21.2713C88.442 22.0273 88.8577 22.9094 89.0683 23.8521L97.2057 60.2788C97.4163 61.2219 97.4162 62.2015 97.2055 63.1446C96.9948 64.0877 96.5788 64.9701 95.9884 65.7263L73.2021 94.9388C72.6116 95.6938 71.8624 96.3032 71.01 96.7218C70.1577 97.1403 69.224 97.3573 68.2784 97.3566L31.7234 97.3653C30.7774 97.3655 29.8435 97.1478 28.9911 96.7285C28.1387 96.3092 27.3897 95.699 26.7997 94.9432L4.00489 65.735C3.87746 65.5704 3.75798 65.3994 3.64689 65.2228C3.18873 64.5004 2.87699 63.6914 2.73013 62.8437C2.58327 61.996 2.60426 61.1268 2.79188 60.2875L10.9166 23.8608C11.1272 22.9181 11.5429 22.036 12.1328 21.2801C12.7227 20.5241 13.4717 19.9137 14.324 19.4942L47.2568 3.27752C48.0123 2.90558 48.8328 2.6916 49.6702 2.64812L49.6702 2.64808Z"
              fill="white"/>
        <path d="M28.5682 84.75V90H27.2273V81.2727H28.5227V82.6364H28.6364C28.8409 82.1932 29.1515 81.8371 29.5682 81.5682C29.9848 81.2955 30.5227 81.1591 31.1818 81.1591C31.7727 81.1591 32.2898 81.2803 32.733 81.5227C33.1761 81.7614 33.5208 82.125 33.767 82.6136C34.0133 83.0985 34.1364 83.7121 34.1364 84.4545V90H32.7955V84.5455C32.7955 83.8598 32.6174 83.3258 32.2614 82.9432C31.9053 82.5568 31.4167 82.3636 30.7955 82.3636C30.3674 82.3636 29.9848 82.4564 29.6477 82.642C29.3144 82.8277 29.0511 83.0985 28.858 83.4545C28.6648 83.8106 28.5682 84.2424 28.5682 84.75ZM40.2457 90.1818C39.4048 90.1818 38.6795 89.9962 38.0696 89.625C37.4635 89.25 36.9957 88.7273 36.6662 88.0568C36.3404 87.3826 36.1776 86.5985 36.1776 85.7045C36.1776 84.8106 36.3404 84.0227 36.6662 83.3409C36.9957 82.6553 37.4541 82.1212 38.0412 81.7386C38.6321 81.3523 39.3215 81.1591 40.1094 81.1591C40.5639 81.1591 41.0128 81.2348 41.456 81.3864C41.8991 81.5379 42.3026 81.7841 42.6662 82.125C43.0298 82.4621 43.3196 82.9091 43.5355 83.4659C43.7514 84.0227 43.8594 84.7083 43.8594 85.5227V86.0909H37.1321V84.9318H42.4957C42.4957 84.4394 42.3973 84 42.2003 83.6136C42.0071 83.2273 41.7306 82.9223 41.3707 82.6989C41.0147 82.4754 40.5942 82.3636 40.1094 82.3636C39.5753 82.3636 39.1132 82.4962 38.723 82.7614C38.3366 83.0227 38.0393 83.3636 37.831 83.7841C37.6226 84.2045 37.5185 84.6553 37.5185 85.1364V85.9091C37.5185 86.5682 37.6321 87.1269 37.8594 87.5852C38.0904 88.0398 38.4105 88.3864 38.8196 88.625C39.2287 88.8598 39.7041 88.9773 40.2457 88.9773C40.598 88.9773 40.9162 88.928 41.2003 88.8295C41.4882 88.7273 41.7363 88.5758 41.9446 88.375C42.1529 88.1705 42.3139 87.9167 42.4276 87.6136L43.723 87.9773C43.5866 88.4167 43.3575 88.803 43.0355 89.1364C42.7135 89.4659 42.3158 89.7235 41.8423 89.9091C41.3688 90.0909 40.8366 90.1818 40.2457 90.1818ZM49.6946 81.2727V82.4091H45.1719V81.2727H49.6946ZM46.4901 79.1818H47.831V87.5C47.831 87.8788 47.8859 88.1629 47.9957 88.3523C48.1094 88.5379 48.2533 88.6629 48.4276 88.7273C48.6056 88.7879 48.7931 88.8182 48.9901 88.8182C49.1378 88.8182 49.259 88.8106 49.3537 88.7955C49.4484 88.7765 49.5241 88.7614 49.581 88.75L49.8537 89.9545C49.7628 89.9886 49.6359 90.0227 49.473 90.0568C49.3101 90.0947 49.1037 90.1136 48.8537 90.1136C48.4749 90.1136 48.1037 90.0322 47.7401 89.8693C47.3802 89.7064 47.081 89.4583 46.8423 89.125C46.6075 88.7917 46.4901 88.3712 46.4901 87.8636V79.1818ZM51.7116 93.2727V81.2727H53.0071V82.6591H53.1662C53.2647 82.5076 53.401 82.3144 53.5753 82.0795C53.7533 81.8409 54.0071 81.6288 54.3366 81.4432C54.67 81.2538 55.1207 81.1591 55.6889 81.1591C56.4238 81.1591 57.0715 81.3428 57.6321 81.7102C58.1927 82.0777 58.6302 82.5985 58.9446 83.2727C59.259 83.947 59.4162 84.7424 59.4162 85.6591C59.4162 86.5833 59.259 87.3845 58.9446 88.0625C58.6302 88.7367 58.1946 89.2595 57.6378 89.6307C57.081 89.9981 56.4389 90.1818 55.7116 90.1818C55.151 90.1818 54.7022 90.089 54.3651 89.9034C54.0279 89.714 53.7685 89.5 53.5866 89.2614C53.4048 89.0189 53.2647 88.8182 53.1662 88.6591H53.0526V93.2727H51.7116ZM53.0298 85.6364C53.0298 86.2955 53.1264 86.8769 53.3196 87.3807C53.5128 87.8807 53.795 88.2727 54.1662 88.5568C54.5374 88.8371 54.992 88.9773 55.5298 88.9773C56.0904 88.9773 56.5582 88.8295 56.9332 88.5341C57.312 88.2348 57.5961 87.8333 57.7855 87.3295C57.9787 86.822 58.0753 86.2576 58.0753 85.6364C58.0753 85.0227 57.9806 84.4697 57.7912 83.9773C57.6056 83.4811 57.3234 83.089 56.9446 82.8011C56.5696 82.5095 56.098 82.3636 55.5298 82.3636C54.9844 82.3636 54.526 82.5019 54.1548 82.7784C53.7836 83.0511 53.5033 83.4337 53.3139 83.9261C53.1245 84.4148 53.0298 84.9848 53.0298 85.6364ZM65.0071 90.1818C64.2192 90.1818 63.5279 89.9943 62.9332 89.6193C62.3423 89.2443 61.8802 88.7197 61.5469 88.0455C61.2173 87.3712 61.0526 86.5833 61.0526 85.6818C61.0526 84.7727 61.2173 83.9792 61.5469 83.3011C61.8802 82.6231 62.3423 82.0966 62.9332 81.7216C63.5279 81.3466 64.2192 81.1591 65.0071 81.1591C65.795 81.1591 66.4844 81.3466 67.0753 81.7216C67.67 82.0966 68.1321 82.6231 68.4616 83.3011C68.795 83.9792 68.9616 84.7727 68.9616 85.6818C68.9616 86.5833 68.795 87.3712 68.4616 88.0455C68.1321 88.7197 67.67 89.2443 67.0753 89.6193C66.4844 89.9943 65.795 90.1818 65.0071 90.1818ZM65.0071 88.9773C65.6056 88.9773 66.098 88.8239 66.4844 88.517C66.8707 88.2102 67.1567 87.8068 67.3423 87.3068C67.5279 86.8068 67.6207 86.2652 67.6207 85.6818C67.6207 85.0985 67.5279 84.5549 67.3423 84.0511C67.1567 83.5473 66.8707 83.1402 66.4844 82.8295C66.098 82.5189 65.6056 82.3636 65.0071 82.3636C64.4086 82.3636 63.9162 82.5189 63.5298 82.8295C63.1435 83.1402 62.8575 83.5473 62.6719 84.0511C62.4863 84.5549 62.3935 85.0985 62.3935 85.6818C62.3935 86.2652 62.4863 86.8068 62.6719 87.3068C62.8575 87.8068 63.1435 88.2102 63.5298 88.517C63.9162 88.8239 64.4086 88.9773 65.0071 88.9773ZM72.3494 78.3636V90H71.0085V78.3636H72.3494Z"
              fill="white"/>
        <path d="M47.1112 19.6442C34.284 19.6442 23.8735 30.3729 23.8735 43.5922C23.8735 56.8116 34.284 67.5403 47.1112 67.5403C49.9877 67.5403 52.7329 66.9782 55.2762 65.9921V60.3512C55.2762 58.4318 56.7995 55.2048 58.662 55.2048V49.9708C58.662 47.3465 62.458 42.9047 67.1311 42.9047C68.2726 42.9047 69.3549 43.1415 70.3489 43.5641C70.334 30.3578 59.9293 19.6442 47.1112 19.6442V19.6442ZM51.7588 28.026L59.892 36.4078H54.0825V45.987H49.435V36.4078H43.6256L51.7588 28.026ZM40.1399 41.1974H44.7875V50.7766H50.5969L42.4637 59.1585L34.3305 50.7766H40.1399L40.1399 41.1974ZM67.7165 47.1377C64.3999 47.1377 61.7074 49.9125 61.7074 53.3305V57.0443C60.3856 57.0443 59.3065 58.1564 59.3065 59.5186V69.4299C59.3065 70.7922 60.3856 71.9042 61.7074 71.9042H73.7257C75.0475 71.9042 76.1266 70.7922 76.1266 69.4299V59.5186C76.1266 58.1564 75.0475 57.0443 73.7257 57.0443V53.3305C73.7257 49.9125 71.0332 47.1377 67.7165 47.1377ZM67.7165 49.612C69.7113 49.612 71.3202 51.2747 71.3202 53.3305V57.0443H64.1129V53.3305C64.1129 51.2747 65.7218 49.612 67.7165 49.612Z"
              fill="white"/>
    </g>
    <defs>
        <clipPath id="clip0_148_739">
            <rect width="100" height="100" fill="white"/>
        </clipPath>
    </defs>
</svg>
