<svg width="100" height="100" viewBox="0 0 100 100" fill="none" xmlns="http://www.w3.org/2000/svg">
    <g clip-path="url(#clip0_148_746)">
        <path d="M49.6711 2.64666C48.8337 2.69013 48.0131 2.90411 47.2577 3.27605L14.3249 19.4927C13.4725 19.9122 12.7236 20.5226 12.1337 21.2786C11.5438 22.0346 11.1281 22.9167 10.9175 23.8594L2.79274 60.2861C2.60513 61.1253 2.58413 61.9945 2.73099 62.8423C2.87786 63.69 3.1896 64.499 3.64776 65.2214C3.75885 65.398 3.87833 65.5689 4.00576 65.7336L26.8005 94.9417C27.3906 95.6975 28.1396 96.3077 28.992 96.7271C29.8444 97.1464 30.7782 97.364 31.7242 97.3638L68.2792 97.3551C69.2249 97.3558 70.1585 97.1389 71.0109 96.7203C71.8633 96.3018 72.6125 95.6924 73.2029 94.9374L95.9893 65.7249C96.5796 64.9687 96.9956 64.0863 97.2064 63.1432C97.4171 62.2001 97.4171 61.2205 97.2065 60.2774L89.0691 23.8507C88.8585 22.908 88.4429 22.0259 87.853 21.2699C87.2631 20.5139 86.5141 19.9035 85.6617 19.484L52.7247 3.27605C51.7745 2.80818 50.7245 2.59176 49.6711 2.64666Z"
              fill="#326CE5"/>
        <path d="M49.6534 0.00897171C48.7703 0.0566405 47.9055 0.283895 47.1094 0.677431L12.3402 17.7926C11.4404 18.2355 10.6498 18.8799 10.0271 19.6779C9.4044 20.476 8.96558 21.4072 8.74327 22.4023L0.167864 60.8561C-0.0307917 61.7425 -0.0533772 62.6606 0.101447 63.5561C0.256272 64.4515 0.585354 65.3061 1.0692 66.0692C1.18691 66.2548 1.31341 66.4344 1.44825 66.6074L25.5108 97.4434C26.1337 98.2411 26.9243 98.8852 27.8241 99.3278C28.7239 99.7704 29.7097 100 30.7083 100L69.2976 99.9913C70.2958 99.992 71.2814 99.7629 72.1812 99.3211C73.0809 98.8792 73.8718 98.236 74.4951 97.439L98.5492 66.5987C99.1718 65.8009 99.6106 64.8699 99.833 63.875C100.055 62.8801 100.056 61.8468 99.8339 60.8517L91.2458 22.3937C91.0229 21.3993 90.5839 20.4689 89.9612 19.6717C89.3385 18.8744 88.5482 18.2307 87.6489 17.7882L52.8797 0.673091C51.8757 0.178835 50.7663 -0.0495361 49.6534 0.00897171ZM49.6702 2.64808C50.7236 2.59319 51.7736 2.80961 52.7238 3.27748L85.6608 19.4854C86.5132 19.9049 87.2622 20.5154 87.8521 21.2713C88.442 22.0273 88.8577 22.9094 89.0683 23.8521L97.2057 60.2788C97.4163 61.2219 97.4162 62.2015 97.2055 63.1446C96.9948 64.0877 96.5788 64.9701 95.9884 65.7263L73.2021 94.9388C72.6116 95.6938 71.8624 96.3032 71.01 96.7218C70.1577 97.1403 69.224 97.3573 68.2784 97.3566L31.7234 97.3653C30.7774 97.3655 29.8435 97.1478 28.9911 96.7285C28.1387 96.3092 27.3897 95.699 26.7997 94.9432L4.00489 65.735C3.87746 65.5704 3.75798 65.3994 3.64689 65.2228C3.18873 64.5004 2.87699 63.6914 2.73013 62.8437C2.58327 61.996 2.60426 61.1268 2.79188 60.2875L10.9166 23.8608C11.1272 22.9181 11.5429 22.036 12.1328 21.2801C12.7227 20.5241 13.4717 19.9137 14.324 19.4942L47.2568 3.27752C48.0123 2.90558 48.8328 2.6916 49.6702 2.64812L49.6702 2.64808Z"
              fill="white"/>
        <path d="M43.5682 84.75V90H42.2273V81.2727H43.5227V82.6364H43.6364C43.8409 82.1932 44.1515 81.8371 44.5682 81.5682C44.9848 81.2955 45.5227 81.1591 46.1818 81.1591C46.7727 81.1591 47.2898 81.2803 47.733 81.5227C48.1761 81.7614 48.5208 82.125 48.767 82.6136C49.0133 83.0985 49.1364 83.7121 49.1364 84.4545V90H47.7955V84.5455C47.7955 83.8598 47.6174 83.3258 47.2614 82.9432C46.9053 82.5568 46.4167 82.3636 45.7955 82.3636C45.3674 82.3636 44.9848 82.4564 44.6477 82.642C44.3144 82.8277 44.0511 83.0985 43.858 83.4545C43.6648 83.8106 43.5682 84.2424 43.5682 84.75ZM57.7685 83.2273L56.5639 83.5682C56.4882 83.3674 56.3764 83.1723 56.2287 82.983C56.0848 82.7898 55.8878 82.6307 55.6378 82.5057C55.3878 82.3807 55.0677 82.3182 54.6776 82.3182C54.1435 82.3182 53.6984 82.4413 53.3423 82.6875C52.9901 82.9299 52.8139 83.2386 52.8139 83.6136C52.8139 83.947 52.9351 84.2102 53.1776 84.4034C53.42 84.5966 53.7988 84.7576 54.3139 84.8864L55.6094 85.2045C56.3897 85.3939 56.9711 85.6837 57.3537 86.0739C57.7363 86.4602 57.9276 86.9583 57.9276 87.5682C57.9276 88.0682 57.7836 88.5152 57.4957 88.9091C57.2116 89.303 56.8139 89.6136 56.3026 89.8409C55.7912 90.0682 55.1965 90.1818 54.5185 90.1818C53.6283 90.1818 52.8916 89.9886 52.3082 89.6023C51.7249 89.2159 51.3556 88.6515 51.2003 87.9091L52.473 87.5909C52.5942 88.0606 52.8234 88.4129 53.1605 88.6477C53.5014 88.8826 53.9465 89 54.4957 89C55.1207 89 55.617 88.8674 55.9844 88.6023C56.3556 88.3333 56.5412 88.0114 56.5412 87.6364C56.5412 87.3333 56.4351 87.0795 56.223 86.875C56.0109 86.6667 55.6851 86.5114 55.2457 86.4091L53.7912 86.0682C52.992 85.8788 52.4048 85.5852 52.0298 85.1875C51.6586 84.786 51.473 84.2841 51.473 83.6818C51.473 83.1894 51.6113 82.7538 51.8878 82.375C52.1681 81.9962 52.5488 81.6989 53.0298 81.483C53.5147 81.267 54.0639 81.1591 54.6776 81.1591C55.5412 81.1591 56.2192 81.3485 56.7116 81.7273C57.2079 82.1061 57.5601 82.6061 57.7685 83.2273Z"
              fill="white"/>
        <path d="M71.2737 29.6838H28.7262V67.912H71.2737V29.6838Z" stroke="white" stroke-width="0.4"
              stroke-miterlimit="10" stroke-linejoin="round" stroke-dasharray="0.8 0.4"/>
    </g>
    <defs>
        <clipPath id="clip0_148_746">
            <rect width="100" height="100" fill="white"/>
        </clipPath>
    </defs>
</svg>
