<svg width="100" height="100" viewBox="0 0 100 100" fill="none" xmlns="http://www.w3.org/2000/svg">
    <g clip-path="url(#clip0_148_763)">
        <path d="M49.671 2.64666C48.8336 2.69013 48.0131 2.90411 47.2576 3.27605L14.3248 19.4927C13.4725 19.9122 12.7235 20.5226 12.1336 21.2786C11.5437 22.0346 11.128 22.9167 10.9174 23.8594L2.79268 60.2861C2.60507 61.1253 2.58407 61.9945 2.73093 62.8423C2.8778 63.69 3.18954 64.499 3.6477 65.2214C3.75879 65.398 3.87827 65.5689 4.0057 65.7336L26.8005 94.9417C27.3905 95.6975 28.1395 96.3077 28.9919 96.7271C29.8443 97.1464 30.7782 97.364 31.7242 97.3638L68.2792 97.3551C69.2248 97.3558 70.1585 97.1389 71.0108 96.7203C71.8632 96.3018 72.6124 95.6924 73.2029 94.9374L95.9892 65.7249C96.5796 64.9687 96.9956 64.0863 97.2063 63.1432C97.417 62.2001 97.4171 61.2205 97.2065 60.2774L89.0691 23.8507C88.8585 22.908 88.4428 22.0259 87.8529 21.2699C87.263 20.5139 86.514 19.9035 85.6617 19.484L52.7247 3.27605C51.7744 2.80818 50.7244 2.59176 49.671 2.64666Z"
              fill="#326CE5"/>
        <path d="M49.6534 0.00897171C48.7703 0.0566405 47.9055 0.283895 47.1094 0.677431L12.3402 17.7926C11.4404 18.2355 10.6498 18.8799 10.0271 19.6779C9.4044 20.476 8.96558 21.4072 8.74327 22.4023L0.167864 60.8561C-0.0307917 61.7425 -0.0533772 62.6606 0.101447 63.5561C0.256272 64.4515 0.585354 65.3061 1.0692 66.0692C1.18691 66.2548 1.31341 66.4344 1.44825 66.6074L25.5108 97.4434C26.1337 98.2411 26.9243 98.8852 27.8241 99.3278C28.7239 99.7704 29.7097 100 30.7083 100L69.2976 99.9913C70.2958 99.992 71.2814 99.7629 72.1812 99.3211C73.0809 98.8792 73.8718 98.236 74.4951 97.439L98.5492 66.5987C99.1718 65.8009 99.6106 64.8699 99.833 63.875C100.055 62.8801 100.056 61.8468 99.8339 60.8517L91.2458 22.3937C91.0229 21.3993 90.5839 20.4689 89.9612 19.6717C89.3385 18.8744 88.5482 18.2307 87.6489 17.7882L52.8797 0.673091C51.8757 0.178835 50.7663 -0.0495361 49.6534 0.00897171ZM49.6702 2.64808C50.7236 2.59319 51.7736 2.80961 52.7238 3.27748L85.6608 19.4854C86.5132 19.9049 87.2622 20.5154 87.8521 21.2713C88.442 22.0273 88.8577 22.9094 89.0683 23.8521L97.2057 60.2788C97.4163 61.2219 97.4162 62.2015 97.2055 63.1446C96.9948 64.0877 96.5788 64.9701 95.9884 65.7263L73.2021 94.9388C72.6116 95.6938 71.8624 96.3032 71.01 96.7218C70.1577 97.1403 69.224 97.3573 68.2784 97.3566L31.7234 97.3653C30.7774 97.3655 29.8435 97.1478 28.9911 96.7285C28.1387 96.3092 27.3897 95.699 26.7997 94.9432L4.00489 65.735C3.87746 65.5704 3.75798 65.3994 3.64689 65.2228C3.18873 64.5004 2.87699 63.6914 2.73013 62.8437C2.58327 61.996 2.60426 61.1268 2.79188 60.2875L10.9166 23.8608C11.1272 22.9181 11.5429 22.036 12.1328 21.2801C12.7227 20.5241 13.4717 19.9137 14.324 19.4942L47.2568 3.27752C48.0123 2.90558 48.8328 2.6916 49.6702 2.64812L49.6702 2.64808Z"
              fill="white"/>
        <path d="M37.2273 93.2727V81.2727H38.5227V82.6591H38.6818C38.7803 82.5076 38.9167 82.3144 39.0909 82.0795C39.2689 81.8409 39.5227 81.6288 39.8523 81.4432C40.1856 81.2538 40.6364 81.1591 41.2045 81.1591C41.9394 81.1591 42.5871 81.3428 43.1477 81.7102C43.7083 82.0777 44.1458 82.5985 44.4602 83.2727C44.7746 83.947 44.9318 84.7424 44.9318 85.6591C44.9318 86.5833 44.7746 87.3845 44.4602 88.0625C44.1458 88.7367 43.7102 89.2595 43.1534 89.6307C42.5966 89.9981 41.9545 90.1818 41.2273 90.1818C40.6667 90.1818 40.2178 90.089 39.8807 89.9034C39.5436 89.714 39.2841 89.5 39.1023 89.2614C38.9205 89.0189 38.7803 88.8182 38.6818 88.6591H38.5682V93.2727H37.2273ZM38.5455 85.6364C38.5455 86.2955 38.642 86.8769 38.8352 87.3807C39.0284 87.8807 39.3106 88.2727 39.6818 88.5568C40.053 88.8371 40.5076 88.9773 41.0455 88.9773C41.6061 88.9773 42.0739 88.8295 42.4489 88.5341C42.8277 88.2348 43.1117 87.8333 43.3011 87.3295C43.4943 86.822 43.5909 86.2576 43.5909 85.6364C43.5909 85.0227 43.4962 84.4697 43.3068 83.9773C43.1212 83.4811 42.839 83.089 42.4602 82.8011C42.0852 82.5095 41.6136 82.3636 41.0455 82.3636C40.5 82.3636 40.0417 82.5019 39.6705 82.7784C39.2992 83.0511 39.0189 83.4337 38.8295 83.9261C38.6402 84.4148 38.5455 84.9848 38.5455 85.6364ZM53.1591 83.2273L51.9545 83.5682C51.8788 83.3674 51.767 83.1723 51.6193 82.983C51.4754 82.7898 51.2784 82.6307 51.0284 82.5057C50.7784 82.3807 50.4583 82.3182 50.0682 82.3182C49.5341 82.3182 49.089 82.4413 48.733 82.6875C48.3807 82.9299 48.2045 83.2386 48.2045 83.6136C48.2045 83.947 48.3258 84.2102 48.5682 84.4034C48.8106 84.5966 49.1894 84.7576 49.7045 84.8864L51 85.2045C51.7803 85.3939 52.3617 85.6837 52.7443 86.0739C53.1269 86.4602 53.3182 86.9583 53.3182 87.5682C53.3182 88.0682 53.1742 88.5152 52.8864 88.9091C52.6023 89.303 52.2045 89.6136 51.6932 89.8409C51.1818 90.0682 50.5871 90.1818 49.9091 90.1818C49.0189 90.1818 48.2822 89.9886 47.6989 89.6023C47.1155 89.2159 46.7462 88.6515 46.5909 87.9091L47.8636 87.5909C47.9848 88.0606 48.214 88.4129 48.5511 88.6477C48.892 88.8826 49.3371 89 49.8864 89C50.5114 89 51.0076 88.8674 51.375 88.6023C51.7462 88.3333 51.9318 88.0114 51.9318 87.6364C51.9318 87.3333 51.8258 87.0795 51.6136 86.875C51.4015 86.6667 51.0758 86.5114 50.6364 86.4091L49.1818 86.0682C48.3826 85.8788 47.7955 85.5852 47.4205 85.1875C47.0492 84.786 46.8636 84.2841 46.8636 83.6818C46.8636 83.1894 47.0019 82.7538 47.2784 82.375C47.5587 81.9962 47.9394 81.6989 48.4205 81.483C48.9053 81.267 49.4545 81.1591 50.0682 81.1591C50.9318 81.1591 51.6098 81.3485 52.1023 81.7273C52.5985 82.1061 52.9508 82.6061 53.1591 83.2273ZM55.3366 93.2727V81.2727H56.6321V82.6591H56.7912C56.8897 82.5076 57.026 82.3144 57.2003 82.0795C57.3783 81.8409 57.6321 81.6288 57.9616 81.4432C58.295 81.2538 58.7457 81.1591 59.3139 81.1591C60.0488 81.1591 60.6965 81.3428 61.2571 81.7102C61.8177 82.0777 62.2552 82.5985 62.5696 83.2727C62.884 83.947 63.0412 84.7424 63.0412 85.6591C63.0412 86.5833 62.884 87.3845 62.5696 88.0625C62.2552 88.7367 61.8196 89.2595 61.2628 89.6307C60.706 89.9981 60.0639 90.1818 59.3366 90.1818C58.776 90.1818 58.3272 90.089 57.9901 89.9034C57.6529 89.714 57.3935 89.5 57.2116 89.2614C57.0298 89.0189 56.8897 88.8182 56.7912 88.6591H56.6776V93.2727H55.3366ZM56.6548 85.6364C56.6548 86.2955 56.7514 86.8769 56.9446 87.3807C57.1378 87.8807 57.42 88.2727 57.7912 88.5568C58.1624 88.8371 58.617 88.9773 59.1548 88.9773C59.7154 88.9773 60.1832 88.8295 60.5582 88.5341C60.937 88.2348 61.2211 87.8333 61.4105 87.3295C61.6037 86.822 61.7003 86.2576 61.7003 85.6364C61.7003 85.0227 61.6056 84.4697 61.4162 83.9773C61.2306 83.4811 60.9484 83.089 60.5696 82.8011C60.1946 82.5095 59.723 82.3636 59.1548 82.3636C58.6094 82.3636 58.151 82.5019 57.7798 82.7784C57.4086 83.0511 57.1283 83.4337 56.9389 83.9261C56.7495 84.4148 56.6548 84.9848 56.6548 85.6364Z"
              fill="white"/>
        <path fill-rule="evenodd" clip-rule="evenodd"
              d="M43.8882 16.7177L22.8798 22.9951L43.8882 29.2765L50.1301 27.4096C52.9827 24.6835 56.7817 22.9951 60.9414 22.9951C61.9514 22.9951 62.9365 23.1051 63.8963 23.2936L64.8967 22.9951L43.8882 16.7177Z"
              fill="white"/>
        <path fill-rule="evenodd" clip-rule="evenodd"
              d="M22.8798 25.3994V48.4353L40.3656 58.4147V51.3411C40.3656 49.1991 41.2124 47.4371 42.5016 46.0111L42.5511 31.4301L22.8798 25.3994Z"
              fill="white"/>
        <path fill-rule="evenodd" clip-rule="evenodd"
              d="M47.442 30.7494L45.2249 31.4301L45.2446 36.5929C45.6091 34.4809 46.3678 32.5073 47.4422 30.7494H47.442ZM60.9416 36.8477C59.4809 36.8477 58.4232 37.9377 58.4232 39.4431V42.0345H63.4561V39.4431C63.4561 37.9378 62.4021 36.8477 60.9416 36.8477Z"
              fill="white"/>
        <path d="M60.9552 26.449C54.5837 26.449 49.409 31.782 49.409 38.3482V45.4877C46.8696 45.4877 44.7905 47.6304 44.7905 50.2474V69.2861C44.7905 71.9031 46.8696 74.0244 49.409 74.0244H72.5015C75.0409 74.0244 77.12 71.9031 77.12 69.2861V50.2474C77.12 47.6304 75.0409 45.4877 72.5015 45.4877V38.3482C72.5015 31.782 67.3266 26.449 60.9552 26.449ZM60.9552 31.2087C64.7873 31.2087 67.883 34.3989 67.883 38.3482V45.4877H54.0275V38.3482C54.0275 34.3989 57.1231 31.2087 60.9552 31.2087Z"
              fill="white"/>
    </g>
    <defs>
        <clipPath id="clip0_148_763">
            <rect width="100" height="100" fill="white"/>
        </clipPath>
    </defs>
</svg>
