<svg width="100" height="100" viewBox="0 0 100 100" fill="none" xmlns="http://www.w3.org/2000/svg">
    <g clip-path="url(#clip0_148_784)">
        <path d="M49.6711 2.64666C48.8337 2.69013 48.0131 2.90411 47.2577 3.27605L14.3249 19.4927C13.4725 19.9122 12.7236 20.5226 12.1337 21.2786C11.5438 22.0346 11.1281 22.9167 10.9175 23.8594L2.79274 60.2861C2.60513 61.1253 2.58413 61.9945 2.73099 62.8423C2.87786 63.69 3.1896 64.499 3.64776 65.2214C3.75885 65.398 3.87833 65.5689 4.00576 65.7336L26.8005 94.9417C27.3906 95.6975 28.1396 96.3077 28.992 96.7271C29.8444 97.1464 30.7782 97.364 31.7242 97.3638L68.2792 97.3551C69.2249 97.3558 70.1585 97.1389 71.0109 96.7203C71.8633 96.3018 72.6125 95.6924 73.2029 94.9374L95.9893 65.7249C96.5796 64.9687 96.9956 64.0863 97.2064 63.1432C97.4171 62.2001 97.4171 61.2205 97.2065 60.2774L89.0691 23.8507C88.8585 22.908 88.4429 22.0259 87.853 21.2699C87.2631 20.5139 86.5141 19.9035 85.6617 19.484L52.7247 3.27605C51.7745 2.80818 50.7245 2.59176 49.6711 2.64666Z"
              fill="#326CE5"/>
        <path d="M49.6534 0.00897171C48.7703 0.0566405 47.9055 0.283895 47.1094 0.677431L12.3402 17.7926C11.4404 18.2355 10.6498 18.8799 10.0271 19.6779C9.4044 20.476 8.96558 21.4072 8.74327 22.4023L0.167864 60.8561C-0.0307917 61.7425 -0.0533772 62.6606 0.101447 63.5561C0.256272 64.4515 0.585354 65.3061 1.0692 66.0692C1.18691 66.2548 1.31341 66.4344 1.44825 66.6074L25.5108 97.4434C26.1337 98.2411 26.9243 98.8852 27.8241 99.3278C28.7239 99.7704 29.7097 100 30.7083 100L69.2976 99.9913C70.2958 99.992 71.2814 99.7629 72.1812 99.3211C73.0809 98.8792 73.8718 98.236 74.4951 97.439L98.5492 66.5987C99.1718 65.8009 99.6106 64.8699 99.833 63.875C100.055 62.8801 100.056 61.8468 99.8339 60.8517L91.2458 22.3937C91.0229 21.3993 90.5839 20.4689 89.9612 19.6717C89.3385 18.8744 88.5482 18.2307 87.6489 17.7882L52.8797 0.673091C51.8757 0.178835 50.7663 -0.0495361 49.6534 0.00897171ZM49.6702 2.64808C50.7236 2.59319 51.7736 2.80961 52.7238 3.27748L85.6608 19.4854C86.5132 19.9049 87.2622 20.5154 87.8521 21.2713C88.442 22.0273 88.8577 22.9094 89.0683 23.8521L97.2057 60.2788C97.4163 61.2219 97.4162 62.2015 97.2055 63.1446C96.9948 64.0877 96.5788 64.9701 95.9884 65.7263L73.2021 94.9388C72.6116 95.6938 71.8624 96.3032 71.01 96.7218C70.1577 97.1403 69.224 97.3573 68.2784 97.3566L31.7234 97.3653C30.7774 97.3655 29.8435 97.1478 28.9911 96.7285C28.1387 96.3092 27.3897 95.699 26.7997 94.9432L4.00489 65.735C3.87746 65.5704 3.75798 65.3994 3.64689 65.2228C3.18873 64.5004 2.87699 63.6914 2.73013 62.8437C2.58327 61.996 2.60426 61.1268 2.79188 60.2875L10.9166 23.8608C11.1272 22.9181 11.5429 22.036 12.1328 21.2801C12.7227 20.5241 13.4717 19.9137 14.324 19.4942L47.2568 3.27752C48.0123 2.90558 48.8328 2.6916 49.6702 2.64812L49.6702 2.64808Z"
              fill="white"/>
        <path d="M38.2273 91.2727V79.2727H39.5227V80.6591H39.6818C39.7803 80.5076 39.9167 80.3144 40.0909 80.0795C40.2689 79.8409 40.5227 79.6288 40.8523 79.4432C41.1856 79.2538 41.6364 79.1591 42.2045 79.1591C42.9394 79.1591 43.5871 79.3428 44.1477 79.7102C44.7083 80.0777 45.1458 80.5985 45.4602 81.2727C45.7746 81.947 45.9318 82.7424 45.9318 83.6591C45.9318 84.5833 45.7746 85.3845 45.4602 86.0625C45.1458 86.7367 44.7102 87.2595 44.1534 87.6307C43.5966 87.9981 42.9545 88.1818 42.2273 88.1818C41.6667 88.1818 41.2178 88.089 40.8807 87.9034C40.5436 87.714 40.2841 87.5 40.1023 87.2614C39.9205 87.0189 39.7803 86.8182 39.6818 86.6591H39.5682V91.2727H38.2273ZM39.5455 83.6364C39.5455 84.2955 39.642 84.8769 39.8352 85.3807C40.0284 85.8807 40.3106 86.2727 40.6818 86.5568C41.053 86.8371 41.5076 86.9773 42.0455 86.9773C42.6061 86.9773 43.0739 86.8295 43.4489 86.5341C43.8277 86.2348 44.1117 85.8333 44.3011 85.3295C44.4943 84.822 44.5909 84.2576 44.5909 83.6364C44.5909 83.0227 44.4962 82.4697 44.3068 81.9773C44.1212 81.4811 43.839 81.089 43.4602 80.8011C43.0852 80.5095 42.6136 80.3636 42.0455 80.3636C41.5 80.3636 41.0417 80.5019 40.6705 80.7784C40.2992 81.0511 40.0189 81.4337 39.8295 81.9261C39.6402 82.4148 39.5455 82.9848 39.5455 83.6364ZM54.8011 79.2727L51.5739 88H50.2102L46.983 79.2727H48.4375L50.8466 86.2273H50.9375L53.3466 79.2727H54.8011ZM59.804 88.1818C58.9858 88.1818 58.2813 87.9886 57.6903 87.6023C57.0994 87.2159 56.6449 86.6837 56.3267 86.0057C56.0085 85.3277 55.8494 84.553 55.8494 83.6818C55.8494 82.7955 56.0123 82.0133 56.3381 81.3352C56.6676 80.6534 57.1259 80.1212 57.7131 79.7386C58.304 79.3523 58.9934 79.1591 59.7812 79.1591C60.3949 79.1591 60.9479 79.2727 61.4403 79.5C61.9328 79.7273 62.3362 80.0455 62.6506 80.4545C62.965 80.8636 63.16 81.3409 63.2358 81.8864H61.8949C61.7926 81.4886 61.5653 81.1364 61.2131 80.8295C60.8646 80.5189 60.3949 80.3636 59.804 80.3636C59.2813 80.3636 58.8229 80.5 58.429 80.7727C58.0388 81.0417 57.7339 81.4223 57.5142 81.9148C57.2983 82.4034 57.1903 82.9773 57.1903 83.6364C57.1903 84.3106 57.2964 84.8977 57.5085 85.3977C57.7244 85.8977 58.0275 86.286 58.4176 86.5625C58.8116 86.839 59.2737 86.9773 59.804 86.9773C60.1525 86.9773 60.4688 86.9167 60.7528 86.7955C61.0369 86.6742 61.2775 86.5 61.4744 86.2727C61.6714 86.0455 61.8116 85.7727 61.8949 85.4545H63.2358C63.16 85.9697 62.9725 86.4337 62.6733 86.8466C62.3778 87.2557 61.9858 87.5814 61.4972 87.8239C61.0123 88.0625 60.4479 88.1818 59.804 88.1818Z"
              fill="white"/>
        <path d="M75.6672 39.4417C75.6672 42.9909 64.1756 45.8681 50 45.8681C35.8244 45.8681 24.3328 42.9909 24.3328 39.4417C24.3328 35.8926 35.8244 33.0154 50 33.0154C64.1756 33.0154 75.6672 35.8926 75.6672 39.4417ZM75.6672 39.4417V56.8265C75.6672 60.3756 64.1756 63.2528 50 63.2528C35.8244 63.2528 24.3328 60.3756 24.3328 56.8265V39.4417"
              stroke="white" stroke-width="0.529167" stroke-miterlimit="10" stroke-linejoin="round"
              stroke-dasharray="2.12 0.53"/>
    </g>
    <defs>
        <clipPath id="clip0_148_784">
            <rect width="100" height="100" fill="white"/>
        </clipPath>
    </defs>
</svg>
