<svg width="100" height="100" viewBox="0 0 100 100" fill="none" xmlns="http://www.w3.org/2000/svg">
    <g clip-path="url(#clip0_148_791)">
        <path d="M49.6711 2.64666C48.8337 2.69013 48.0131 2.90411 47.2577 3.27605L14.3249 19.4927C13.4725 19.9122 12.7236 20.5226 12.1337 21.2786C11.5438 22.0346 11.1281 22.9167 10.9175 23.8594L2.79274 60.2861C2.60513 61.1253 2.58413 61.9945 2.73099 62.8423C2.87786 63.69 3.1896 64.499 3.64776 65.2214C3.75885 65.398 3.87833 65.5689 4.00576 65.7336L26.8005 94.9417C27.3906 95.6975 28.1396 96.3077 28.992 96.7271C29.8444 97.1464 30.7782 97.364 31.7242 97.3638L68.2792 97.3551C69.2249 97.3558 70.1585 97.1389 71.0109 96.7203C71.8633 96.3018 72.6125 95.6924 73.2029 94.9374L95.9893 65.7249C96.5796 64.9687 96.9956 64.0863 97.2064 63.1432C97.4171 62.2001 97.4171 61.2205 97.2065 60.2774L89.0691 23.8507C88.8585 22.908 88.4429 22.0259 87.853 21.2699C87.2631 20.5139 86.5141 19.9035 85.6617 19.484L52.7247 3.27605C51.7745 2.80818 50.7245 2.59176 49.6711 2.64666Z"
              fill="#326CE5"/>
        <path d="M49.6534 0.00897171C48.7703 0.0566405 47.9055 0.283895 47.1094 0.677431L12.3402 17.7926C11.4404 18.2355 10.6498 18.8799 10.0271 19.6779C9.4044 20.476 8.96558 21.4072 8.74327 22.4023L0.167864 60.8561C-0.0307917 61.7425 -0.0533772 62.6606 0.101447 63.5561C0.256272 64.4515 0.585354 65.3061 1.0692 66.0692C1.18691 66.2548 1.31341 66.4344 1.44825 66.6074L25.5108 97.4434C26.1337 98.2411 26.9243 98.8852 27.8241 99.3278C28.7239 99.7704 29.7097 100 30.7083 100L69.2976 99.9913C70.2958 99.992 71.2814 99.7629 72.1812 99.3211C73.0809 98.8792 73.8718 98.236 74.4951 97.439L98.5492 66.5987C99.1718 65.8009 99.6106 64.8699 99.833 63.875C100.055 62.8801 100.056 61.8468 99.8339 60.8517L91.2458 22.3937C91.0229 21.3993 90.5839 20.4689 89.9612 19.6717C89.3385 18.8744 88.5482 18.2307 87.6489 17.7882L52.8797 0.673091C51.8757 0.178835 50.7663 -0.0495361 49.6534 0.00897171ZM49.6702 2.64808C50.7236 2.59319 51.7736 2.80961 52.7238 3.27748L85.6608 19.4854C86.5132 19.9049 87.2622 20.5154 87.8521 21.2713C88.442 22.0273 88.8577 22.9094 89.0683 23.8521L97.2057 60.2788C97.4163 61.2219 97.4162 62.2015 97.2055 63.1446C96.9948 64.0877 96.5788 64.9701 95.9884 65.7263L73.2021 94.9388C72.6116 95.6938 71.8624 96.3032 71.01 96.7218C70.1577 97.1403 69.224 97.3573 68.2784 97.3566L31.7234 97.3653C30.7774 97.3655 29.8435 97.1478 28.9911 96.7285C28.1387 96.3092 27.3897 95.699 26.7997 94.9432L4.00489 65.735C3.87746 65.5704 3.75798 65.3994 3.64689 65.2228C3.18873 64.5004 2.87699 63.6914 2.73013 62.8437C2.58327 61.996 2.60426 61.1268 2.79188 60.2875L10.9166 23.8608C11.1272 22.9181 11.5429 22.036 12.1328 21.2801C12.7227 20.5241 13.4717 19.9137 14.324 19.4942L47.2568 3.27752C48.0123 2.90558 48.8328 2.6916 49.6702 2.64812L49.6702 2.64808Z"
              fill="white"/>
        <path d="M35.1818 94.2727V89.6591H35.0682C34.9697 89.8182 34.8295 90.0189 34.6477 90.2614C34.4659 90.5 34.2064 90.714 33.8693 90.9034C33.5322 91.089 33.0833 91.1818 32.5227 91.1818C31.7955 91.1818 31.1534 90.9981 30.5966 90.6307C30.0398 90.2595 29.6042 89.7367 29.2898 89.0625C28.9754 88.3845 28.8182 87.5833 28.8182 86.6591C28.8182 85.7424 28.9754 84.947 29.2898 84.2727C29.6042 83.5985 30.0417 83.0777 30.6023 82.7102C31.1629 82.3428 31.8106 82.1591 32.5455 82.1591C33.1136 82.1591 33.5625 82.2538 33.892 82.4432C34.2254 82.6288 34.4792 82.8409 34.6534 83.0795C34.8314 83.3144 34.9697 83.5076 35.0682 83.6591H35.2273V82.2727H36.5227V94.2727H35.1818ZM32.7045 89.9773C33.2424 89.9773 33.697 89.8371 34.0682 89.5568C34.4394 89.2727 34.7216 88.8807 34.9148 88.3807C35.108 87.8769 35.2045 87.2955 35.2045 86.6364C35.2045 85.9848 35.1098 85.4148 34.9205 84.9261C34.7311 84.4337 34.4508 84.0511 34.0795 83.7784C33.7083 83.5019 33.25 83.3636 32.7045 83.3636C32.1364 83.3636 31.6629 83.5095 31.2841 83.8011C30.9091 84.089 30.6269 84.4811 30.4375 84.9773C30.2519 85.4697 30.1591 86.0227 30.1591 86.6364C30.1591 87.2576 30.2538 87.822 30.4432 88.3295C30.6364 88.8333 30.9205 89.2348 31.2955 89.5341C31.6742 89.8295 32.1439 89.9773 32.7045 89.9773ZM44.4773 87.4318V82.2727H45.8182V91H44.4773V89.5227H44.3864C44.1818 89.9659 43.8636 90.3428 43.4318 90.6534C43 90.9602 42.4545 91.1136 41.7955 91.1136C41.25 91.1136 40.7652 90.9943 40.3409 90.7557C39.9167 90.5133 39.5833 90.1496 39.3409 89.6648C39.0985 89.1761 38.9773 88.5606 38.9773 87.8182V82.2727H40.3182V87.7273C40.3182 88.3636 40.4962 88.8712 40.8523 89.25C41.2121 89.6288 41.6705 89.8182 42.2273 89.8182C42.5606 89.8182 42.8996 89.733 43.2443 89.5625C43.5928 89.392 43.8845 89.1307 44.1193 88.7784C44.358 88.4261 44.4773 87.9773 44.4773 87.4318ZM51.8196 91.1818C51.0317 91.1818 50.3404 90.9943 49.7457 90.6193C49.1548 90.2443 48.6927 89.7197 48.3594 89.0455C48.0298 88.3712 47.8651 87.5833 47.8651 86.6818C47.8651 85.7727 48.0298 84.9792 48.3594 84.3011C48.6927 83.6231 49.1548 83.0966 49.7457 82.7216C50.3404 82.3466 51.0317 82.1591 51.8196 82.1591C52.6075 82.1591 53.2969 82.3466 53.8878 82.7216C54.4825 83.0966 54.9446 83.6231 55.2741 84.3011C55.6075 84.9792 55.7741 85.7727 55.7741 86.6818C55.7741 87.5833 55.6075 88.3712 55.2741 89.0455C54.9446 89.7197 54.4825 90.2443 53.8878 90.6193C53.2969 90.9943 52.6075 91.1818 51.8196 91.1818ZM51.8196 89.9773C52.4181 89.9773 52.9105 89.8239 53.2969 89.517C53.6832 89.2102 53.9692 88.8068 54.1548 88.3068C54.3404 87.8068 54.4332 87.2652 54.4332 86.6818C54.4332 86.0985 54.3404 85.5549 54.1548 85.0511C53.9692 84.5473 53.6832 84.1402 53.2969 83.8295C52.9105 83.5189 52.4181 83.3636 51.8196 83.3636C51.2211 83.3636 50.7287 83.5189 50.3423 83.8295C49.956 84.1402 49.67 84.5473 49.4844 85.0511C49.2988 85.5549 49.206 86.0985 49.206 86.6818C49.206 87.2652 49.2988 87.8068 49.4844 88.3068C49.67 88.8068 49.956 89.2102 50.3423 89.517C50.7287 89.8239 51.2211 89.9773 51.8196 89.9773ZM61.6165 82.2727V83.4091H57.0938V82.2727H61.6165ZM58.4119 80.1818H59.7528V88.5C59.7528 88.8788 59.8078 89.1629 59.9176 89.3523C60.0313 89.5379 60.1752 89.6629 60.3494 89.7273C60.5275 89.7879 60.715 89.8182 60.9119 89.8182C61.0597 89.8182 61.1809 89.8106 61.2756 89.7955C61.3703 89.7765 61.446 89.7614 61.5028 89.75L61.7756 90.9545C61.6847 90.9886 61.5578 91.0227 61.3949 91.0568C61.232 91.0947 61.0256 91.1136 60.7756 91.1136C60.3968 91.1136 60.0256 91.0322 59.6619 90.8693C59.3021 90.7064 59.0028 90.4583 58.7642 90.125C58.5294 89.7917 58.4119 89.3712 58.4119 88.8636V80.1818ZM66.2017 91.2045C65.6487 91.2045 65.1468 91.1004 64.696 90.892C64.2453 90.6799 63.8873 90.375 63.6222 89.9773C63.357 89.5758 63.2244 89.0909 63.2244 88.5227C63.2244 88.0227 63.3229 87.6174 63.5199 87.3068C63.7169 86.9924 63.9801 86.7462 64.3097 86.5682C64.6392 86.3902 65.0028 86.2576 65.4006 86.1705C65.8021 86.0795 66.2055 86.0076 66.6108 85.9545C67.1411 85.8864 67.571 85.8352 67.9006 85.8011C68.2339 85.7633 68.4763 85.7008 68.6278 85.6136C68.7831 85.5265 68.8608 85.375 68.8608 85.1591V85.1136C68.8608 84.553 68.7074 84.1174 68.4006 83.8068C68.0975 83.4962 67.6373 83.3409 67.0199 83.3409C66.3797 83.3409 65.8778 83.4811 65.5142 83.7614C65.1506 84.0417 64.8949 84.3409 64.7472 84.6591L63.4744 84.2045C63.7017 83.6742 64.0047 83.2614 64.3835 82.9659C64.7661 82.6667 65.1828 82.4583 65.6335 82.3409C66.0881 82.2197 66.535 82.1591 66.9744 82.1591C67.2547 82.1591 67.5767 82.1932 67.9403 82.2614C68.3078 82.3258 68.6619 82.4602 69.0028 82.6648C69.3475 82.8693 69.6335 83.178 69.8608 83.5909C70.0881 84.0038 70.2017 84.5568 70.2017 85.25V91H68.8608V89.8182H68.7926C68.7017 90.0076 68.5502 90.2102 68.3381 90.4261C68.1259 90.642 67.8438 90.8258 67.4915 90.9773C67.1392 91.1288 66.7093 91.2045 66.2017 91.2045ZM66.4062 90C66.9366 90 67.3835 89.8958 67.7472 89.6875C68.1146 89.4792 68.3911 89.2102 68.5767 88.8807C68.7661 88.5511 68.8608 88.2045 68.8608 87.8409V86.6136C68.804 86.6818 68.679 86.7443 68.4858 86.8011C68.2964 86.8542 68.0767 86.9015 67.8267 86.9432C67.5805 86.9811 67.34 87.0152 67.1051 87.0455C66.8741 87.072 66.6866 87.0947 66.5426 87.1136C66.1941 87.1591 65.8684 87.233 65.5653 87.3352C65.2661 87.4337 65.0237 87.5833 64.8381 87.7841C64.6563 87.9811 64.5653 88.25 64.5653 88.5909C64.5653 89.0568 64.7377 89.4091 65.0824 89.6477C65.4309 89.8826 65.8722 90 66.4062 90Z"
              fill="white"/>
        <path d="M38.0914 11.6817C38.0429 11.6817 36.3426 12.3381 34.3128 13.14C32.2829 13.9418 30.5428 14.6268 30.446 14.6625C30.3492 14.6985 30.2697 14.7652 30.2697 14.8104C30.2697 14.8555 30.6748 15.9807 31.1698 17.3106C31.6649 18.6404 32.0614 19.7756 32.0501 19.8342C32.0363 19.9063 31.5894 20.1144 30.6708 20.4761C29.9232 20.7703 29.3199 21.0409 29.331 21.0771C29.3607 21.1739 38.5334 25.3941 38.6776 25.3774C38.7745 25.366 39.231 24.3675 40.8689 20.5842C42.0068 17.9559 42.9375 15.7656 42.9375 15.7166C42.9375 15.6674 42.9132 15.6372 42.884 15.6493C41.7648 16.1125 40.1707 16.7007 40.1055 16.6748C40.0574 16.6548 39.6041 15.525 39.0984 14.1614C38.5043 12.5595 38.1483 11.6816 38.0914 11.6816L38.0914 11.6817ZM50.0135 24.3417C37.7701 24.3417 26.9661 32.3897 23.1066 44.3849C21.6937 48.776 21.3337 53.7079 22.0867 58.3624C23.1433 64.8942 26.3812 70.894 31.2619 75.3656C31.5433 75.6234 31.7877 75.835 31.8056 75.835C31.8234 75.835 33.1251 74.5066 34.698 72.8838C36.3027 71.2281 37.5876 69.8501 37.626 69.7438C37.7942 69.2776 37.4195 68.4314 36.7328 67.7253C36.0245 66.997 35.2677 66.6366 34.7881 66.7997C34.6614 66.8426 34.0962 67.3742 33.2453 68.2519C32.5069 69.0135 31.8546 69.6367 31.7957 69.6367C31.671 69.6367 30.962 68.744 30.2252 67.659C28.5364 65.1721 27.3071 62.3576 26.5891 59.3319C26.3548 58.3442 26.0471 56.4744 26.096 56.3347C26.1182 56.2711 26.5916 56.252 28.1675 56.252C30.3824 56.252 30.5071 56.236 30.7688 55.8928C31.0402 55.5373 31.1821 55.0108 31.2144 54.2407C31.2488 53.4202 31.1459 52.8617 30.8728 52.3814C30.5991 51.9 30.6071 51.9008 28.2418 51.8997C27.0877 51.8992 26.1022 51.8717 26.0515 51.8385C25.9715 51.7865 25.974 51.6419 26.0693 50.7415C26.476 46.9009 27.8534 42.973 29.9063 39.802C30.3815 39.0681 31.2366 37.9233 31.3094 37.9233C31.3492 37.9233 32.1378 38.6988 33.0621 39.6469L34.7425 41.3705L35.0881 41.3339C36.0613 41.2304 37.336 40.0281 37.6072 38.9572C37.6547 38.7694 37.6755 38.5272 37.6537 38.4184C37.6247 38.2736 37.1676 37.7573 35.9466 36.4927C34.4345 34.9268 34.2878 34.755 34.3702 34.6518C34.6587 34.2902 36.4219 32.9653 37.5784 32.2414C40.4574 30.4394 44.3541 29.0829 47.328 28.8473L47.8578 28.8056L47.8766 31.3589L47.8955 33.9111L48.1608 34.1662C48.9237 34.8993 50.9989 34.9231 51.8018 34.2079L52.0543 33.9824L52.0859 31.42L52.1187 28.8575L52.6306 28.8672C53.2593 28.8809 54.7692 29.1463 55.925 29.4478C59.2447 30.3137 62.3719 31.921 65.0379 34.1308C65.3741 34.4094 65.6499 34.687 65.6499 34.7472C65.6499 34.8074 64.9082 35.6211 64.0022 36.5555L62.3544 38.2535L62.3585 38.6321C62.3696 39.7663 63.8658 41.3099 64.9588 41.316L65.3281 41.3199L66.9768 39.6218C67.8835 38.688 68.6566 37.9237 68.6949 37.9237C68.7331 37.9237 69.0003 38.2492 69.289 38.6473C71.509 41.708 73.073 45.4209 73.7053 49.1327C73.923 50.4109 74.0463 51.7032 73.9607 51.8094C73.9 51.8848 73.4968 51.9012 71.7249 51.9012H69.5622L69.375 52.0635C68.9639 52.4201 68.6635 53.5457 68.7522 54.3994C68.8241 55.0915 69.0171 55.6394 69.2968 55.9485L69.5424 56.22L71.7228 56.2394C73.8834 56.2582 73.9023 56.2594 73.9023 56.3955C73.9023 56.7006 73.6912 57.9941 73.4844 58.9569C72.8162 62.0671 71.4495 65.2422 69.681 67.7912C68.9319 68.871 68.3199 69.6372 68.2076 69.6372C68.1544 69.6372 67.5075 69.0139 66.7688 68.2514C65.2542 66.6879 65.1986 66.6513 64.6161 66.8258C63.576 67.1374 62.4391 68.4308 62.3406 69.4137L62.3051 69.7638L64.8331 72.4201C68.0663 75.8174 68.109 75.8593 68.2593 75.7764C68.5002 75.6435 70.0869 74.0879 70.7754 73.3099C72.6909 71.1453 74.1209 69.0064 75.3452 66.4728C78.3625 60.2284 79.0941 53.0851 77.4157 46.252C76.0396 40.65 72.935 35.4481 68.6563 31.5756C63.4986 26.9076 56.886 24.3424 50.0136 24.3424L50.0135 24.3417ZM44.6654 36.3823C43.5409 36.3904 42.2756 37.0555 41.9116 37.8304C41.7879 38.0938 41.7788 38.1651 41.8423 38.3835C41.8824 38.5213 43.038 41.61 44.4109 45.2472L46.9072 51.8599L46.6805 52.3344C45.9534 53.8509 46.2236 55.5577 47.3806 56.75C48.3996 57.8002 49.8616 58.1555 51.1978 57.6766C51.4559 57.5841 51.8634 57.3696 52.1029 57.2011C53.8836 55.9472 54.2405 53.3564 52.8703 51.6323C52.4182 51.0635 51.9355 50.7298 50.9958 50.3363C50.8511 50.2757 50.5566 49.533 48.3163 43.5848C46.9319 39.909 45.7594 36.8356 45.7111 36.7548C45.548 36.482 45.2566 36.3781 44.6654 36.3823L44.6654 36.3823Z"
              fill="white"/>
        <path d="M30.9286 74.9387C29.8285 73.9732 27.6178 71.3 26.498 69.5811C24.5728 66.6262 22.9682 62.5417 22.2332 58.725C21.7111 56.0141 21.7574 50.5537 22.3257 47.8088C24.6248 36.7047 32.492 28.1572 42.972 25.3769C50.8154 23.2962 58.9596 24.7441 65.814 29.438C67.895 30.863 71.4715 34.4309 72.8505 36.4574C78.2045 44.3259 79.6047 53.8359 76.7211 62.7468C75.3865 66.8709 73.2842 70.4059 70.2098 73.6953L68.2532 75.7888L65.3546 72.8066C63.6586 71.0616 62.456 69.666 62.456 69.4425C62.456 68.495 63.9963 66.8964 64.9093 66.8964C65.1037 66.8964 65.9099 67.5432 66.701 68.3337C68.379 70.0105 68.2421 70.0411 69.8547 67.6297C71.9198 64.5417 73.3425 60.8308 73.9033 57.0692L74.031 56.2125H71.7694H69.5078L69.1881 55.5754C68.8143 54.8304 68.8762 52.8106 69.2885 52.2986C69.4956 52.0414 69.979 51.9793 71.7712 51.9793H73.9967V51.1952C73.9967 49.159 72.8684 45.0109 71.6056 42.4041C70.9407 41.0315 68.9532 37.8685 68.7557 37.8685C68.684 37.8685 67.8619 38.6515 66.9288 39.6087C65.4358 41.1402 65.1709 41.333 64.7195 41.2162C63.9288 41.0117 62.6794 39.7407 62.5501 39.0092C62.447 38.4265 62.5784 38.2182 64.0959 36.5587C66.0154 34.4596 66.0412 34.6919 63.7041 33.0269C60.7736 30.9391 56.4389 29.2019 53.3424 28.8742L52.1507 28.7481L52.0326 31.3248C51.9466 33.2017 51.8359 33.9825 51.6252 34.1997C51.1912 34.6468 49.5697 34.7429 48.7093 34.3724L47.9814 34.059V31.4281V28.7972L47.2479 28.8016C45.3387 28.8129 40.7848 30.2841 38.4093 31.6569C36.9232 32.5157 34.2891 34.4622 34.2891 34.7015C34.2891 34.8088 35.0419 35.6894 35.9619 36.6584C37.4683 38.2448 37.6212 38.4758 37.4984 38.9798C37.322 39.7043 36.0663 40.9951 35.3603 41.1778C34.8606 41.307 34.653 41.1591 33.1031 39.5692C32.1131 38.5536 31.3042 37.8771 31.1769 37.9581C30.8323 38.1776 29.1267 40.8616 28.4377 42.2687C27.1815 44.8342 25.6158 50.7824 25.9561 51.6964C26.0377 51.9154 26.5457 51.9793 28.2053 51.9793C30.5672 51.9793 30.8277 52.0909 31.0652 53.2053C31.1385 53.5492 31.1405 54.2291 31.0695 54.7161C30.8795 56.0219 30.4992 56.2125 28.084 56.2125C25.7492 56.2125 25.8455 56.0762 26.3688 58.6401C27.1331 62.3841 28.8726 66.1256 31.327 69.3043L31.7076 69.7971L33.2687 68.3468C34.1675 67.5118 35.0054 66.8964 35.2435 66.8964C35.7722 66.8964 37.1045 68.1306 37.4182 68.9109C37.648 69.4826 37.614 69.5629 36.6726 70.6726C36.1301 71.312 34.8218 72.7143 33.7651 73.7887L31.844 75.7422L30.9286 74.9387L30.9286 74.9387Z"
              fill="white"/>
    </g>
    <defs>
        <clipPath id="clip0_148_791">
            <rect width="100" height="100" fill="white"/>
        </clipPath>
    </defs>
</svg>
