<svg width="100" height="100" viewBox="0 0 100 100" fill="none" xmlns="http://www.w3.org/2000/svg">
    <g clip-path="url(#clip0_148_800)">
        <path d="M49.671 2.64653C48.8336 2.69001 48.0131 2.90399 47.2576 3.27593L14.3248 19.4926C13.4725 19.9121 12.7235 20.5225 12.1336 21.2785C11.5437 22.0344 11.128 22.9165 10.9174 23.8593L2.79268 60.2859C2.60507 61.1252 2.58407 61.9944 2.73093 62.8421C2.8778 63.6899 3.18954 64.4989 3.6477 65.2212C3.75879 65.3978 3.87827 65.5688 4.0057 65.7334L26.8005 94.9416C27.3905 95.6974 28.1395 96.3076 28.9919 96.7269C29.8443 97.1462 30.7782 97.3639 31.7242 97.3637L68.2792 97.355C69.2248 97.3557 70.1585 97.1387 71.0108 96.7202C71.8632 96.3016 72.6124 95.6923 73.2029 94.9373L95.9892 65.7248C96.5796 64.9686 96.9956 64.0862 97.2063 63.1431C97.417 62.2 97.4171 61.2204 97.2065 60.2773L89.0691 23.8506C88.8585 22.9079 88.4428 22.0258 87.8529 21.2698C87.263 20.5138 86.514 19.9034 85.6617 19.4839L52.7247 3.27593C51.7744 2.80806 50.7244 2.59164 49.671 2.64653Z"
              fill="#326CE5"/>
        <path d="M49.6534 0.00897171C48.7703 0.0566405 47.9055 0.283895 47.1094 0.677431L12.3402 17.7926C11.4404 18.2355 10.6498 18.8799 10.0271 19.6779C9.4044 20.476 8.96558 21.4072 8.74327 22.4023L0.167864 60.8561C-0.0307917 61.7425 -0.0533772 62.6606 0.101447 63.5561C0.256272 64.4515 0.585354 65.3061 1.0692 66.0692C1.18691 66.2548 1.31341 66.4344 1.44825 66.6074L25.5108 97.4434C26.1337 98.2411 26.9243 98.8852 27.8241 99.3278C28.7239 99.7704 29.7097 100 30.7083 100L69.2976 99.9913C70.2958 99.992 71.2814 99.7629 72.1812 99.3211C73.0809 98.8792 73.8718 98.236 74.4951 97.439L98.5492 66.5987C99.1718 65.8009 99.6106 64.8699 99.833 63.875C100.055 62.8801 100.056 61.8468 99.8339 60.8517L91.2458 22.3937C91.0229 21.3993 90.5839 20.4689 89.9612 19.6717C89.3385 18.8744 88.5482 18.2307 87.6489 17.7882L52.8797 0.673091C51.8757 0.178835 50.7663 -0.0495361 49.6534 0.00897171ZM49.6702 2.64808C50.7236 2.59319 51.7736 2.80961 52.7238 3.27748L85.6608 19.4854C86.5132 19.9049 87.2622 20.5154 87.8521 21.2713C88.442 22.0273 88.8577 22.9094 89.0683 23.8521L97.2057 60.2788C97.4163 61.2219 97.4162 62.2015 97.2055 63.1446C96.9948 64.0877 96.5788 64.9701 95.9884 65.7263L73.2021 94.9388C72.6116 95.6938 71.8624 96.3032 71.01 96.7218C70.1577 97.1403 69.224 97.3573 68.2784 97.3566L31.7234 97.3653C30.7774 97.3655 29.8435 97.1478 28.9911 96.7285C28.1387 96.3092 27.3897 95.699 26.7997 94.9432L4.00489 65.735C3.87746 65.5704 3.75798 65.3994 3.64689 65.2228C3.18873 64.5004 2.87699 63.6914 2.73013 62.8437C2.58327 61.996 2.60426 61.1268 2.79188 60.2875L10.9166 23.8608C11.1272 22.9181 11.5429 22.036 12.1328 21.2801C12.7227 20.5241 13.4717 19.9137 14.324 19.4942L47.2568 3.27752C48.0123 2.90558 48.8328 2.6916 49.6702 2.64812L49.6702 2.64808Z"
              fill="white"/>
        <path d="M43.2273 91V82.2727H44.5227V83.5909H44.6136C44.7727 83.1591 45.0606 82.8087 45.4773 82.5398C45.8939 82.2708 46.3636 82.1364 46.8864 82.1364C46.9848 82.1364 47.108 82.1383 47.2557 82.142C47.4034 82.1458 47.5152 82.1515 47.5909 82.1591V83.5227C47.5455 83.5114 47.4413 83.4943 47.2784 83.4716C47.1193 83.4451 46.9508 83.4318 46.7727 83.4318C46.3485 83.4318 45.9697 83.5208 45.6364 83.6989C45.3068 83.8731 45.0455 84.1155 44.8523 84.4261C44.6629 84.733 44.5682 85.0833 44.5682 85.4773V91H43.2273ZM49.3622 91V79.3636H50.7031V83.6591H50.8168C50.9152 83.5076 51.0516 83.3144 51.2259 83.0795C51.4039 82.8409 51.6577 82.6288 51.9872 82.4432C52.3205 82.2538 52.7713 82.1591 53.3395 82.1591C54.0743 82.1591 54.7221 82.3428 55.2827 82.7102C55.8433 83.0777 56.2808 83.5985 56.5952 84.2727C56.9096 84.947 57.0668 85.7424 57.0668 86.6591C57.0668 87.5833 56.9096 88.3845 56.5952 89.0625C56.2808 89.7367 55.8452 90.2595 55.2884 90.6307C54.7315 90.9981 54.0895 91.1818 53.3622 91.1818C52.8016 91.1818 52.3527 91.089 52.0156 90.9034C51.6785 90.714 51.419 90.5 51.2372 90.2614C51.0554 90.0189 50.9152 89.8182 50.8168 89.6591H50.6577V91H49.3622ZM50.6804 86.6364C50.6804 87.2955 50.777 87.8769 50.9702 88.3807C51.1634 88.8807 51.4455 89.2727 51.8168 89.5568C52.188 89.8371 52.6425 89.9773 53.1804 89.9773C53.741 89.9773 54.2088 89.8295 54.5838 89.5341C54.9626 89.2348 55.2467 88.8333 55.4361 88.3295C55.6293 87.822 55.7259 87.2576 55.7259 86.6364C55.7259 86.0227 55.6312 85.4697 55.4418 84.9773C55.2562 84.4811 54.974 84.089 54.5952 83.8011C54.2202 83.5095 53.7486 83.3636 53.1804 83.3636C52.6349 83.3636 52.1766 83.5019 51.8054 83.7784C51.4342 84.0511 51.1539 84.4337 50.9645 84.9261C50.7751 85.4148 50.6804 85.9848 50.6804 86.6364Z"
              fill="white"/>
        <path d="M77.5289 21.4431H22.4711V70.9116H77.5289V21.4431Z" stroke="white" stroke-width="0.4"
              stroke-miterlimit="10" stroke-linejoin="round" stroke-dasharray="0.8 0.4"/>
        <path d="M32.6554 46.1774C32.6554 42.4038 35.6319 39.3364 39.2935 39.3364H47.8587V35.1436H39.2935C33.3834 35.1436 28.587 40.0867 28.587 46.1774C28.587 52.268 33.3834 57.2111 39.2935 57.2111H47.8587V53.0183H39.2935C35.6319 53.0183 32.6554 49.9509 32.6554 46.1774ZM41.4348 48.3841H58.5652V43.9706H41.4348V48.3841ZM60.7065 35.1436H52.1413V39.3364H60.7065C64.3681 39.3364 67.3445 42.4038 67.3445 46.1774C67.3445 49.9509 64.3681 53.0183 60.7065 53.0183H52.1413V57.2111H60.7065C66.6166 57.2111 71.413 52.268 71.413 46.1774C71.413 40.0867 66.6166 35.1436 60.7065 35.1436Z"
              fill="white"/>
        <path d="M41.601 21.4395V20.3308H43.7526H45.9042V21.4395V22.5482H43.7526H41.601V21.4395Z" fill="white"/>
        <path d="M48.2515 21.4395V20.3308H50.4032H52.5548V21.4395V22.5482H50.4032H48.2515V21.4395Z" fill="white"/>
        <path d="M54.902 21.4395V20.3308H57.0537H59.2053V21.4395V22.5482H57.0537H54.902V21.4395Z" fill="white"/>
        <path d="M61.5526 21.4395V20.3308H63.7042H65.8558V21.4395V22.5482H63.7042H61.5526V21.4395Z" fill="white"/>
        <path d="M68.2031 21.4395V20.3308H70.3547H72.5063V21.4395V22.5482H70.3547H68.2031V21.4395Z" fill="white"/>
    </g>
    <defs>
        <clipPath id="clip0_148_800">
            <rect width="100" height="100" fill="white"/>
        </clipPath>
    </defs>
</svg>
