<svg width="100" height="100" viewBox="0 0 100 100" fill="none" xmlns="http://www.w3.org/2000/svg">
    <g clip-path="url(#clip0_148_814)">
        <path d="M49.671 2.64653C48.8336 2.69001 48.0131 2.90399 47.2576 3.27593L14.3248 19.4926C13.4725 19.9121 12.7235 20.5225 12.1336 21.2785C11.5437 22.0344 11.128 22.9165 10.9174 23.8593L2.79268 60.2859C2.60507 61.1252 2.58407 61.9944 2.73093 62.8421C2.8778 63.6899 3.18954 64.4989 3.6477 65.2212C3.75879 65.3978 3.87827 65.5688 4.0057 65.7334L26.8005 94.9416C27.3905 95.6974 28.1395 96.3076 28.9919 96.7269C29.8443 97.1462 30.7782 97.3639 31.7242 97.3637L68.2792 97.355C69.2248 97.3557 70.1585 97.1387 71.0108 96.7202C71.8632 96.3016 72.6124 95.6923 73.2029 94.9373L95.9892 65.7248C96.5796 64.9686 96.9956 64.0862 97.2063 63.1431C97.417 62.2 97.4171 61.2204 97.2065 60.2773L89.0691 23.8506C88.8585 22.9079 88.4428 22.0258 87.8529 21.2698C87.263 20.5138 86.514 19.9034 85.6617 19.4839L52.7247 3.27593C51.7744 2.80806 50.7244 2.59164 49.671 2.64653Z"
              fill="#326CE5"/>
        <path d="M49.6534 0.00897171C48.7703 0.0566405 47.9055 0.283895 47.1094 0.677431L12.3402 17.7926C11.4404 18.2355 10.6498 18.8799 10.0271 19.6779C9.4044 20.476 8.96558 21.4072 8.74327 22.4023L0.167864 60.8561C-0.0307917 61.7425 -0.0533772 62.6606 0.101447 63.5561C0.256272 64.4515 0.585354 65.3061 1.0692 66.0692C1.18691 66.2548 1.31341 66.4344 1.44825 66.6074L25.5108 97.4434C26.1337 98.2411 26.9243 98.8852 27.8241 99.3278C28.7239 99.7704 29.7097 100 30.7083 100L69.2976 99.9913C70.2958 99.992 71.2814 99.7629 72.1812 99.3211C73.0809 98.8792 73.8718 98.236 74.4951 97.439L98.5492 66.5987C99.1718 65.8009 99.6106 64.8699 99.833 63.875C100.055 62.8801 100.056 61.8468 99.8339 60.8517L91.2458 22.3937C91.0229 21.3993 90.5839 20.4689 89.9612 19.6717C89.3385 18.8744 88.5482 18.2307 87.6489 17.7882L52.8797 0.673091C51.8757 0.178835 50.7663 -0.0495361 49.6534 0.00897171ZM49.6702 2.64808C50.7236 2.59319 51.7736 2.80961 52.7238 3.27748L85.6608 19.4854C86.5132 19.9049 87.2622 20.5154 87.8521 21.2713C88.442 22.0273 88.8577 22.9094 89.0683 23.8521L97.2057 60.2788C97.4163 61.2219 97.4162 62.2015 97.2055 63.1446C96.9948 64.0877 96.5788 64.9701 95.9884 65.7263L73.2021 94.9388C72.6116 95.6938 71.8624 96.3032 71.01 96.7218C70.1577 97.1403 69.224 97.3573 68.2784 97.3566L31.7234 97.3653C30.7774 97.3655 29.8435 97.1478 28.9911 96.7285C28.1387 96.3092 27.3897 95.699 26.7997 94.9432L4.00489 65.735C3.87746 65.5704 3.75798 65.3994 3.64689 65.2228C3.18873 64.5004 2.87699 63.6914 2.73013 62.8437C2.58327 61.996 2.60426 61.1268 2.79188 60.2875L10.9166 23.8608C11.1272 22.9181 11.5429 22.036 12.1328 21.2801C12.7227 20.5241 13.4717 19.9137 14.324 19.4942L47.2568 3.27752C48.0123 2.90558 48.8328 2.6916 49.6702 2.64812L49.6702 2.64808Z"
              fill="white"/>
        <path d="M37.2273 90V81.2727H38.5227V82.5909H38.6136C38.7727 82.1591 39.0606 81.8087 39.4773 81.5398C39.8939 81.2708 40.3636 81.1364 40.8864 81.1364C40.9848 81.1364 41.108 81.1383 41.2557 81.142C41.4034 81.1458 41.5152 81.1515 41.5909 81.1591V82.5227C41.5455 82.5114 41.4413 82.4943 41.2784 82.4716C41.1193 82.4451 40.9508 82.4318 40.7727 82.4318C40.3485 82.4318 39.9697 82.5208 39.6364 82.6989C39.3068 82.8731 39.0455 83.1155 38.8523 83.4261C38.6629 83.733 38.5682 84.0833 38.5682 84.4773V90H37.2273ZM46.4602 90.1818C45.6723 90.1818 44.9811 89.9943 44.3864 89.6193C43.7955 89.2443 43.3333 88.7197 43 88.0455C42.6705 87.3712 42.5057 86.5833 42.5057 85.6818C42.5057 84.7727 42.6705 83.9792 43 83.3011C43.3333 82.6231 43.7955 82.0966 44.3864 81.7216C44.9811 81.3466 45.6723 81.1591 46.4602 81.1591C47.2481 81.1591 47.9375 81.3466 48.5284 81.7216C49.1231 82.0966 49.5852 82.6231 49.9148 83.3011C50.2481 83.9792 50.4148 84.7727 50.4148 85.6818C50.4148 86.5833 50.2481 87.3712 49.9148 88.0455C49.5852 88.7197 49.1231 89.2443 48.5284 89.6193C47.9375 89.9943 47.2481 90.1818 46.4602 90.1818ZM46.4602 88.9773C47.0587 88.9773 47.5511 88.8239 47.9375 88.517C48.3239 88.2102 48.6098 87.8068 48.7955 87.3068C48.9811 86.8068 49.0739 86.2652 49.0739 85.6818C49.0739 85.0985 48.9811 84.5549 48.7955 84.0511C48.6098 83.5473 48.3239 83.1402 47.9375 82.8295C47.5511 82.5189 47.0587 82.3636 46.4602 82.3636C45.8617 82.3636 45.3693 82.5189 44.983 82.8295C44.5966 83.1402 44.3106 83.5473 44.125 84.0511C43.9394 84.5549 43.8466 85.0985 43.8466 85.6818C43.8466 86.2652 43.9394 86.8068 44.125 87.3068C44.3106 87.8068 44.5966 88.2102 44.983 88.517C45.3693 88.8239 45.8617 88.9773 46.4602 88.9773ZM53.8026 78.3636V90H52.4616V78.3636H53.8026ZM59.9176 90.1818C59.0767 90.1818 58.3513 89.9962 57.7415 89.625C57.1354 89.25 56.6676 88.7273 56.3381 88.0568C56.0123 87.3826 55.8494 86.5985 55.8494 85.7045C55.8494 84.8106 56.0123 84.0227 56.3381 83.3409C56.6676 82.6553 57.1259 82.1212 57.7131 81.7386C58.304 81.3523 58.9934 81.1591 59.7812 81.1591C60.2358 81.1591 60.6847 81.2348 61.1278 81.3864C61.571 81.5379 61.9744 81.7841 62.3381 82.125C62.7017 82.4621 62.9915 82.9091 63.2074 83.4659C63.4233 84.0227 63.5312 84.7083 63.5312 85.5227V86.0909H56.804V84.9318H62.1676C62.1676 84.4394 62.0691 84 61.8722 83.6136C61.679 83.2273 61.4025 82.9223 61.0426 82.6989C60.6866 82.4754 60.2661 82.3636 59.7812 82.3636C59.2472 82.3636 58.785 82.4962 58.3949 82.7614C58.0085 83.0227 57.7112 83.3636 57.5028 83.7841C57.2945 84.2045 57.1903 84.6553 57.1903 85.1364V85.9091C57.1903 86.5682 57.304 87.1269 57.5312 87.5852C57.7623 88.0398 58.0824 88.3864 58.4915 88.625C58.9006 88.8598 59.3759 88.9773 59.9176 88.9773C60.2699 88.9773 60.5881 88.928 60.8722 88.8295C61.16 88.7273 61.4081 88.5758 61.6165 88.375C61.8248 88.1705 61.9858 87.9167 62.0994 87.6136L63.3949 87.9773C63.2585 88.4167 63.0294 88.803 62.7074 89.1364C62.3854 89.4659 61.9877 89.7235 61.5142 89.9091C61.0407 90.0909 60.5085 90.1818 59.9176 90.1818Z"
              fill="white"/>
        <path d="M50.2533 49.7873C51.8038 49.7873 53.0607 48.5023 53.0607 46.9171C53.0607 45.3319 51.8038 44.0469 50.2533 44.0469C48.7027 44.0469 47.4458 45.3319 47.4458 46.9171C47.4458 48.5023 48.7027 49.7873 50.2533 49.7873Z"
              fill="white"/>
        <path d="M50.5904 23.6426L33.3572 31.4949V43.2118C33.3572 54.0747 40.7027 64.2284 50.5904 66.6962C60.4639 64.2284 67.8165 54.0747 67.8165 43.2118V31.4949L50.5904 23.6426ZM59.7125 55.1747H41.4612V39.3833H44.0805V37.6609C44.0805 33.941 47.03 30.9231 50.6746 30.9231C54.3193 30.9231 57.2687 33.941 57.2687 37.6609V39.3833H59.7125V55.1747Z"
              fill="white"/>
        <path d="M50.5833 33.4302C48.3994 33.4382 46.6297 35.2467 46.6297 37.4757V39.1692H54.544V37.4468C54.5229 35.225 52.7603 33.4374 50.5833 33.4302Z"
              fill="white"/>
        <path d="M77.5289 21.2415H22.4711V70.7099H77.5289V21.2415Z" stroke="white" stroke-width="0.4"
              stroke-miterlimit="10" stroke-linejoin="round" stroke-dasharray="0.8 0.4"/>
    </g>
    <defs>
        <clipPath id="clip0_148_814">
            <rect width="100" height="100" fill="white"/>
        </clipPath>
    </defs>
</svg>
