<svg width="100" height="100" viewBox="0 0 100 100" fill="none" xmlns="http://www.w3.org/2000/svg">
    <g clip-path="url(#clip0_148_825)">
        <path d="M49.6711 2.64653C48.8337 2.69001 48.0131 2.90399 47.2577 3.27593L14.3249 19.4926C13.4725 19.9121 12.7236 20.5225 12.1337 21.2785C11.5438 22.0344 11.1281 22.9165 10.9175 23.8593L2.79274 60.2859C2.60513 61.1252 2.58413 61.9944 2.73099 62.8421C2.87786 63.6899 3.1896 64.4989 3.64776 65.2212C3.75885 65.3978 3.87833 65.5688 4.00576 65.7334L26.8005 94.9416C27.3906 95.6974 28.1396 96.3076 28.992 96.7269C29.8444 97.1462 30.7782 97.3639 31.7242 97.3637L68.2792 97.355C69.2249 97.3557 70.1585 97.1387 71.0109 96.7202C71.8633 96.3016 72.6125 95.6923 73.2029 94.9373L95.9893 65.7248C96.5796 64.9686 96.9956 64.0862 97.2064 63.1431C97.4171 62.2 97.4171 61.2204 97.2065 60.2773L89.0691 23.8506C88.8585 22.9079 88.4429 22.0258 87.853 21.2698C87.2631 20.5138 86.5141 19.9034 85.6617 19.4839L52.7247 3.27593C51.7745 2.80806 50.7245 2.59164 49.6711 2.64653Z"
              fill="#326CE5"/>
        <path d="M49.6534 0.00897171C48.7703 0.0566405 47.9055 0.283895 47.1094 0.677431L12.3402 17.7926C11.4404 18.2355 10.6498 18.8799 10.0271 19.6779C9.4044 20.476 8.96558 21.4072 8.74327 22.4023L0.167864 60.8561C-0.0307917 61.7425 -0.0533772 62.6606 0.101447 63.5561C0.256272 64.4515 0.585354 65.3061 1.0692 66.0692C1.18691 66.2548 1.31341 66.4344 1.44825 66.6074L25.5108 97.4434C26.1337 98.2411 26.9243 98.8852 27.8241 99.3278C28.7239 99.7704 29.7097 100 30.7083 100L69.2976 99.9913C70.2958 99.992 71.2814 99.7629 72.1812 99.3211C73.0809 98.8792 73.8718 98.236 74.4951 97.439L98.5492 66.5987C99.1718 65.8009 99.6106 64.8699 99.833 63.875C100.055 62.8801 100.056 61.8468 99.8339 60.8517L91.2458 22.3937C91.0229 21.3993 90.5839 20.4689 89.9612 19.6717C89.3385 18.8744 88.5482 18.2307 87.6489 17.7882L52.8797 0.673091C51.8757 0.178835 50.7663 -0.0495361 49.6534 0.00897171ZM49.6702 2.64808C50.7236 2.59319 51.7736 2.80961 52.7238 3.27748L85.6608 19.4854C86.5132 19.9049 87.2622 20.5154 87.8521 21.2713C88.442 22.0273 88.8577 22.9094 89.0683 23.8521L97.2057 60.2788C97.4163 61.2219 97.4162 62.2015 97.2055 63.1446C96.9948 64.0877 96.5788 64.9701 95.9884 65.7263L73.2021 94.9388C72.6116 95.6938 71.8624 96.3032 71.01 96.7218C70.1577 97.1403 69.224 97.3573 68.2784 97.3566L31.7234 97.3653C30.7774 97.3655 29.8435 97.1478 28.9911 96.7285C28.1387 96.3092 27.3897 95.699 26.7997 94.9432L4.00489 65.735C3.87746 65.5704 3.75798 65.3994 3.64689 65.2228C3.18873 64.5004 2.87699 63.6914 2.73013 62.8437C2.58327 61.996 2.60426 61.1268 2.79188 60.2875L10.9166 23.8608C11.1272 22.9181 11.5429 22.036 12.1328 21.2801C12.7227 20.5241 13.4717 19.9137 14.324 19.4942L47.2568 3.27752C48.0123 2.90558 48.8328 2.6916 49.6702 2.64812L49.6702 2.64808Z"
              fill="white"/>
        <path d="M44.2273 89V80.2727H45.5227V81.5909H45.6136C45.7727 81.1591 46.0606 80.8087 46.4773 80.5398C46.8939 80.2708 47.3636 80.1364 47.8864 80.1364C47.9848 80.1364 48.108 80.1383 48.2557 80.142C48.4034 80.1458 48.5152 80.1515 48.5909 80.1591V81.5227C48.5455 81.5114 48.4413 81.4943 48.2784 81.4716C48.1193 81.4451 47.9508 81.4318 47.7727 81.4318C47.3485 81.4318 46.9697 81.5208 46.6364 81.6989C46.3068 81.8731 46.0455 82.1155 45.8523 82.4261C45.6629 82.733 45.5682 83.0833 45.5682 83.4773V89H44.2273ZM56.3622 82.2273L55.1577 82.5682C55.0819 82.3674 54.9702 82.1723 54.8224 81.983C54.6785 81.7898 54.4815 81.6307 54.2315 81.5057C53.9815 81.3807 53.6615 81.3182 53.2713 81.3182C52.7372 81.3182 52.2921 81.4413 51.9361 81.6875C51.5838 81.9299 51.4077 82.2386 51.4077 82.6136C51.4077 82.947 51.5289 83.2102 51.7713 83.4034C52.0137 83.5966 52.3925 83.7576 52.9077 83.8864L54.2031 84.2045C54.9834 84.3939 55.5649 84.6837 55.9474 85.0739C56.33 85.4602 56.5213 85.9583 56.5213 86.5682C56.5213 87.0682 56.3774 87.5152 56.0895 87.9091C55.8054 88.303 55.4077 88.6136 54.8963 88.8409C54.3849 89.0682 53.7902 89.1818 53.1122 89.1818C52.2221 89.1818 51.4853 88.9886 50.902 88.6023C50.3187 88.2159 49.9493 87.6515 49.794 86.9091L51.0668 86.5909C51.188 87.0606 51.4171 87.4129 51.7543 87.6477C52.0952 87.8826 52.5402 88 53.0895 88C53.7145 88 54.2107 87.8674 54.5781 87.6023C54.9493 87.3333 55.1349 87.0114 55.1349 86.6364C55.1349 86.3333 55.0289 86.0795 54.8168 85.875C54.6046 85.6667 54.2789 85.5114 53.8395 85.4091L52.3849 85.0682C51.5857 84.8788 50.9986 84.5852 50.6236 84.1875C50.2524 83.786 50.0668 83.2841 50.0668 82.6818C50.0668 82.1894 50.205 81.7538 50.4815 81.375C50.7618 80.9962 51.1425 80.6989 51.6236 80.483C52.1084 80.267 52.6577 80.1591 53.2713 80.1591C54.1349 80.1591 54.813 80.3485 55.3054 80.7273C55.8016 81.1061 56.1539 81.6061 56.3622 82.2273Z"
              fill="white"/>
        <path fill-rule="evenodd" clip-rule="evenodd" d="M40.0637 22H76.2426V48.1899H40.0637V22Z" fill="#326CE5"
              stroke="white" stroke-width="0.529" stroke-miterlimit="10" stroke-linecap="square" stroke-linejoin="round"
              stroke-dasharray="1.59 1.59"/>
        <path fill-rule="evenodd" clip-rule="evenodd" d="M31.5319 30.0645H67.7108V56.2544H31.5319V30.0645Z"
              fill="#326CE5" stroke="white" stroke-width="0.529146" stroke-miterlimit="10" stroke-linecap="square"
              stroke-linejoin="round" stroke-dasharray="1.59 1.59"/>
        <path fill-rule="evenodd" clip-rule="evenodd" d="M23 38.1289H59.179V64.3188H23V38.1289Z" fill="white"/>
        <path fill-rule="evenodd" clip-rule="evenodd" d="M23 38.1289H59.179V64.3188H23V38.1289Z" stroke="white"
              stroke-width="0.529167" stroke-miterlimit="10" stroke-linejoin="round"/>
    </g>
    <defs>
        <clipPath id="clip0_148_825">
            <rect width="100" height="100" fill="white"/>
        </clipPath>
    </defs>
</svg>
