<svg width="100" height="100" viewBox="0 0 100 100" fill="none" xmlns="http://www.w3.org/2000/svg">
    <g clip-path="url(#clip0_148_836)">
        <path d="M49.6711 2.64653C48.8337 2.69001 48.0131 2.90399 47.2577 3.27593L14.3249 19.4926C13.4725 19.9121 12.7236 20.5225 12.1337 21.2785C11.5438 22.0344 11.1281 22.9165 10.9175 23.8593L2.79274 60.2859C2.60513 61.1252 2.58413 61.9944 2.73099 62.8421C2.87786 63.6899 3.1896 64.4989 3.64776 65.2212C3.75885 65.3978 3.87833 65.5688 4.00576 65.7334L26.8005 94.9416C27.3906 95.6974 28.1396 96.3076 28.992 96.7269C29.8444 97.1462 30.7782 97.3639 31.7242 97.3637L68.2792 97.355C69.2249 97.3557 70.1585 97.1387 71.0109 96.7202C71.8633 96.3016 72.6125 95.6923 73.2029 94.9373L95.9893 65.7248C96.5796 64.9686 96.9956 64.0862 97.2064 63.1431C97.4171 62.2 97.4171 61.2204 97.2065 60.2773L89.0691 23.8506C88.8585 22.9079 88.4429 22.0258 87.853 21.2698C87.2631 20.5138 86.5141 19.9034 85.6617 19.4839L52.7247 3.27593C51.7745 2.80806 50.7245 2.59164 49.6711 2.64653Z"
              fill="#326CE5"/>
        <path d="M49.6534 0.00897171C48.7703 0.0566405 47.9055 0.283895 47.1094 0.677431L12.3402 17.7926C11.4404 18.2355 10.6498 18.8799 10.0271 19.6779C9.4044 20.476 8.96558 21.4072 8.74327 22.4023L0.167864 60.8561C-0.0307917 61.7425 -0.0533772 62.6606 0.101447 63.5561C0.256272 64.4515 0.585354 65.3061 1.0692 66.0692C1.18691 66.2548 1.31341 66.4344 1.44825 66.6074L25.5108 97.4434C26.1337 98.2411 26.9243 98.8852 27.8241 99.3278C28.7239 99.7704 29.7097 100 30.7083 100L69.2976 99.9913C70.2958 99.992 71.2814 99.7629 72.1812 99.3211C73.0809 98.8792 73.8718 98.236 74.4951 97.439L98.5492 66.5987C99.1718 65.8009 99.6106 64.8699 99.833 63.875C100.055 62.8801 100.056 61.8468 99.8339 60.8517L91.2458 22.3937C91.0229 21.3993 90.5839 20.4689 89.9612 19.6717C89.3385 18.8744 88.5482 18.2307 87.6489 17.7882L52.8797 0.673091C51.8757 0.178835 50.7663 -0.0495361 49.6534 0.00897171ZM49.6702 2.64808C50.7236 2.59319 51.7736 2.80961 52.7238 3.27748L85.6608 19.4854C86.5132 19.9049 87.2622 20.5154 87.8521 21.2713C88.442 22.0273 88.8577 22.9094 89.0683 23.8521L97.2057 60.2788C97.4163 61.2219 97.4162 62.2015 97.2055 63.1446C96.9948 64.0877 96.5788 64.9701 95.9884 65.7263L73.2021 94.9388C72.6116 95.6938 71.8624 96.3032 71.01 96.7218C70.1577 97.1403 69.224 97.3573 68.2784 97.3566L31.7234 97.3653C30.7774 97.3655 29.8435 97.1478 28.9911 96.7285C28.1387 96.3092 27.3897 95.699 26.7997 94.9432L4.00489 65.735C3.87746 65.5704 3.75798 65.3994 3.64689 65.2228C3.18873 64.5004 2.87699 63.6914 2.73013 62.8437C2.58327 61.996 2.60426 61.1268 2.79188 60.2875L10.9166 23.8608C11.1272 22.9181 11.5429 22.036 12.1328 21.2801C12.7227 20.5241 13.4717 19.9137 14.324 19.4942L47.2568 3.27752C48.0123 2.90558 48.8328 2.6916 49.6702 2.64812L49.6702 2.64808Z"
              fill="white"/>
        <path d="M48.4091 83.2273L47.2045 83.5682C47.1288 83.3674 47.017 83.1723 46.8693 82.983C46.7254 82.7898 46.5284 82.6307 46.2784 82.5057C46.0284 82.3807 45.7083 82.3182 45.3182 82.3182C44.7841 82.3182 44.339 82.4413 43.983 82.6875C43.6307 82.9299 43.4545 83.2386 43.4545 83.6136C43.4545 83.947 43.5758 84.2102 43.8182 84.4034C44.0606 84.5966 44.4394 84.7576 44.9545 84.8864L46.25 85.2045C47.0303 85.3939 47.6117 85.6837 47.9943 86.0739C48.3769 86.4602 48.5682 86.9583 48.5682 87.5682C48.5682 88.0682 48.4242 88.5152 48.1364 88.9091C47.8523 89.303 47.4545 89.6136 46.9432 89.8409C46.4318 90.0682 45.8371 90.1818 45.1591 90.1818C44.2689 90.1818 43.5322 89.9886 42.9489 89.6023C42.3655 89.2159 41.9962 88.6515 41.8409 87.9091L43.1136 87.5909C43.2348 88.0606 43.464 88.4129 43.8011 88.6477C44.142 88.8826 44.5871 89 45.1364 89C45.7614 89 46.2576 88.8674 46.625 88.6023C46.9962 88.3333 47.1818 88.0114 47.1818 87.6364C47.1818 87.3333 47.0758 87.0795 46.8636 86.875C46.6515 86.6667 46.3258 86.5114 45.8864 86.4091L44.4318 86.0682C43.6326 85.8788 43.0455 85.5852 42.6705 85.1875C42.2992 84.786 42.1136 84.2841 42.1136 83.6818C42.1136 83.1894 42.2519 82.7538 42.5284 82.375C42.8087 81.9962 43.1894 81.6989 43.6705 81.483C44.1553 81.267 44.7045 81.1591 45.3182 81.1591C46.1818 81.1591 46.8598 81.3485 47.3523 81.7273C47.8485 82.1061 48.2008 82.6061 48.4091 83.2273ZM53.1548 90.2045C52.6018 90.2045 52.0999 90.1004 51.6491 89.892C51.1984 89.6799 50.8404 89.375 50.5753 88.9773C50.3101 88.5758 50.1776 88.0909 50.1776 87.5227C50.1776 87.0227 50.276 86.6174 50.473 86.3068C50.67 85.9924 50.9332 85.7462 51.2628 85.5682C51.5923 85.3902 51.956 85.2576 52.3537 85.1705C52.7552 85.0795 53.1586 85.0076 53.5639 84.9545C54.0942 84.8864 54.5241 84.8352 54.8537 84.8011C55.187 84.7633 55.4295 84.7008 55.581 84.6136C55.7363 84.5265 55.8139 84.375 55.8139 84.1591V84.1136C55.8139 83.553 55.6605 83.1174 55.3537 82.8068C55.0507 82.4962 54.5904 82.3409 53.973 82.3409C53.3329 82.3409 52.831 82.4811 52.4673 82.7614C52.1037 83.0417 51.848 83.3409 51.7003 83.6591L50.4276 83.2045C50.6548 82.6742 50.9579 82.2614 51.3366 81.9659C51.7192 81.6667 52.1359 81.4583 52.5866 81.3409C53.0412 81.2197 53.4882 81.1591 53.9276 81.1591C54.2079 81.1591 54.5298 81.1932 54.8935 81.2614C55.2609 81.3258 55.6151 81.4602 55.956 81.6648C56.3007 81.8693 56.5866 82.178 56.8139 82.5909C57.0412 83.0038 57.1548 83.5568 57.1548 84.25V90H55.8139V88.8182H55.7457C55.6548 89.0076 55.5033 89.2102 55.2912 89.4261C55.0791 89.642 54.7969 89.8258 54.4446 89.9773C54.0923 90.1288 53.6624 90.2045 53.1548 90.2045ZM53.3594 89C53.8897 89 54.3366 88.8958 54.7003 88.6875C55.0677 88.4792 55.3442 88.2102 55.5298 87.8807C55.7192 87.5511 55.8139 87.2045 55.8139 86.8409V85.6136C55.7571 85.6818 55.6321 85.7443 55.4389 85.8011C55.2495 85.8542 55.0298 85.9015 54.7798 85.9432C54.5336 85.9811 54.2931 86.0152 54.0582 86.0455C53.8272 86.072 53.6397 86.0947 53.4957 86.1136C53.1473 86.1591 52.8215 86.233 52.5185 86.3352C52.2192 86.4337 51.9768 86.5833 51.7912 86.7841C51.6094 86.9811 51.5185 87.25 51.5185 87.5909C51.5185 88.0568 51.6908 88.4091 52.0355 88.6477C52.384 88.8826 52.8253 89 53.3594 89Z"
              fill="white"/>
        <path d="M50.0044 18.3545L27.5951 28.6176V44.017C27.5951 58.2523 37.1594 71.5732 50.0044 74.8064C62.8495 71.5732 72.4048 58.2523 72.4048 44.017V28.6176L50.0044 18.3545ZM50.0044 29.2273C52.8997 29.2273 55.5171 31.0287 56.6197 33.7908C57.7312 36.5529 57.1217 39.7307 55.069 41.8461C53.0163 43.9523 49.9327 44.5897 47.2526 43.4442C44.5814 42.2987 42.8335 39.6105 42.8335 36.6175C42.8335 32.5345 46.0425 29.2273 50.0044 29.2273ZM63.4411 59.7858C63.4411 59.9705 63.3873 60.1461 63.2886 60.3031C63.1274 60.5524 62.9661 60.8112 62.7867 61.0513C59.6225 65.5409 55.1406 68.8572 50.0044 70.5015C44.8592 68.8572 40.3773 65.5409 37.2131 61.0513C37.0339 60.8111 36.8725 60.5525 36.7112 60.3031C36.6126 60.1459 36.5587 59.9707 36.5587 59.7858V55.6842C36.5587 50.0215 45.5224 47.167 50.0043 47.167C54.4862 47.167 63.441 50.0215 63.441 55.6842L63.4411 59.7858Z"
              fill="white"/>
    </g>
    <defs>
        <clipPath id="clip0_148_836">
            <rect width="100" height="100" fill="white"/>
        </clipPath>
    </defs>
</svg>
