<svg width="100" height="100" viewBox="0 0 100 100" fill="none" xmlns="http://www.w3.org/2000/svg">
    <g clip-path="url(#clip0_148_843)">
        <path d="M49.6711 2.64653C48.8337 2.69001 48.0131 2.90399 47.2577 3.27593L14.3249 19.4926C13.4725 19.9121 12.7236 20.5225 12.1337 21.2785C11.5438 22.0344 11.1281 22.9165 10.9175 23.8593L2.79274 60.2859C2.60513 61.1252 2.58413 61.9944 2.73099 62.8421C2.87786 63.6899 3.1896 64.4989 3.64776 65.2212C3.75885 65.3978 3.87833 65.5688 4.00576 65.7334L26.8005 94.9416C27.3906 95.6974 28.1396 96.3076 28.992 96.7269C29.8444 97.1462 30.7782 97.3639 31.7242 97.3637L68.2792 97.355C69.2249 97.3557 70.1585 97.1387 71.0109 96.7202C71.8633 96.3016 72.6125 95.6923 73.2029 94.9373L95.9893 65.7248C96.5796 64.9686 96.9956 64.0862 97.2064 63.1431C97.4171 62.2 97.4171 61.2204 97.2065 60.2773L89.0691 23.8506C88.8585 22.9079 88.4429 22.0258 87.853 21.2698C87.2631 20.5138 86.5141 19.9034 85.6617 19.4839L52.7247 3.27593C51.7745 2.80806 50.7245 2.59164 49.6711 2.64653Z"
              fill="#326CE5"/>
        <path d="M49.6534 0.00897171C48.7703 0.0566405 47.9055 0.283895 47.1094 0.677431L12.3402 17.7926C11.4404 18.2355 10.6498 18.8799 10.0271 19.6779C9.4044 20.476 8.96558 21.4072 8.74327 22.4023L0.167864 60.8561C-0.0307917 61.7425 -0.0533772 62.6606 0.101447 63.5561C0.256272 64.4515 0.585354 65.3061 1.0692 66.0692C1.18691 66.2548 1.31341 66.4344 1.44825 66.6074L25.5108 97.4434C26.1337 98.2411 26.9243 98.8852 27.8241 99.3278C28.7239 99.7704 29.7097 100 30.7083 100L69.2976 99.9913C70.2958 99.992 71.2814 99.7629 72.1812 99.3211C73.0809 98.8792 73.8718 98.236 74.4951 97.439L98.5492 66.5987C99.1718 65.8009 99.6106 64.8699 99.833 63.875C100.055 62.8801 100.056 61.8468 99.8339 60.8517L91.2458 22.3937C91.0229 21.3993 90.5839 20.4689 89.9612 19.6717C89.3385 18.8744 88.5482 18.2307 87.6489 17.7882L52.8797 0.673091C51.8757 0.178835 50.7663 -0.0495361 49.6534 0.00897171ZM49.6702 2.64808C50.7236 2.59319 51.7736 2.80961 52.7238 3.27748L85.6608 19.4854C86.5132 19.9049 87.2622 20.5154 87.8521 21.2713C88.442 22.0273 88.8577 22.9094 89.0683 23.8521L97.2057 60.2788C97.4163 61.2219 97.4162 62.2015 97.2055 63.1446C96.9948 64.0877 96.5788 64.9701 95.9884 65.7263L73.2021 94.9388C72.6116 95.6938 71.8624 96.3032 71.01 96.7218C70.1577 97.1403 69.224 97.3573 68.2784 97.3566L31.7234 97.3653C30.7774 97.3655 29.8435 97.1478 28.9911 96.7285C28.1387 96.3092 27.3897 95.699 26.7997 94.9432L4.00489 65.735C3.87746 65.5704 3.75798 65.3994 3.64689 65.2228C3.18873 64.5004 2.87699 63.6914 2.73013 62.8437C2.58327 61.996 2.60426 61.1268 2.79188 60.2875L10.9166 23.8608C11.1272 22.9181 11.5429 22.036 12.1328 21.2801C12.7227 20.5241 13.4717 19.9137 14.324 19.4942L47.2568 3.27752C48.0123 2.90558 48.8328 2.6916 49.6702 2.64812L49.6702 2.64808Z"
              fill="white"/>
        <path d="M48.4091 83.2273L47.2045 83.5682C47.1288 83.3674 47.017 83.1723 46.8693 82.983C46.7254 82.7898 46.5284 82.6307 46.2784 82.5057C46.0284 82.3807 45.7083 82.3182 45.3182 82.3182C44.7841 82.3182 44.339 82.4413 43.983 82.6875C43.6307 82.9299 43.4545 83.2386 43.4545 83.6136C43.4545 83.947 43.5758 84.2102 43.8182 84.4034C44.0606 84.5966 44.4394 84.7576 44.9545 84.8864L46.25 85.2045C47.0303 85.3939 47.6117 85.6837 47.9943 86.0739C48.3769 86.4602 48.5682 86.9583 48.5682 87.5682C48.5682 88.0682 48.4242 88.5152 48.1364 88.9091C47.8523 89.303 47.4545 89.6136 46.9432 89.8409C46.4318 90.0682 45.8371 90.1818 45.1591 90.1818C44.2689 90.1818 43.5322 89.9886 42.9489 89.6023C42.3655 89.2159 41.9962 88.6515 41.8409 87.9091L43.1136 87.5909C43.2348 88.0606 43.464 88.4129 43.8011 88.6477C44.142 88.8826 44.5871 89 45.1364 89C45.7614 89 46.2576 88.8674 46.625 88.6023C46.9962 88.3333 47.1818 88.0114 47.1818 87.6364C47.1818 87.3333 47.0758 87.0795 46.8636 86.875C46.6515 86.6667 46.3258 86.5114 45.8864 86.4091L44.4318 86.0682C43.6326 85.8788 43.0455 85.5852 42.6705 85.1875C42.2992 84.786 42.1136 84.2841 42.1136 83.6818C42.1136 83.1894 42.2519 82.7538 42.5284 82.375C42.8087 81.9962 43.1894 81.6989 43.6705 81.483C44.1553 81.267 44.7045 81.1591 45.3182 81.1591C46.1818 81.1591 46.8598 81.3485 47.3523 81.7273C47.8485 82.1061 48.2008 82.6061 48.4091 83.2273ZM54.1321 90.1818C53.3139 90.1818 52.6094 89.9886 52.0185 89.6023C51.4276 89.2159 50.973 88.6837 50.6548 88.0057C50.3366 87.3277 50.1776 86.553 50.1776 85.6818C50.1776 84.7955 50.3404 84.0133 50.6662 83.3352C50.9957 82.6534 51.4541 82.1212 52.0412 81.7386C52.6321 81.3523 53.3215 81.1591 54.1094 81.1591C54.723 81.1591 55.276 81.2727 55.7685 81.5C56.2609 81.7273 56.6643 82.0455 56.9787 82.4545C57.2931 82.8636 57.4882 83.3409 57.5639 83.8864H56.223C56.1207 83.4886 55.8935 83.1364 55.5412 82.8295C55.1927 82.5189 54.723 82.3636 54.1321 82.3636C53.6094 82.3636 53.151 82.5 52.7571 82.7727C52.367 83.0417 52.062 83.4223 51.8423 83.9148C51.6264 84.4034 51.5185 84.9773 51.5185 85.6364C51.5185 86.3106 51.6245 86.8977 51.8366 87.3977C52.0526 87.8977 52.3556 88.286 52.7457 88.5625C53.1397 88.839 53.6018 88.9773 54.1321 88.9773C54.4806 88.9773 54.7969 88.9167 55.081 88.7955C55.3651 88.6742 55.6056 88.5 55.8026 88.2727C55.9995 88.0455 56.1397 87.7727 56.223 87.4545H57.5639C57.4882 87.9697 57.3007 88.4337 57.0014 88.8466C56.706 89.2557 56.3139 89.5814 55.8253 89.8239C55.3404 90.0625 54.776 90.1818 54.1321 90.1818Z"
              fill="white"/>
        <path fill-rule="evenodd" clip-rule="evenodd"
              d="M24.5476 53.4421C24.5476 55.5945 36.2106 57.3394 50.5977 57.3394C64.9847 57.3394 76.6477 55.5945 76.6477 53.4421V63.985C76.6477 66.1374 64.9847 67.8823 50.5977 67.8823C36.2106 67.8823 24.5476 66.1374 24.5476 63.985V53.4421Z"
              fill="#326CE5"/>
        <path fill-rule="evenodd" clip-rule="evenodd"
              d="M24.5476 53.4422C24.5476 51.2898 36.2106 49.5449 50.5977 49.5449C64.9847 49.5449 76.6477 51.2898 76.6477 53.4422C76.6477 55.5946 64.9847 57.3394 50.5977 57.3394C36.2106 57.3394 24.5476 55.5946 24.5476 53.4422Z"
              fill="#326CE5"/>
        <path fill-rule="evenodd" clip-rule="evenodd"
              d="M23.5476 40.2441C23.5476 42.3965 35.2106 44.1414 49.5977 44.1414C63.9847 44.1414 75.6477 42.3965 75.6477 40.2441V50.787C75.6477 52.9394 63.9847 54.6843 49.5977 54.6843C35.2106 54.6843 23.5476 52.9394 23.5476 50.787V40.2441Z"
              fill="white" stroke="#EEEEEE" stroke-width="0.207574" stroke-miterlimit="10" stroke-linecap="square"/>
        <path fill-rule="evenodd" clip-rule="evenodd"
              d="M24.5476 40.2442C24.5476 38.0918 36.2106 36.3469 50.5977 36.3469C64.9847 36.3469 76.6477 38.0918 76.6477 40.2442C76.6477 42.3966 64.9847 44.1414 50.5977 44.1414C36.2106 44.1414 24.5476 42.3966 24.5476 40.2442Z"
              fill="#326CE5"/>
        <path fill-rule="evenodd" clip-rule="evenodd"
              d="M24.5481 25.6421C24.5481 23.4897 36.2111 21.7449 50.5982 21.7449C64.9852 21.7449 76.6482 23.4897 76.6482 25.6421C76.6482 27.7945 64.9852 29.5394 50.5982 29.5394C36.2111 29.5394 24.5481 27.7945 24.5481 25.6421Z"
              fill="#326CE5"/>
        <path d="M76.1001 55.4668C76.1001 57.6192 64.4371 59.3641 50.0501 59.3641C35.6631 59.3641 24 57.6192 24 55.4668C24 53.3144 35.6631 51.5696 50.0501 51.5696C64.4371 51.5696 76.1001 53.3144 76.1001 55.4668V66.0097C76.1001 68.1621 64.4371 69.9069 50.0501 69.9069C35.6631 69.9069 24 68.1621 24 66.0097V55.4668"
              stroke="white" stroke-width="0.415" stroke-miterlimit="10" stroke-linejoin="round"
              stroke-dasharray="1.66 0.41"/>
        <path d="M76.1001 40.2439C76.1001 42.3963 64.4371 44.1412 50.0501 44.1412C35.6631 44.1412 24 42.3963 24 40.2439C24 38.0915 35.6631 36.3467 50.0501 36.3467C64.4371 36.3467 76.1001 38.0915 76.1001 40.2439V50.7868C76.1001 52.9392 64.4371 54.684 50.0501 54.684C35.6631 54.684 24 52.9392 24 50.7868V40.2439"
              stroke="white" stroke-width="0.415" stroke-miterlimit="10" stroke-linejoin="round"/>
        <path fill-rule="evenodd" clip-rule="evenodd"
              d="M24.0006 25.6421C24.0006 27.7945 35.6636 29.5393 50.0507 29.5393C64.4377 29.5393 76.1008 27.7945 76.1008 25.6421V36.185C76.1008 38.3374 64.4377 40.0822 50.0507 40.0822C35.6636 40.0822 24.0006 38.3374 24.0006 36.185V25.6421Z"
              fill="#326CE5"/>
        <path d="M76.1008 25.6421C76.1008 27.7945 64.4377 29.5394 50.0507 29.5394C35.6636 29.5394 24.0006 27.7945 24.0006 25.6421C24.0006 23.4897 35.6636 21.7449 50.0507 21.7449C64.4377 21.7449 76.1008 23.4897 76.1008 25.6421V36.185C76.1008 38.3374 64.4377 40.0822 50.0507 40.0822C35.6636 40.0822 24.0006 38.3374 24.0006 36.185V25.6421"
              stroke="white" stroke-width="0.415149" stroke-miterlimit="10" stroke-linejoin="round"
              stroke-dasharray="1.66 0.42"/>
    </g>
    <defs>
        <clipPath id="clip0_148_843">
            <rect width="100" height="100" fill="white"/>
        </clipPath>
    </defs>
</svg>
