<svg width="100" height="100" viewBox="0 0 100 100" fill="none" xmlns="http://www.w3.org/2000/svg">
    <g clip-path="url(#clip0_148_859)">
        <path d="M49.6711 2.64653C48.8337 2.69001 48.0131 2.90399 47.2577 3.27593L14.3249 19.4926C13.4725 19.9121 12.7236 20.5225 12.1337 21.2785C11.5438 22.0344 11.1281 22.9165 10.9175 23.8593L2.79274 60.2859C2.60513 61.1252 2.58413 61.9944 2.73099 62.8421C2.87786 63.6899 3.1896 64.4989 3.64776 65.2212C3.75885 65.3978 3.87833 65.5688 4.00576 65.7334L26.8005 94.9416C27.3906 95.6974 28.1396 96.3076 28.992 96.7269C29.8444 97.1462 30.7782 97.3639 31.7242 97.3637L68.2792 97.355C69.2249 97.3557 70.1585 97.1387 71.0109 96.7202C71.8633 96.3016 72.6125 95.6923 73.2029 94.9373L95.9893 65.7248C96.5796 64.9686 96.9956 64.0862 97.2064 63.1431C97.4171 62.2 97.4171 61.2204 97.2065 60.2773L89.0691 23.8506C88.8585 22.9079 88.4429 22.0258 87.853 21.2698C87.2631 20.5138 86.5141 19.9034 85.6617 19.4839L52.7247 3.27593C51.7745 2.80806 50.7245 2.59164 49.6711 2.64653Z"
              fill="#326CE5"/>
        <path d="M49.6534 0.00897171C48.7703 0.0566405 47.9055 0.283895 47.1094 0.677431L12.3402 17.7926C11.4404 18.2355 10.6498 18.8799 10.0271 19.6779C9.4044 20.476 8.96558 21.4072 8.74327 22.4023L0.167864 60.8561C-0.0307917 61.7425 -0.0533772 62.6606 0.101447 63.5561C0.256272 64.4515 0.585354 65.3061 1.0692 66.0692C1.18691 66.2548 1.31341 66.4344 1.44825 66.6074L25.5108 97.4434C26.1337 98.2411 26.9243 98.8852 27.8241 99.3278C28.7239 99.7704 29.7097 100 30.7083 100L69.2976 99.9913C70.2958 99.992 71.2814 99.7629 72.1812 99.3211C73.0809 98.8792 73.8718 98.236 74.4951 97.439L98.5492 66.5987C99.1718 65.8009 99.6106 64.8699 99.833 63.875C100.055 62.8801 100.056 61.8468 99.8339 60.8517L91.2458 22.3937C91.0229 21.3993 90.5839 20.4689 89.9612 19.6717C89.3385 18.8744 88.5482 18.2307 87.6489 17.7882L52.8797 0.673091C51.8757 0.178835 50.7663 -0.0495361 49.6534 0.00897171ZM49.6702 2.64808C50.7236 2.59319 51.7736 2.80961 52.7238 3.27748L85.6608 19.4854C86.5132 19.9049 87.2622 20.5154 87.8521 21.2713C88.442 22.0273 88.8577 22.9094 89.0683 23.8521L97.2057 60.2788C97.4163 61.2219 97.4162 62.2015 97.2055 63.1446C96.9948 64.0877 96.5788 64.9701 95.9884 65.7263L73.2021 94.9388C72.6116 95.6938 71.8624 96.3032 71.01 96.7218C70.1577 97.1403 69.224 97.3573 68.2784 97.3566L31.7234 97.3653C30.7774 97.3655 29.8435 97.1478 28.9911 96.7285C28.1387 96.3092 27.3897 95.699 26.7997 94.9432L4.00489 65.735C3.87746 65.5704 3.75798 65.3994 3.64689 65.2228C3.18873 64.5004 2.87699 63.6914 2.73013 62.8437C2.58327 61.996 2.60426 61.1268 2.79188 60.2875L10.9166 23.8608C11.1272 22.9181 11.5429 22.036 12.1328 21.2801C12.7227 20.5241 13.4717 19.9137 14.324 19.4942L47.2568 3.27752C48.0123 2.90558 48.8328 2.6916 49.6702 2.64812L49.6702 2.64808Z"
              fill="white"/>
        <path d="M33.4091 81.2273L32.2045 81.5682C32.1288 81.3674 32.017 81.1723 31.8693 80.983C31.7254 80.7898 31.5284 80.6307 31.2784 80.5057C31.0284 80.3807 30.7083 80.3182 30.3182 80.3182C29.7841 80.3182 29.339 80.4413 28.983 80.6875C28.6307 80.9299 28.4545 81.2386 28.4545 81.6136C28.4545 81.947 28.5758 82.2102 28.8182 82.4034C29.0606 82.5966 29.4394 82.7576 29.9545 82.8864L31.25 83.2045C32.0303 83.3939 32.6117 83.6837 32.9943 84.0739C33.3769 84.4602 33.5682 84.9583 33.5682 85.5682C33.5682 86.0682 33.4242 86.5152 33.1364 86.9091C32.8523 87.303 32.4545 87.6136 31.9432 87.8409C31.4318 88.0682 30.8371 88.1818 30.1591 88.1818C29.2689 88.1818 28.5322 87.9886 27.9489 87.6023C27.3655 87.2159 26.9962 86.6515 26.8409 85.9091L28.1136 85.5909C28.2348 86.0606 28.464 86.4129 28.8011 86.6477C29.142 86.8826 29.5871 87 30.1364 87C30.7614 87 31.2576 86.8674 31.625 86.6023C31.9962 86.3333 32.1818 86.0114 32.1818 85.6364C32.1818 85.3333 32.0758 85.0795 31.8636 84.875C31.6515 84.6667 31.3258 84.5114 30.8864 84.4091L29.4318 84.0682C28.6326 83.8788 28.0455 83.5852 27.6705 83.1875C27.2992 82.786 27.1136 82.2841 27.1136 81.6818C27.1136 81.1894 27.2519 80.7538 27.5284 80.375C27.8087 79.9962 28.1894 79.6989 28.6705 79.483C29.1553 79.267 29.7045 79.1591 30.3182 79.1591C31.1818 79.1591 31.8598 79.3485 32.3523 79.7273C32.8485 80.1061 33.2008 80.6061 33.4091 81.2273ZM39.2457 88.1818C38.4048 88.1818 37.6795 87.9962 37.0696 87.625C36.4635 87.25 35.9957 86.7273 35.6662 86.0568C35.3404 85.3826 35.1776 84.5985 35.1776 83.7045C35.1776 82.8106 35.3404 82.0227 35.6662 81.3409C35.9957 80.6553 36.4541 80.1212 37.0412 79.7386C37.6321 79.3523 38.3215 79.1591 39.1094 79.1591C39.5639 79.1591 40.0128 79.2348 40.456 79.3864C40.8991 79.5379 41.3026 79.7841 41.6662 80.125C42.0298 80.4621 42.3196 80.9091 42.5355 81.4659C42.7514 82.0227 42.8594 82.7083 42.8594 83.5227V84.0909H36.1321V82.9318H41.4957C41.4957 82.4394 41.3973 82 41.2003 81.6136C41.0071 81.2273 40.7306 80.9223 40.3707 80.6989C40.0147 80.4754 39.5942 80.3636 39.1094 80.3636C38.5753 80.3636 38.1132 80.4962 37.723 80.7614C37.3366 81.0227 37.0393 81.3636 36.831 81.7841C36.6226 82.2045 36.5185 82.6553 36.5185 83.1364V83.9091C36.5185 84.5682 36.6321 85.1269 36.8594 85.5852C37.0904 86.0398 37.4105 86.3864 37.8196 86.625C38.2287 86.8598 38.7041 86.9773 39.2457 86.9773C39.598 86.9773 39.9162 86.928 40.2003 86.8295C40.4882 86.7273 40.7363 86.5758 40.9446 86.375C41.1529 86.1705 41.3139 85.9167 41.4276 85.6136L42.723 85.9773C42.5866 86.4167 42.3575 86.803 42.0355 87.1364C41.7135 87.4659 41.3158 87.7235 40.8423 87.9091C40.3688 88.0909 39.8366 88.1818 39.2457 88.1818ZM48.4446 88.1818C47.6264 88.1818 46.9219 87.9886 46.331 87.6023C45.7401 87.2159 45.2855 86.6837 44.9673 86.0057C44.6491 85.3277 44.4901 84.553 44.4901 83.6818C44.4901 82.7955 44.6529 82.0133 44.9787 81.3352C45.3082 80.6534 45.7666 80.1212 46.3537 79.7386C46.9446 79.3523 47.634 79.1591 48.4219 79.1591C49.0355 79.1591 49.5885 79.2727 50.081 79.5C50.5734 79.7273 50.9768 80.0455 51.2912 80.4545C51.6056 80.8636 51.8007 81.3409 51.8764 81.8864H50.5355C50.4332 81.4886 50.206 81.1364 49.8537 80.8295C49.5052 80.5189 49.0355 80.3636 48.4446 80.3636C47.9219 80.3636 47.4635 80.5 47.0696 80.7727C46.6795 81.0417 46.3745 81.4223 46.1548 81.9148C45.9389 82.4034 45.831 82.9773 45.831 83.6364C45.831 84.3106 45.937 84.8977 46.1491 85.3977C46.3651 85.8977 46.6681 86.286 47.0582 86.5625C47.4522 86.839 47.9143 86.9773 48.4446 86.9773C48.7931 86.9773 49.1094 86.9167 49.3935 86.7955C49.6776 86.6742 49.9181 86.5 50.1151 86.2727C50.312 86.0455 50.4522 85.7727 50.5355 85.4545H51.8764C51.8007 85.9697 51.6132 86.4337 51.3139 86.8466C51.0185 87.2557 50.6264 87.5814 50.1378 87.8239C49.6529 88.0625 49.0885 88.1818 48.4446 88.1818ZM53.8366 88V79.2727H55.1321V80.5909H55.223C55.3821 80.1591 55.67 79.8087 56.0866 79.5398C56.5033 79.2708 56.973 79.1364 57.4957 79.1364C57.5942 79.1364 57.7173 79.1383 57.8651 79.142C58.0128 79.1458 58.1245 79.1515 58.2003 79.1591V80.5227C58.1548 80.5114 58.0507 80.4943 57.8878 80.4716C57.7287 80.4451 57.5601 80.4318 57.3821 80.4318C56.9579 80.4318 56.5791 80.5208 56.2457 80.6989C55.9162 80.8731 55.6548 81.1155 55.4616 81.4261C55.2723 81.733 55.1776 82.0833 55.1776 82.4773V88H53.8366ZM63.1832 88.1818C62.3423 88.1818 61.617 87.9962 61.0071 87.625C60.401 87.25 59.9332 86.7273 59.6037 86.0568C59.2779 85.3826 59.1151 84.5985 59.1151 83.7045C59.1151 82.8106 59.2779 82.0227 59.6037 81.3409C59.9332 80.6553 60.3916 80.1212 60.9787 79.7386C61.5696 79.3523 62.259 79.1591 63.0469 79.1591C63.5014 79.1591 63.9503 79.2348 64.3935 79.3864C64.8366 79.5379 65.2401 79.7841 65.6037 80.125C65.9673 80.4621 66.2571 80.9091 66.473 81.4659C66.6889 82.0227 66.7969 82.7083 66.7969 83.5227V84.0909H60.0696V82.9318H65.4332C65.4332 82.4394 65.3348 82 65.1378 81.6136C64.9446 81.2273 64.6681 80.9223 64.3082 80.6989C63.9522 80.4754 63.5317 80.3636 63.0469 80.3636C62.5128 80.3636 62.0507 80.4962 61.6605 80.7614C61.2741 81.0227 60.9768 81.3636 60.7685 81.7841C60.5601 82.2045 60.456 82.6553 60.456 83.1364V83.9091C60.456 84.5682 60.5696 85.1269 60.7969 85.5852C61.0279 86.0398 61.348 86.3864 61.7571 86.625C62.1662 86.8598 62.6416 86.9773 63.1832 86.9773C63.5355 86.9773 63.8537 86.928 64.1378 86.8295C64.4257 86.7273 64.6738 86.5758 64.8821 86.375C65.0904 86.1705 65.2514 85.9167 65.3651 85.6136L66.6605 85.9773C66.5241 86.4167 66.295 86.803 65.973 87.1364C65.651 87.4659 65.2533 87.7235 64.7798 87.9091C64.3063 88.0909 63.7741 88.1818 63.1832 88.1818ZM72.6321 79.2727V80.4091H68.1094V79.2727H72.6321ZM69.4276 77.1818H70.7685V85.5C70.7685 85.8788 70.8234 86.1629 70.9332 86.3523C71.0469 86.5379 71.1908 86.6629 71.3651 86.7273C71.5431 86.7879 71.7306 86.8182 71.9276 86.8182C72.0753 86.8182 72.1965 86.8106 72.2912 86.7955C72.3859 86.7765 72.4616 86.7614 72.5185 86.75L72.7912 87.9545C72.7003 87.9886 72.5734 88.0227 72.4105 88.0568C72.2476 88.0947 72.0412 88.1136 71.7912 88.1136C71.4124 88.1136 71.0412 88.0322 70.6776 87.8693C70.3177 87.7064 70.0185 87.4583 69.7798 87.125C69.545 86.7917 69.4276 86.3712 69.4276 85.8636V77.1818Z"
              fill="white"/>
        <path d="M52.5568 39.5251H73.1182" stroke="white" stroke-width="0.79375" stroke-miterlimit="10"
              stroke-linejoin="round"/>
        <path d="M40.8206 27.4302H73.1183" stroke="white" stroke-width="0.794" stroke-miterlimit="10"
              stroke-linejoin="round"/>
        <path d="M26.8818 27.4302H34.9679" stroke="white" stroke-width="0.79375" stroke-miterlimit="10"
              stroke-linejoin="round"/>
        <path fill-rule="evenodd" clip-rule="evenodd"
              d="M37.6088 41.4733C37.6088 34.8065 43.2149 29.4021 50.1305 29.4021C57.046 29.4021 62.6522 34.8065 62.6522 41.4733H56.7957C56.7957 38.1399 53.8115 35.4377 50.1305 35.4377C46.4494 35.4377 43.4653 38.1399 43.4653 41.4733H37.6088Z"
              fill="white" stroke="#326CE5" stroke-width="0.264583" stroke-miterlimit="10" stroke-linecap="square"/>
        <path d="M52.5568 51.6201H73.1182" stroke="white" stroke-width="0.79375" stroke-miterlimit="10"
              stroke-linejoin="round"/>
        <path d="M40.8206 63.7151H73.1183" stroke="white" stroke-width="0.79375" stroke-miterlimit="10"
              stroke-linejoin="round"/>
        <path d="M26.8818 63.7151H34.9679" stroke="white" stroke-width="0.79375" stroke-miterlimit="10"
              stroke-linejoin="round"/>
        <path fill-rule="evenodd" clip-rule="evenodd" d="M34.525 41.113H65.6676V62.0174H34.525V41.113Z" fill="white"
              stroke="#326CE5" stroke-width="0.264583" stroke-miterlimit="10" stroke-linecap="square"/>
        <path d="M50.0963 54.7373C51.7963 54.7373 53.1745 53.317 53.1745 51.5651C53.1745 49.8131 51.7963 48.3928 50.0963 48.3928C48.3963 48.3928 47.0182 49.8131 47.0182 51.5651C47.0182 53.317 48.3963 54.7373 50.0963 54.7373Z"
              fill="#326CE5"/>
    </g>
    <defs>
        <clipPath id="clip0_148_859">
            <rect width="100" height="100" fill="white"/>
        </clipPath>
    </defs>
</svg>
