<svg width="100" height="100" viewBox="0 0 100 100" fill="none" xmlns="http://www.w3.org/2000/svg">
    <g clip-path="url(#clip0_148_875)">
        <path d="M49.8667 2.64666C49.0292 2.69013 48.2087 2.90411 47.4533 3.27605L14.5205 19.4927C13.6681 19.9122 12.9191 20.5226 12.3292 21.2786C11.7393 22.0346 11.3236 22.9167 11.113 23.8594L2.9883 60.2861C2.80069 61.1253 2.77969 61.9945 2.92655 62.8423C3.07341 63.69 3.38515 64.499 3.84332 65.2214C3.95441 65.398 4.07388 65.5689 4.20132 65.7336L26.9961 94.9417C27.5861 95.6975 28.3351 96.3077 29.1875 96.7271C30.0399 97.1464 30.9738 97.364 31.9198 97.3638L68.4748 97.3551C69.4204 97.3558 70.3541 97.1389 71.2065 96.7203C72.0588 96.3018 72.808 95.6924 73.3985 94.9374L96.1848 65.7249C96.7752 64.9687 97.1912 64.0863 97.4019 63.1432C97.6126 62.2001 97.6127 61.2205 97.4021 60.2774L89.2647 23.8507C89.0541 22.908 88.6384 22.0259 88.0485 21.2699C87.4586 20.5139 86.7097 19.9035 85.8573 19.484L52.9203 3.27605C51.97 2.80818 50.92 2.59176 49.8667 2.64666Z"
              fill="#326CE5"/>
        <path d="M49.849 0.00897171C48.966 0.0566405 48.1011 0.283895 47.305 0.677431L12.5358 17.7926C11.6361 18.2355 10.8454 18.8799 10.2227 19.6779C9.60001 20.476 9.1612 21.4072 8.93889 22.4023L0.363481 60.8561C0.164826 61.7425 0.142241 62.6606 0.297065 63.5561C0.45189 64.4515 0.780971 65.3061 1.26482 66.0692C1.38252 66.2548 1.50902 66.4344 1.64387 66.6074L25.7064 97.4434C26.3293 98.2411 27.12 98.8852 28.0198 99.3278C28.9195 99.7704 29.9053 100 30.9039 100L69.4932 99.9913C70.4915 99.992 71.477 99.7629 72.3768 99.3211C73.2766 98.8792 74.0674 98.236 74.6907 97.439L98.7448 66.5987C99.3674 65.8009 99.8062 64.8699 100.029 63.875C100.251 62.8801 100.251 61.8468 100.029 60.8517L91.4414 22.3937C91.2185 21.3993 90.7795 20.4689 90.1568 19.6717C89.5341 18.8744 88.7438 18.2307 87.8445 17.7882L53.0753 0.673091C52.0713 0.178835 50.9619 -0.0495361 49.849 0.00897171ZM49.8658 2.64808C50.9192 2.59319 51.9692 2.80961 52.9195 3.27748L85.8564 19.4854C86.7088 19.9049 87.4578 20.5154 88.0477 21.2713C88.6376 22.0273 89.0533 22.9094 89.2639 23.8521L97.4013 60.2788C97.6119 61.2219 97.6118 62.2015 97.4011 63.1446C97.1904 64.0877 96.7744 64.9701 96.184 65.7263L73.3977 94.9388C72.8072 95.6938 72.058 96.3032 71.2057 96.7218C70.3533 97.1403 69.4196 97.3573 68.474 97.3566L31.919 97.3653C30.973 97.3655 30.0391 97.1478 29.1867 96.7285C28.3343 96.3092 27.5853 95.699 26.9953 94.9432L4.20051 65.735C4.07307 65.5704 3.9536 65.3994 3.84251 65.2228C3.38434 64.5004 3.07261 63.6914 2.92575 62.8437C2.77888 61.996 2.79988 61.1268 2.98749 60.2875L11.1122 23.8608C11.3228 22.9181 11.7385 22.036 12.3284 21.2801C12.9183 20.5241 13.6673 19.9137 14.5197 19.4942L47.4524 3.27752C48.2079 2.90558 49.0284 2.6916 49.8659 2.64812L49.8658 2.64808Z"
              fill="white"/>
        <path d="M45.4091 82.2273L44.2045 82.5682C44.1288 82.3674 44.017 82.1723 43.8693 81.983C43.7254 81.7898 43.5284 81.6307 43.2784 81.5057C43.0284 81.3807 42.7083 81.3182 42.3182 81.3182C41.7841 81.3182 41.339 81.4413 40.983 81.6875C40.6307 81.9299 40.4545 82.2386 40.4545 82.6136C40.4545 82.947 40.5758 83.2102 40.8182 83.4034C41.0606 83.5966 41.4394 83.7576 41.9545 83.8864L43.25 84.2045C44.0303 84.3939 44.6117 84.6837 44.9943 85.0739C45.3769 85.4602 45.5682 85.9583 45.5682 86.5682C45.5682 87.0682 45.4242 87.5152 45.1364 87.9091C44.8523 88.303 44.4545 88.6136 43.9432 88.8409C43.4318 89.0682 42.8371 89.1818 42.1591 89.1818C41.2689 89.1818 40.5322 88.9886 39.9489 88.6023C39.3655 88.2159 38.9962 87.6515 38.8409 86.9091L40.1136 86.5909C40.2348 87.0606 40.464 87.4129 40.8011 87.6477C41.142 87.8826 41.5871 88 42.1364 88C42.7614 88 43.2576 87.8674 43.625 87.6023C43.9962 87.3333 44.1818 87.0114 44.1818 86.6364C44.1818 86.3333 44.0758 86.0795 43.8636 85.875C43.6515 85.6667 43.3258 85.5114 42.8864 85.4091L41.4318 85.0682C40.6326 84.8788 40.0455 84.5852 39.6705 84.1875C39.2992 83.786 39.1136 83.2841 39.1136 82.6818C39.1136 82.1894 39.2519 81.7538 39.5284 81.375C39.8087 80.9962 40.1894 80.6989 40.6705 80.483C41.1553 80.267 41.7045 80.1591 42.3182 80.1591C43.1818 80.1591 43.8598 80.3485 44.3523 80.7273C44.8485 81.1061 45.2008 81.6061 45.4091 82.2273ZM51.3821 80.2727V81.4091H46.8594V80.2727H51.3821ZM48.1776 78.1818H49.5185V86.5C49.5185 86.8788 49.5734 87.1629 49.6832 87.3523C49.7969 87.5379 49.9408 87.6629 50.1151 87.7273C50.2931 87.7879 50.4806 87.8182 50.6776 87.8182C50.8253 87.8182 50.9465 87.8106 51.0412 87.7955C51.1359 87.7765 51.2116 87.7614 51.2685 87.75L51.5412 88.9545C51.4503 88.9886 51.3234 89.0227 51.1605 89.0568C50.9976 89.0947 50.7912 89.1136 50.5412 89.1136C50.1624 89.1136 49.7912 89.0322 49.4276 88.8693C49.0677 88.7064 48.7685 88.4583 48.5298 88.125C48.295 87.7917 48.1776 87.3712 48.1776 86.8636V78.1818ZM59.4247 82.2273L58.2202 82.5682C58.1444 82.3674 58.0327 82.1723 57.8849 81.983C57.741 81.7898 57.544 81.6307 57.294 81.5057C57.044 81.3807 56.724 81.3182 56.3338 81.3182C55.7997 81.3182 55.3546 81.4413 54.9986 81.6875C54.6463 81.9299 54.4702 82.2386 54.4702 82.6136C54.4702 82.947 54.5914 83.2102 54.8338 83.4034C55.0762 83.5966 55.455 83.7576 55.9702 83.8864L57.2656 84.2045C58.0459 84.3939 58.6274 84.6837 59.0099 85.0739C59.3925 85.4602 59.5838 85.9583 59.5838 86.5682C59.5838 87.0682 59.4399 87.5152 59.152 87.9091C58.8679 88.303 58.4702 88.6136 57.9588 88.8409C57.4474 89.0682 56.8527 89.1818 56.1747 89.1818C55.2846 89.1818 54.5478 88.9886 53.9645 88.6023C53.3812 88.2159 53.0118 87.6515 52.8565 86.9091L54.1293 86.5909C54.2505 87.0606 54.4796 87.4129 54.8168 87.6477C55.1577 87.8826 55.6027 88 56.152 88C56.777 88 57.2732 87.8674 57.6406 87.6023C58.0118 87.3333 58.1974 87.0114 58.1974 86.6364C58.1974 86.3333 58.0914 86.0795 57.8793 85.875C57.6671 85.6667 57.3414 85.5114 56.902 85.4091L55.4474 85.0682C54.6482 84.8788 54.0611 84.5852 53.6861 84.1875C53.3149 83.786 53.1293 83.2841 53.1293 82.6818C53.1293 82.1894 53.2675 81.7538 53.544 81.375C53.8243 80.9962 54.205 80.6989 54.6861 80.483C55.1709 80.267 55.7202 80.1591 56.3338 80.1591C57.1974 80.1591 57.8755 80.3485 58.3679 80.7273C58.8641 81.1061 59.2164 81.6061 59.4247 82.2273Z"
              fill="white"/>
        <path fill-rule="evenodd" clip-rule="evenodd" d="M40.0636 24H76.2426V50.1899H40.0636V24Z" stroke="white"
              stroke-width="0.529146" stroke-miterlimit="10" stroke-linecap="square" stroke-linejoin="round"
              stroke-dasharray="1.59 1.59"/>
        <path fill-rule="evenodd" clip-rule="evenodd" d="M31.5317 32.0645H67.7108V58.2544H31.5317V32.0645Z"
              fill="#326CE5" stroke="white" stroke-width="0.529146" stroke-miterlimit="10" stroke-linecap="square"
              stroke-linejoin="round" stroke-dasharray="1.59 1.59"/>
        <path fill-rule="evenodd" clip-rule="evenodd" d="M23 40.1289H59.1789V66.3188H23V40.1289Z" fill="white"/>
        <path fill-rule="evenodd" clip-rule="evenodd" d="M23 40.1289H59.1789V66.3188H23V40.1289Z" stroke="white"
              stroke-width="0.529167" stroke-miterlimit="10" stroke-linejoin="round"/>
        <path fill-rule="evenodd" clip-rule="evenodd"
              d="M25.9562 47.4108C25.9562 44.9571 32.7312 42.968 41.0885 42.968C49.4459 42.968 56.2209 44.9571 56.2209 47.4108C56.2209 49.8645 49.4459 51.8536 41.0885 51.8536C32.7312 51.8536 25.9562 49.8645 25.9562 47.4108Z"
              fill="white"/>
        <path d="M56.2209 47.4108C56.2209 49.8645 49.4459 51.8536 41.0885 51.8536C32.7312 51.8536 25.9562 49.8645 25.9562 47.4108C25.9562 44.9571 32.7312 42.968 41.0885 42.968C49.4459 42.968 56.2209 44.9571 56.2209 47.4108ZM56.2209 47.4108V59.4295C56.2209 61.8832 49.4459 63.8723 41.0885 63.8723C32.7312 63.8723 25.9562 61.8832 25.9562 59.4295V47.4108"
              stroke="#326CE5" stroke-width="0.529167" stroke-miterlimit="10" stroke-linejoin="round"/>
    </g>
    <defs>
        <clipPath id="clip0_148_875">
            <rect width="100" height="100" fill="white"/>
        </clipPath>
    </defs>
</svg>
