<svg width="100" height="100" viewBox="0 0 100 100" fill="none" xmlns="http://www.w3.org/2000/svg">
    <g clip-path="url(#clip0_148_904)">
        <path d="M49.6711 2.64666C48.8337 2.69013 48.0131 2.90411 47.2577 3.27605L14.3249 19.4927C13.4725 19.9122 12.7236 20.5226 12.1337 21.2786C11.5438 22.0346 11.1281 22.9167 10.9175 23.8594L2.79274 60.2861C2.60513 61.1253 2.58413 61.9945 2.73099 62.8423C2.87786 63.69 3.1896 64.499 3.64776 65.2214C3.75885 65.398 3.87833 65.5689 4.00576 65.7336L26.8005 94.9417C27.3906 95.6975 28.1396 96.3077 28.992 96.7271C29.8444 97.1464 30.7782 97.364 31.7242 97.3638L68.2792 97.3551C69.2249 97.3558 70.1585 97.1389 71.0109 96.7203C71.8633 96.3018 72.6125 95.6924 73.2029 94.9374L95.9893 65.7249C96.5796 64.9687 96.9956 64.0863 97.2064 63.1432C97.4171 62.2001 97.4171 61.2205 97.2065 60.2774L89.0691 23.8507C88.8585 22.908 88.4429 22.0259 87.853 21.2699C87.2631 20.5139 86.5141 19.9035 85.6617 19.484L52.7247 3.27605C51.7745 2.80818 50.7245 2.59176 49.6711 2.64666Z"
              fill="#326CE5"/>
        <path d="M49.6534 0.00897171C48.7703 0.0566405 47.9055 0.283895 47.1094 0.677431L12.3402 17.7926C11.4404 18.2355 10.6498 18.8799 10.0271 19.6779C9.4044 20.476 8.96558 21.4072 8.74327 22.4023L0.167864 60.8561C-0.0307917 61.7425 -0.0533772 62.6606 0.101447 63.5561C0.256272 64.4515 0.585354 65.3061 1.0692 66.0692C1.18691 66.2548 1.31341 66.4344 1.44825 66.6074L25.5108 97.4434C26.1337 98.2411 26.9243 98.8852 27.8241 99.3278C28.7239 99.7704 29.7097 100 30.7083 100L69.2976 99.9913C70.2958 99.992 71.2814 99.7629 72.1812 99.3211C73.0809 98.8792 73.8718 98.236 74.4951 97.439L98.5492 66.5987C99.1718 65.8009 99.6106 64.8699 99.833 63.875C100.055 62.8801 100.056 61.8468 99.8339 60.8517L91.2458 22.3937C91.0229 21.3993 90.5839 20.4689 89.9612 19.6717C89.3385 18.8744 88.5482 18.2307 87.6489 17.7882L52.8797 0.673091C51.8757 0.178835 50.7663 -0.0495361 49.6534 0.00897171ZM49.6702 2.64808C50.7236 2.59319 51.7736 2.80961 52.7238 3.27748L85.6608 19.4854C86.5132 19.9049 87.2622 20.5154 87.8521 21.2713C88.442 22.0273 88.8577 22.9094 89.0683 23.8521L97.2057 60.2788C97.4163 61.2219 97.4162 62.2015 97.2055 63.1446C96.9948 64.0877 96.5788 64.9701 95.9884 65.7263L73.2021 94.9388C72.6116 95.6938 71.8624 96.3032 71.01 96.7218C70.1577 97.1403 69.224 97.3573 68.2784 97.3566L31.7234 97.3653C30.7774 97.3655 29.8435 97.1478 28.9911 96.7285C28.1387 96.3092 27.3897 95.699 26.7997 94.9432L4.00489 65.735C3.87746 65.5704 3.75798 65.3994 3.64689 65.2228C3.18873 64.5004 2.87699 63.6914 2.73013 62.8437C2.58327 61.996 2.60426 61.1268 2.79188 60.2875L10.9166 23.8608C11.1272 22.9181 11.5429 22.036 12.1328 21.2801C12.7227 20.5241 13.4717 19.9137 14.324 19.4942L47.2568 3.27752C48.0123 2.90558 48.8328 2.6916 49.6702 2.64812L49.6702 2.64808Z"
              fill="white"/>
        <path d="M40.7273 86.4318V81.2727H42.0682V90H40.7273V88.5227H40.6364C40.4318 88.9659 40.1136 89.3428 39.6818 89.6534C39.25 89.9602 38.7045 90.1136 38.0455 90.1136C37.5 90.1136 37.0152 89.9943 36.5909 89.7557C36.1667 89.5133 35.8333 89.1496 35.5909 88.6648C35.3485 88.1761 35.2273 87.5606 35.2273 86.8182V81.2727H36.5682V86.7273C36.5682 87.3636 36.7462 87.8712 37.1023 88.25C37.4621 88.6288 37.9205 88.8182 38.4773 88.8182C38.8106 88.8182 39.1496 88.733 39.4943 88.5625C39.8428 88.392 40.1345 88.1307 40.3693 87.7784C40.608 87.4261 40.7273 86.9773 40.7273 86.4318ZM50.706 83.2273L49.5014 83.5682C49.4257 83.3674 49.3139 83.1723 49.1662 82.983C49.0223 82.7898 48.8253 82.6307 48.5753 82.5057C48.3253 82.3807 48.0052 82.3182 47.6151 82.3182C47.081 82.3182 46.6359 82.4413 46.2798 82.6875C45.9276 82.9299 45.7514 83.2386 45.7514 83.6136C45.7514 83.947 45.8726 84.2102 46.1151 84.4034C46.3575 84.5966 46.7363 84.7576 47.2514 84.8864L48.5469 85.2045C49.3272 85.3939 49.9086 85.6837 50.2912 86.0739C50.6738 86.4602 50.8651 86.9583 50.8651 87.5682C50.8651 88.0682 50.7211 88.5152 50.4332 88.9091C50.1491 89.303 49.7514 89.6136 49.2401 89.8409C48.7287 90.0682 48.134 90.1818 47.456 90.1818C46.5658 90.1818 45.8291 89.9886 45.2457 89.6023C44.6624 89.2159 44.2931 88.6515 44.1378 87.9091L45.4105 87.5909C45.5317 88.0606 45.7609 88.4129 46.098 88.6477C46.4389 88.8826 46.884 89 47.4332 89C48.0582 89 48.5545 88.8674 48.9219 88.6023C49.2931 88.3333 49.4787 88.0114 49.4787 87.6364C49.4787 87.3333 49.3726 87.0795 49.1605 86.875C48.9484 86.6667 48.6226 86.5114 48.1832 86.4091L46.7287 86.0682C45.9295 85.8788 45.3423 85.5852 44.9673 85.1875C44.5961 84.786 44.4105 84.2841 44.4105 83.6818C44.4105 83.1894 44.5488 82.7538 44.8253 82.375C45.1056 81.9962 45.4863 81.6989 45.9673 81.483C46.4522 81.267 47.0014 81.1591 47.6151 81.1591C48.4787 81.1591 49.1567 81.3485 49.6491 81.7273C50.1454 82.1061 50.4976 82.6061 50.706 83.2273ZM56.5426 90.1818C55.7017 90.1818 54.9763 89.9962 54.3665 89.625C53.7604 89.25 53.2926 88.7273 52.9631 88.0568C52.6373 87.3826 52.4744 86.5985 52.4744 85.7045C52.4744 84.8106 52.6373 84.0227 52.9631 83.3409C53.2926 82.6553 53.7509 82.1212 54.3381 81.7386C54.929 81.3523 55.6184 81.1591 56.4062 81.1591C56.8608 81.1591 57.3097 81.2348 57.7528 81.3864C58.196 81.5379 58.5994 81.7841 58.9631 82.125C59.3267 82.4621 59.6165 82.9091 59.8324 83.4659C60.0483 84.0227 60.1562 84.7083 60.1562 85.5227V86.0909H53.429V84.9318H58.7926C58.7926 84.4394 58.6941 84 58.4972 83.6136C58.304 83.2273 58.0275 82.9223 57.6676 82.6989C57.3116 82.4754 56.8911 82.3636 56.4062 82.3636C55.8722 82.3636 55.41 82.4962 55.0199 82.7614C54.6335 83.0227 54.3362 83.3636 54.1278 83.7841C53.9195 84.2045 53.8153 84.6553 53.8153 85.1364V85.9091C53.8153 86.5682 53.929 87.1269 54.1562 87.5852C54.3873 88.0398 54.7074 88.3864 55.1165 88.625C55.5256 88.8598 56.0009 88.9773 56.5426 88.9773C56.8949 88.9773 57.2131 88.928 57.4972 88.8295C57.785 88.7273 58.0331 88.5758 58.2415 88.375C58.4498 88.1705 58.6108 87.9167 58.7244 87.6136L60.0199 87.9773C59.8835 88.4167 59.6544 88.803 59.3324 89.1364C59.0104 89.4659 58.6127 89.7235 58.1392 89.9091C57.6657 90.0909 57.1335 90.1818 56.5426 90.1818ZM62.196 90V81.2727H63.4915V82.5909H63.5824C63.7415 82.1591 64.0294 81.8087 64.446 81.5398C64.8627 81.2708 65.3324 81.1364 65.8551 81.1364C65.9536 81.1364 66.0767 81.1383 66.2244 81.142C66.3722 81.1458 66.4839 81.1515 66.5597 81.1591V82.5227C66.5142 82.5114 66.41 82.4943 66.2472 82.4716C66.0881 82.4451 65.9195 82.4318 65.7415 82.4318C65.3172 82.4318 64.9384 82.5208 64.6051 82.6989C64.2756 82.8731 64.0142 83.1155 63.821 83.4261C63.6316 83.733 63.5369 84.0833 63.5369 84.4773V90H62.196Z"
              fill="white"/>
        <path d="M28.6947 20.6697C26.0636 20.6697 23.9442 22.8522 23.9442 25.5637V67.1926C23.9442 69.9041 26.0636 72.0883 28.6947 72.0883H71.3069C73.9379 72.0883 76.0558 69.9041 76.0558 67.1926V25.5637C76.0558 22.8522 73.9379 20.6697 71.3069 20.6697H28.6947ZM50.0007 28.7935C54.0472 28.7935 57.2884 32.1601 57.2884 36.3303C57.2884 40.5004 54.0472 43.8654 50.0007 43.8654C45.9543 43.8654 42.6876 40.5004 42.6876 36.3303C42.6876 32.1601 45.9543 28.7935 50.0007 28.7935ZM50.0007 48.891C55.6804 48.891 67.0638 51.8292 67.0638 57.6825V63.9628H32.9361V57.6825C32.9361 51.8292 44.3212 48.891 50.0007 48.891Z"
              fill="white"/>
    </g>
    <defs>
        <clipPath id="clip0_148_904">
            <rect width="100" height="100" fill="white"/>
        </clipPath>
    </defs>
</svg>
