<svg width="100" height="100" viewBox="0 0 100 100" fill="none" xmlns="http://www.w3.org/2000/svg">
    <g clip-path="url(#clip0_148_911)">
        <path d="M49.6711 2.64666C48.8337 2.69013 48.0131 2.90411 47.2577 3.27605L14.3249 19.4927C13.4725 19.9122 12.7236 20.5226 12.1337 21.2786C11.5438 22.0346 11.1281 22.9167 10.9175 23.8594L2.79274 60.2861C2.60513 61.1253 2.58413 61.9945 2.73099 62.8423C2.87786 63.69 3.1896 64.499 3.64776 65.2214C3.75885 65.398 3.87833 65.5689 4.00576 65.7336L26.8005 94.9417C27.3906 95.6975 28.1396 96.3077 28.992 96.7271C29.8444 97.1464 30.7782 97.364 31.7242 97.3638L68.2792 97.3551C69.2249 97.3558 70.1585 97.1389 71.0109 96.7203C71.8633 96.3018 72.6125 95.6924 73.2029 94.9374L95.9893 65.7249C96.5796 64.9687 96.9956 64.0863 97.2064 63.1432C97.4171 62.2001 97.4171 61.2205 97.2065 60.2774L89.0691 23.8507C88.8585 22.908 88.4429 22.0259 87.853 21.2699C87.2631 20.5139 86.5141 19.9035 85.6617 19.484L52.7247 3.27605C51.7745 2.80818 50.7245 2.59176 49.6711 2.64666Z"
              fill="#326CE5"/>
        <path d="M49.6534 0.00897171C48.7703 0.0566405 47.9055 0.283895 47.1094 0.677431L12.3402 17.7926C11.4404 18.2355 10.6498 18.8799 10.0271 19.6779C9.4044 20.476 8.96558 21.4072 8.74327 22.4023L0.167864 60.8561C-0.0307917 61.7425 -0.0533772 62.6606 0.101447 63.5561C0.256272 64.4515 0.585354 65.3061 1.0692 66.0692C1.18691 66.2548 1.31341 66.4344 1.44825 66.6074L25.5108 97.4434C26.1337 98.2411 26.9243 98.8852 27.8241 99.3278C28.7239 99.7704 29.7097 100 30.7083 100L69.2976 99.9913C70.2958 99.992 71.2814 99.7629 72.1812 99.3211C73.0809 98.8792 73.8718 98.236 74.4951 97.439L98.5492 66.5987C99.1718 65.8009 99.6106 64.8699 99.833 63.875C100.055 62.8801 100.056 61.8468 99.8339 60.8517L91.2458 22.3937C91.0229 21.3993 90.5839 20.4689 89.9612 19.6717C89.3385 18.8744 88.5482 18.2307 87.6489 17.7882L52.8797 0.673091C51.8757 0.178835 50.7663 -0.0495361 49.6534 0.00897171ZM49.6702 2.64808C50.7236 2.59319 51.7736 2.80961 52.7238 3.27748L85.6608 19.4854C86.5132 19.9049 87.2622 20.5154 87.8521 21.2713C88.442 22.0273 88.8577 22.9094 89.0683 23.8521L97.2057 60.2788C97.4163 61.2219 97.4162 62.2015 97.2055 63.1446C96.9948 64.0877 96.5788 64.9701 95.9884 65.7263L73.2021 94.9388C72.6116 95.6938 71.8624 96.3032 71.01 96.7218C70.1577 97.1403 69.224 97.3573 68.2784 97.3566L31.7234 97.3653C30.7774 97.3655 29.8435 97.1478 28.9911 96.7285C28.1387 96.3092 27.3897 95.699 26.7997 94.9432L4.00489 65.735C3.87746 65.5704 3.75798 65.3994 3.64689 65.2228C3.18873 64.5004 2.87699 63.6914 2.73013 62.8437C2.58327 61.996 2.60426 61.1268 2.79188 60.2875L10.9166 23.8608C11.1272 22.9181 11.5429 22.036 12.1328 21.2801C12.7227 20.5241 13.4717 19.9137 14.324 19.4942L47.2568 3.27752C48.0123 2.90558 48.8328 2.6916 49.6702 2.64812L49.6702 2.64808Z"
              fill="white"/>
        <path d="M47.3636 80.2727L44.1364 89H42.7727L39.5455 80.2727H41L43.4091 87.2273H43.5L45.9091 80.2727H47.3636ZM52.3665 89.1818C51.5786 89.1818 50.8873 88.9943 50.2926 88.6193C49.7017 88.2443 49.2396 87.7197 48.9062 87.0455C48.5767 86.3712 48.4119 85.5833 48.4119 84.6818C48.4119 83.7727 48.5767 82.9792 48.9062 82.3011C49.2396 81.6231 49.7017 81.0966 50.2926 80.7216C50.8873 80.3466 51.5786 80.1591 52.3665 80.1591C53.1544 80.1591 53.8438 80.3466 54.4347 80.7216C55.0294 81.0966 55.4915 81.6231 55.821 82.3011C56.1544 82.9792 56.321 83.7727 56.321 84.6818C56.321 85.5833 56.1544 86.3712 55.821 87.0455C55.4915 87.7197 55.0294 88.2443 54.4347 88.6193C53.8438 88.9943 53.1544 89.1818 52.3665 89.1818ZM52.3665 87.9773C52.965 87.9773 53.4574 87.8239 53.8438 87.517C54.2301 87.2102 54.5161 86.8068 54.7017 86.3068C54.8873 85.8068 54.9801 85.2652 54.9801 84.6818C54.9801 84.0985 54.8873 83.5549 54.7017 83.0511C54.5161 82.5473 54.2301 82.1402 53.8438 81.8295C53.4574 81.5189 52.965 81.3636 52.3665 81.3636C51.768 81.3636 51.2756 81.5189 50.8892 81.8295C50.5028 82.1402 50.2169 82.5473 50.0312 83.0511C49.8456 83.5549 49.7528 84.0985 49.7528 84.6818C49.7528 85.2652 49.8456 85.8068 50.0312 86.3068C50.2169 86.8068 50.5028 87.2102 50.8892 87.517C51.2756 87.8239 51.768 87.9773 52.3665 87.9773ZM59.7088 77.3636V89H58.3679V77.3636H59.7088Z"
              fill="white"/>
        <path fill-rule="evenodd" clip-rule="evenodd"
              d="M24.3328 40.1055C24.3328 43.6547 35.8244 46.5318 50 46.5318C64.1756 46.5318 75.6672 43.6547 75.6672 40.1055V57.4902C75.6672 61.0394 64.1756 63.9165 50 63.9165C35.8244 63.9165 24.3328 61.0394 24.3328 57.4902V40.1055Z"
              fill="white"/>
        <path fill-rule="evenodd" clip-rule="evenodd"
              d="M24.3328 40.1056C24.3328 36.5564 35.8244 33.6792 50 33.6792C64.1756 33.6792 75.6672 36.5564 75.6672 40.1056C75.6672 43.6547 64.1756 46.5319 50 46.5319C35.8244 46.5319 24.3328 43.6547 24.3328 40.1056Z"
              fill="white"/>
        <path d="M75.6672 40.1056C75.6672 43.6547 64.1756 46.5319 50 46.5319C35.8244 46.5319 24.3328 43.6547 24.3328 40.1056C24.3328 36.5564 35.8244 33.6792 50 33.6792C64.1756 33.6792 75.6672 36.5564 75.6672 40.1056ZM75.6672 40.1056V57.4903C75.6672 61.0395 64.1756 63.9166 50 63.9166C35.8244 63.9166 24.3328 61.0395 24.3328 57.4903V40.1056"
              stroke="#326CE5" stroke-width="0.264583" stroke-miterlimit="10" stroke-linejoin="round"/>
    </g>
    <defs>
        <clipPath id="clip0_148_911">
            <rect width="100" height="100" fill="white"/>
        </clipPath>
    </defs>
</svg>
