<svg height="10" viewBox="0 0 10 10" width="10" xmlns="http://www.w3.org/2000/svg">
    <path d="M1.91667 2.00001C1.91666 1.95398 1.95398 1.91667 2 1.91667H4.83296C5.01708 1.91667 5.16629 1.76743 5.16629 1.58333C5.16629 1.39924 5.01708 1.25 4.83296 1.25H2C1.58576 1.25 1.24996 1.58583 1.25 2.00007L1.25057 8.00017C1.25061 8.41433 1.58638 8.75008 2.00057 8.75008H7.99963C8.41383 8.75008 8.74963 8.41429 8.74963 8.00008V5.16675C8.74963 4.98267 8.60042 4.83342 8.41629 4.83342C8.23221 4.83342 8.08296 4.98267 8.08296 5.16675V8.00008C8.08296 8.04612 8.04567 8.08342 7.99963 8.08342H2.00057C1.95455 8.08342 1.91724 8.04612 1.91724 8.00008L1.91667 2.00001Z"
          fill="#433459"/>
    <path d="M5.83285 1.58333C5.83285 1.76743 5.9821 1.91667 6.16618 1.91667H7.61143L4.34714 5.18096C4.21697 5.31113 4.21697 5.52221 4.34714 5.65237C4.47735 5.78254 4.68839 5.78254 4.81855 5.65237L8.08285 2.38807V3.83342C8.08285 4.01751 8.2321 4.16675 8.41618 4.16675C8.60026 4.16675 8.74951 4.01751 8.74951 3.83342V1.58333C8.74951 1.39924 8.60026 1.25 8.41618 1.25H6.16618C5.9821 1.25 5.83285 1.39924 5.83285 1.58333Z"
          fill="#433459"/>
</svg>
